if (_typeface_js && _typeface_js.loadFace) _typeface_js.loadFace({"glyphs":{"ợ":{"x_min":59,"x_max":836.328125,"ha":761,"o":"m 59 381 q 148 644 59 542 q 379 747 237 747 q 508 720 449 747 q 611 646 567 694 q 753 700 704 647 q 802 851 802 753 l 834 851 l 836 848 q 786 680 838 742 q 638 611 733 619 q 684 505 668 564 q 701 381 701 446 l 701 352 q 612 88 701 190 q 381 -14 522 -14 q 148 88 238 -14 q 59 352 59 190 l 59 381 m 95 352 q 172 118 95 214 q 381 22 250 22 q 587 118 510 22 q 664 352 664 215 l 664 381 q 586 613 664 516 q 379 710 508 710 q 172 613 250 710 q 95 381 95 516 l 95 352 m 422 -206 l 358 -206 l 358 -112 l 422 -112 l 422 -206 "},"\u0000":{"x_min":0,"x_max":0,"ha":0},"ҷ":{"x_min":116.65625,"x_max":680.0625,"ha":761,"o":"m 644 0 l 607 0 l 607 354 q 501 315 562 331 q 394 299 440 299 q 180 357 244 299 q 116 575 116 414 l 116 733 l 153 733 l 153 575 q 207 386 153 436 q 394 336 261 336 q 509 353 447 338 q 607 388 570 368 l 607 733 l 644 733 l 644 0 m 680 -238 l 643 -238 l 643 64 l 680 64 l 680 -238 "},"Ẩ":{"x_min":23.0625,"x_max":806.40625,"ha":829,"o":"m 655 295 l 173 295 l 63 0 l 23 0 l 392 987 l 436 987 l 806 0 l 766 0 l 655 295 m 187 331 l 642 331 l 435 884 l 416 942 l 412 942 l 394 884 l 187 331 m 442 1231 l 388 1231 l 224 1084 l 225 1080 l 277 1080 l 414 1206 l 554 1080 l 605 1080 l 606 1084 l 442 1231 m 607 1158 l 607 1221 q 687 1236 665 1225 q 708 1276 708 1247 q 672 1322 708 1308 q 582 1335 636 1335 l 585 1373 q 704 1348 658 1373 q 750 1281 750 1323 q 719 1215 750 1237 q 638 1188 689 1192 l 638 1158 l 607 1158 "},"Ҿ":{"x_min":10.03125,"x_max":1003.09375,"ha":1167,"o":"m 628 -15 q 319 100 429 -15 q 209 406 209 215 l 209 522 l 209 531 q 60 591 112 537 q 10 737 7 644 l 12 741 l 44 741 q 86 618 44 663 q 210 567 128 573 q 335 879 223 759 q 611 1000 446 1000 q 896 888 789 1000 q 1003 587 1003 776 l 1003 531 l 246 531 l 246 522 l 246 406 q 341 128 246 235 q 628 21 437 21 q 801 48 723 21 q 937 125 878 75 l 957 96 q 822 14 897 44 q 628 -15 746 -15 m 611 963 q 357 851 455 963 q 250 571 260 740 l 252 568 l 966 568 l 966 589 q 871 857 966 751 q 611 963 776 963 m 630 0 q 554 -79 578 -46 q 529 -151 529 -111 q 540 -186 529 -166 q 586 -205 551 -205 q 627 -198 610 -205 q 661 -179 644 -191 l 672 -212 q 635 -233 656 -224 q 586 -242 614 -242 q 519 -218 545 -242 q 493 -151 493 -193 q 521 -67 493 -109 q 595 13 550 -25 l 630 0 "},"ӱ":{"x_min":29.15625,"x_max":640.25,"ha":663,"o":"m 310 132 l 337 59 l 341 59 l 345 70 l 599 733 l 640 733 l 314 -122 q 244 -247 284 -199 q 118 -296 204 -296 q 89 -294 105 -296 q 66 -288 73 -291 l 72 -254 q 94 -258 80 -256 q 118 -260 109 -260 q 215 -223 180 -260 q 277 -115 250 -187 l 321 4 l 29 733 l 69 733 l 310 132 m 559 902 l 466 902 l 466 982 l 559 982 l 559 902 m 241 902 l 148 902 l 148 982 l 241 982 l 241 902 "},"ǻ":{"x_min":62.390625,"x_max":632.78125,"ha":733,"o":"m 577 135 q 463 27 539 69 q 281 -14 388 -14 q 120 41 179 -14 q 62 192 62 97 q 149 347 62 284 q 367 409 236 409 l 577 409 l 577 516 q 518 659 577 608 q 353 710 459 710 q 192 662 253 710 q 132 538 132 614 l 101 539 l 100 543 q 166 688 96 628 q 353 747 237 747 q 542 687 471 747 q 613 515 613 628 l 613 147 q 618 72 613 109 q 632 0 622 35 l 592 0 q 580 72 583 48 q 577 124 577 96 l 577 135 m 281 21 q 466 69 390 21 q 577 207 541 118 l 577 372 l 369 372 q 177 319 255 372 q 99 189 99 267 q 148 68 99 115 q 281 21 198 21 m 462 1193 l 509 1193 l 511 1190 l 389 1044 l 344 1044 l 462 1193 m 267 911 q 295 978 267 950 q 361 1007 322 1007 q 427 978 399 1007 q 454 911 454 950 q 427 844 454 871 q 361 817 399 817 q 295 844 322 817 q 267 911 267 871 m 302 911 q 319 868 302 885 q 361 851 336 851 q 403 868 386 851 q 420 911 420 885 q 403 955 420 937 q 361 972 386 972 q 319 955 336 972 q 302 911 302 937 "},"‥":{"x_min":143.328125,"x_max":461.65625,"ha":606,"o":"m 201 0 l 143 0 l 143 88 l 201 88 l 201 0 m 461 0 l 403 0 l 403 88 l 461 88 l 461 0 "},"Ổ":{"x_min":90.203125,"x_max":834.890625,"ha":925,"o":"m 834 419 q 735 102 834 219 q 463 -14 636 -14 q 189 102 288 -14 q 90 419 90 219 l 90 567 q 188 884 90 767 q 461 1001 287 1001 q 735 884 635 1001 q 834 567 834 767 l 834 419 m 798 569 q 710 857 798 750 q 461 965 623 965 q 214 857 301 965 q 127 569 127 750 l 127 419 q 214 129 127 236 q 463 22 301 22 q 711 129 624 22 q 798 419 798 236 l 798 569 m 486 1245 l 432 1245 l 268 1098 l 269 1094 l 321 1094 l 458 1220 l 598 1094 l 649 1094 l 650 1098 l 486 1245 m 651 1172 l 651 1235 q 731 1250 709 1239 q 752 1290 752 1261 q 716 1336 752 1322 q 626 1349 680 1349 l 629 1387 q 748 1362 702 1387 q 794 1295 794 1337 q 763 1229 794 1251 q 682 1202 733 1206 l 682 1172 l 651 1172 "},"Ừ":{"x_min":125.46875,"x_max":1073.6875,"ha":926,"o":"m 1071 1099 l 1073 1095 q 1005 889 1075 961 q 807 820 934 817 l 803 822 l 803 853 q 979 916 918 853 q 1040 1099 1040 979 l 1071 1099 m 800 987 l 800 331 q 706 77 800 168 q 463 -14 611 -14 q 219 77 314 -14 q 125 331 125 169 l 125 987 l 162 987 l 162 331 q 247 106 162 191 q 463 22 332 22 q 678 106 593 22 q 763 331 763 191 l 763 987 l 800 987 m 487 1091 l 486 1088 l 435 1088 l 276 1265 l 278 1268 l 338 1268 l 487 1091 "},"Á":{"x_min":23.0625,"x_max":806.40625,"ha":829,"o":"m 655 295 l 173 295 l 63 0 l 23 0 l 392 987 l 436 987 l 806 0 l 766 0 l 655 295 m 187 331 l 642 331 l 435 884 l 416 942 l 412 942 l 394 884 l 187 331 m 531 1262 l 584 1262 l 586 1259 l 429 1082 l 384 1082 l 382 1085 l 531 1262 "},"ѩ":{"x_min":145.140625,"x_max":988.171875,"ha":1042,"o":"m 181 304 l 457 304 l 640 732 l 640 733 l 675 733 l 988 0 l 948 0 l 830 267 l 678 267 l 678 0 l 642 0 l 642 267 l 484 267 l 367 0 l 327 0 l 441 267 l 181 267 l 181 0 l 145 0 l 145 733 l 181 733 l 181 304 m 500 304 l 814 304 l 694 578 l 659 677 l 655 677 l 620 578 l 500 304 "},"ĥ":{"x_min":115.296875,"x_max":647.03125,"ha":760,"o":"m 153 581 q 253 703 187 659 q 413 747 319 747 q 587 674 528 747 q 647 446 647 602 l 647 0 l 609 0 l 609 447 q 556 651 609 592 q 414 710 503 710 q 234 642 297 710 q 153 466 170 573 l 153 0 l 116 0 l 116 375 l 115 375 q 115 399 115 389 q 116 418 115 408 l 116 1058 l 153 1058 l 153 581 m 492 1093 l 492 1085 l 445 1085 l 319 1211 l 195 1085 l 151 1085 l 151 1096 l 293 1236 l 347 1236 l 492 1093 "},"ѷ":{"x_min":7.875,"x_max":729.09375,"ha":672,"o":"m 266 155 l 301 55 l 305 54 l 341 155 l 488 592 q 556 711 516 676 q 659 746 596 746 q 697 740 678 746 q 729 727 715 735 l 713 699 q 689 710 704 705 q 656 714 674 714 q 580 689 613 714 q 518 575 547 663 l 320 0 l 285 0 l 285 0 l 29 733 l 68 733 l 266 155 m 251 873 l 250 869 l 205 869 l 7 1045 l 9 1049 l 58 1049 l 251 873 m 404 872 l 403 869 l 361 869 l 193 1045 l 195 1049 l 241 1049 l 404 872 "},"Κ":{"x_min":135.640625,"x_max":808.4375,"ha":832,"o":"m 296 489 l 172 489 l 172 0 l 135 0 l 135 987 l 172 987 l 172 524 l 306 524 l 712 987 l 755 987 l 756 984 l 337 501 l 808 4 l 806 0 l 763 0 l 296 489 "},"҅":{"x_min":48.828125,"x_max":158.03125,"ha":182,"o":"m 48 1017 l 48 1113 l 114 1113 l 114 1019 l 158 933 l 133 914 l 48 1017 "},"»":{"x_min":86.890625,"x_max":530.765625,"ha":608,"o":"m 285 373 l 86 637 l 134 637 l 333 379 l 333 366 l 134 115 l 86 115 l 285 373 m 482 373 l 283 637 l 331 637 l 530 379 l 530 366 l 331 115 l 283 115 l 482 373 "},"∆":{"x_min":39.34375,"x_max":919.671875,"ha":957,"o":"m 457 987 l 501 987 l 919 0 l 39 0 l 457 987 m 94 36 l 863 36 l 499 898 l 480 947 l 476 947 l 458 898 l 94 36 "},"ỹ":{"x_min":29.15625,"x_max":640.25,"ha":663,"o":"m 310 132 l 337 59 l 341 59 l 345 70 l 599 733 l 640 733 l 314 -122 q 244 -247 284 -199 q 118 -296 204 -296 q 89 -294 105 -296 q 66 -288 73 -291 l 72 -254 q 94 -258 80 -256 q 118 -260 109 -260 q 215 -223 180 -260 q 277 -115 250 -187 l 321 4 l 29 733 l 69 733 l 310 132 m 550 989 q 515 898 550 933 q 430 863 481 863 q 326 905 379 863 q 236 947 273 947 q 177 922 200 947 q 154 856 154 897 l 116 863 q 150 951 116 917 q 236 984 184 984 q 340 942 285 984 q 430 900 394 900 q 488 927 464 900 q 512 996 512 954 l 550 989 "},"Ԓ":{"x_min":23.0625,"x_max":872.78125,"ha":969,"o":"m 836 987 l 836 0 l 799 0 l 799 950 l 318 950 l 293 557 q 228 118 276 237 q 44 0 180 0 l 23 0 l 23 36 l 46 36 q 196 140 153 36 q 256 557 240 243 l 284 987 l 836 987 m 872 80 l 872 -60 q 821 -235 872 -173 q 679 -296 771 -296 q 642 -292 659 -296 q 603 -282 624 -289 l 612 -247 q 644 -256 625 -252 q 679 -260 662 -260 q 795 -208 754 -260 q 836 -60 836 -155 l 836 80 l 872 80 "},"ў":{"x_min":29.15625,"x_max":640.25,"ha":663,"o":"m 310 132 l 337 59 l 341 59 l 345 70 l 599 733 l 640 733 l 314 -122 q 244 -247 284 -199 q 118 -296 204 -296 q 89 -294 105 -296 q 66 -288 73 -291 l 72 -254 q 94 -258 80 -256 q 118 -260 109 -260 q 215 -223 180 -260 q 277 -115 250 -187 l 321 4 l 29 733 l 69 733 l 310 132 m 531 1014 l 532 1010 q 484 892 535 937 q 347 846 434 846 q 209 892 260 846 q 162 1010 159 937 l 164 1014 l 195 1014 q 231 920 195 956 q 347 884 268 884 q 461 920 423 884 q 499 1014 499 957 l 531 1014 "},"ţ":{"x_min":19.671875,"x_max":382.515625,"ha":429,"o":"m 192 931 l 192 733 l 373 733 l 373 696 l 192 696 l 192 189 q 223 60 192 99 q 303 22 253 22 q 336 23 322 22 q 375 28 350 25 l 382 -4 q 347 -12 365 -10 q 305 -14 328 -14 q 193 33 231 -14 q 155 189 155 82 l 155 696 l 19 696 l 19 733 l 155 733 l 155 931 l 192 931 m 322 -176 l 289 -302 l 255 -302 l 286 -179 l 286 -105 l 322 -105 l 322 -176 "},"«":{"x_min":98.25,"x_max":540.796875,"ha":614,"o":"m 146 355 l 345 98 l 298 98 l 98 349 l 98 362 l 298 613 l 345 613 l 146 355 m 341 355 l 540 98 l 493 98 l 293 349 l 293 362 l 493 613 l 540 613 l 341 355 "},"ử":{"x_min":113.9375,"x_max":862.765625,"ha":760,"o":"m 861 861 l 862 857 q 807 677 864 743 q 644 605 749 612 l 644 301 l 645 301 q 644 284 645 293 q 644 265 644 276 l 644 0 l 613 0 l 608 128 q 510 23 573 61 q 355 -14 446 -14 q 178 66 242 -14 q 113 315 113 146 l 113 733 l 150 733 l 150 314 q 205 93 150 164 q 354 22 260 22 q 527 76 465 22 q 607 221 588 131 l 607 733 l 644 733 l 644 648 l 648 647 q 782 706 735 650 q 828 861 828 761 l 861 861 m 377 844 l 377 911 q 475 934 445 916 q 505 988 505 951 q 458 1045 505 1027 q 345 1063 410 1063 l 350 1096 q 490 1067 436 1096 q 543 988 543 1038 q 507 910 543 937 q 409 880 471 884 l 409 844 l 377 844 "},"í":{"x_min":109.703125,"x_max":313.171875,"ha":275,"o":"m 159 0 l 122 0 l 122 733 l 159 733 l 159 0 m 258 1030 l 311 1030 l 313 1027 l 156 850 l 111 850 l 109 853 l 258 1030 "},"ң":{"x_min":116.65625,"x_max":680.0625,"ha":760,"o":"m 644 0 l 607 0 l 607 358 l 153 358 l 153 0 l 116 0 l 116 733 l 153 733 l 153 395 l 607 395 l 607 733 l 644 733 l 644 0 m 680 -238 l 643 -238 l 643 64 l 680 64 l 680 -238 "},"ņ":{"x_min":114.625,"x_max":647.03125,"ha":760,"o":"m 147 733 l 152 585 q 250 705 186 662 q 406 747 314 747 q 587 671 526 747 q 647 432 647 596 l 647 0 l 610 0 l 610 433 q 555 648 610 585 q 407 710 501 710 q 231 643 292 710 q 153 470 170 576 l 153 0 l 116 0 l 116 375 l 114 375 q 114 401 114 388 q 116 428 115 415 l 116 733 l 147 733 m 410 -169 l 377 -295 l 343 -295 l 374 -172 l 374 -98 l 410 -98 l 410 -169 "},"µ":{"x_min":115.96875,"x_max":647.703125,"ha":760,"o":"m 151 733 l 151 298 q 208 84 151 147 q 358 22 266 22 q 540 85 483 22 q 609 263 597 148 l 609 733 l 646 733 l 646 342 l 647 342 q 647 321 647 331 q 646 297 647 311 l 646 0 l 618 0 l 611 139 q 517 25 578 65 q 364 -14 456 -14 q 239 16 295 -14 q 151 115 183 46 l 151 -282 l 115 -282 l 115 733 l 151 733 "},"ỳ":{"x_min":29.15625,"x_max":640.25,"ha":663,"o":"m 310 132 l 337 59 l 341 59 l 345 70 l 599 733 l 640 733 l 314 -122 q 244 -247 284 -199 q 118 -296 204 -296 q 89 -294 105 -296 q 66 -288 73 -291 l 72 -254 q 94 -258 80 -256 q 118 -260 109 -260 q 215 -223 180 -260 q 277 -115 250 -187 l 321 4 l 29 733 l 69 733 l 310 132 m 384 858 l 383 855 l 332 855 l 173 1032 l 175 1035 l 235 1035 l 384 858 "},"Ҫ":{"x_min":97.671875,"x_max":796.3125,"ha":900,"o":"m 794 302 l 796 298 q 704 66 798 146 q 455 -14 609 -14 q 195 105 293 -14 q 97 419 97 225 l 97 567 q 195 881 97 761 q 455 1001 293 1001 q 704 921 609 1001 q 796 690 798 840 l 794 686 l 763 686 q 680 892 763 819 q 455 965 597 965 q 222 855 310 965 q 134 569 134 746 l 134 419 q 222 131 134 240 q 455 22 310 22 q 680 92 597 22 q 763 302 763 162 l 794 302 m 475 7 q 538 -73 513 -30 q 563 -157 563 -115 q 536 -224 563 -199 q 469 -248 510 -248 q 420 -239 441 -248 q 384 -218 399 -230 l 395 -185 q 429 -204 412 -197 q 469 -211 446 -211 q 515 -192 504 -211 q 526 -157 526 -172 q 505 -84 526 -117 q 439 -6 483 -52 l 475 7 "},"қ":{"x_min":115.96875,"x_max":679.0625,"ha":709,"o":"m 267 358 l 153 358 l 153 0 l 115 0 l 115 733 l 153 733 l 153 394 l 274 394 l 585 733 l 633 733 l 634 730 l 307 375 l 676 4 l 675 0 l 626 0 l 267 358 m 679 -238 l 642 -238 l 642 64 l 679 64 l 679 -238 "},"Ι":{"x_min":162.78125,"x_max":199.390625,"ha":362,"o":"m 199 0 l 162 0 l 162 987 l 199 987 l 199 0 "},"Ύ":{"x_min":-88.6875,"x_max":803.6875,"ha":829,"o":"m 395 438 l 413 404 l 431 438 l 758 987 l 803 987 l 432 375 l 432 0 l 395 0 l 395 375 l 24 987 l 69 987 l 395 438 m -66 1027 l 5 1027 l -66 904 l -88 904 l -66 1027 "},"ѕ":{"x_min":75.671875,"x_max":602.9375,"ha":691,"o":"m 566 179 q 516 285 566 238 q 342 360 466 333 q 152 432 211 388 q 94 562 94 476 q 160 694 94 640 q 339 747 227 747 q 531 690 461 747 q 597 541 600 633 l 596 537 l 564 537 q 504 660 564 609 q 339 710 443 710 q 183 666 236 710 q 130 563 130 621 q 175 465 130 505 q 353 394 220 424 q 539 316 476 365 q 602 179 602 267 q 532 39 602 92 q 345 -14 461 -14 q 144 43 217 -14 q 75 182 71 100 l 77 186 l 107 186 q 181 61 112 99 q 345 22 250 22 q 506 69 446 22 q 566 179 566 117 "},"Ш":{"x_min":127.5,"x_max":1233.015625,"ha":1383,"o":"m 164 987 l 164 36 l 661 36 l 661 987 l 699 987 l 699 36 l 1196 36 l 1196 987 l 1233 987 l 1233 0 l 127 0 l 127 987 l 164 987 "},"M":{"x_min":135.640625,"x_max":1055.3125,"ha":1191,"o":"m 597 58 l 601 58 l 1013 987 l 1055 987 l 1055 0 l 1018 0 l 1018 897 l 1014 897 l 614 0 l 585 0 l 176 917 l 172 916 l 172 0 l 135 0 l 135 987 l 186 987 l 597 58 "},"Ψ":{"x_min":105.796875,"x_max":864.0625,"ha":969,"o":"m 502 297 l 506 295 q 737 382 647 295 q 827 614 827 470 l 827 987 l 864 987 l 864 614 q 764 353 864 448 q 502 255 663 257 l 502 0 l 465 0 l 465 255 q 204 354 303 259 q 105 614 105 448 l 105 987 l 143 987 l 143 614 q 231 384 143 471 q 461 296 320 297 l 465 297 l 465 987 l 502 987 l 502 297 "},"ӊ":{"x_min":116.65625,"x_max":679.375,"ha":760,"o":"m 644 0 l 607 0 l 607 358 l 153 358 l 153 0 l 116 0 l 116 733 l 153 733 l 153 395 l 607 395 l 607 733 l 644 733 l 644 0 m 679 -21 l 631 -190 l 597 -190 l 642 -24 l 642 91 l 679 91 l 679 -21 "},"ũ":{"x_min":113.9375,"x_max":645.671875,"ha":760,"o":"m 608 128 q 510 23 573 61 q 355 -14 446 -14 q 178 66 242 -14 q 113 315 113 146 l 113 733 l 150 733 l 150 314 q 205 93 150 164 q 354 22 260 22 q 527 76 465 22 q 607 221 588 131 l 607 733 l 644 733 l 644 301 l 645 301 q 644 284 645 293 q 644 265 644 276 l 644 0 l 613 0 l 608 128 m 595 989 q 560 898 595 933 q 475 863 526 863 q 371 905 424 863 q 281 947 318 947 q 222 922 245 947 q 199 856 199 897 l 161 863 q 195 951 161 917 q 281 984 229 984 q 385 942 330 984 q 475 900 439 900 q 533 927 509 900 q 557 996 557 954 l 595 989 "},"ŭ":{"x_min":113.9375,"x_max":645.671875,"ha":760,"o":"m 608 128 q 510 23 573 61 q 355 -14 446 -14 q 178 66 242 -14 q 113 315 113 146 l 113 733 l 150 733 l 150 314 q 205 93 150 164 q 354 22 260 22 q 527 76 465 22 q 607 221 588 131 l 607 733 l 644 733 l 644 301 l 645 301 q 644 284 645 293 q 644 265 644 276 l 644 0 l 613 0 l 608 128 m 576 1014 l 577 1010 q 529 892 580 937 q 392 846 479 846 q 254 892 305 846 q 207 1010 204 937 l 209 1014 l 240 1014 q 276 920 240 956 q 392 884 313 884 q 506 920 468 884 q 544 1014 544 957 l 576 1014 "},"―":{"x_min":121.875,"x_max":1027.953125,"ha":1135,"o":"m 1027 489 l 121 489 l 121 525 l 1027 525 l 1027 489 "},"{":{"x_min":49.515625,"x_max":448.984375,"ha":448,"o":"m 435 -299 q 268 -181 318 -261 q 219 13 219 -101 l 219 179 q 177 318 219 269 q 49 368 136 368 l 49 413 q 177 461 136 413 q 219 600 219 510 l 219 767 q 268 964 219 883 q 435 1083 318 1045 l 445 1052 q 302 947 348 1021 q 255 767 255 872 l 255 600 q 220 463 255 518 q 112 390 185 407 q 220 316 185 373 q 255 179 255 260 l 255 13 q 303 -162 255 -90 q 448 -267 351 -234 l 435 -299 "},"ҿ":{"x_min":12.71875,"x_max":746.046875,"ha":816,"o":"m 475 -14 q 256 86 345 -14 q 167 339 167 186 l 167 382 l 167 396 q 51 450 92 404 q 12 574 10 496 l 14 577 l 46 577 q 77 476 46 513 q 170 432 108 439 q 269 659 183 572 q 478 747 355 747 q 673 667 600 747 q 746 447 746 586 l 746 391 l 204 391 l 204 382 l 204 339 q 280 113 204 204 q 475 22 356 22 q 601 46 541 22 q 700 111 662 71 l 720 83 q 620 13 681 40 q 475 -14 559 -14 m 478 710 q 291 631 364 710 q 209 432 219 552 l 211 427 l 709 427 l 709 450 q 647 637 709 563 q 478 710 585 710 m 455 0 q 379 -79 403 -46 q 354 -151 354 -111 q 365 -186 354 -166 q 411 -205 376 -205 q 452 -198 435 -205 q 486 -179 469 -191 l 497 -212 q 460 -233 481 -224 q 411 -242 439 -242 q 344 -218 370 -242 q 318 -151 318 -193 q 346 -67 318 -109 q 420 13 375 -25 l 455 0 "},"¼":{"x_min":95.609375,"x_max":972.0625,"ha":1040,"o":"m 244 450 l 208 450 l 208 956 l 95 947 l 95 985 l 244 1000 l 244 450 m 244 93 l 214 114 l 696 886 l 726 865 l 244 93 m 852 163 l 972 163 l 972 126 l 852 126 l 852 0 l 815 0 l 815 126 l 515 126 l 515 150 l 810 543 l 852 543 l 852 163 m 571 163 l 815 163 l 815 489 l 811 491 l 786 450 l 571 163 "},"Ḿ":{"x_min":135.640625,"x_max":1055.3125,"ha":1191,"o":"m 597 58 l 601 58 l 1013 987 l 1055 987 l 1055 0 l 1018 0 l 1018 897 l 1014 897 l 614 0 l 585 0 l 176 917 l 172 916 l 172 0 l 135 0 l 135 987 l 186 987 l 597 58 m 720 1262 l 773 1262 l 775 1259 l 618 1082 l 573 1082 l 571 1085 l 720 1262 "},"Ӄ":{"x_min":132.9375,"x_max":765.09375,"ha":829,"o":"m 370 528 l 371 524 l 412 524 q 669 445 573 524 q 765 193 765 366 q 701 5 767 99 q 490 -117 636 -88 l 480 -88 q 668 18 611 -62 q 728 193 725 99 q 644 416 732 343 q 412 489 556 489 l 169 489 l 169 0 l 132 0 l 132 987 l 169 987 l 169 524 l 317 524 l 709 987 l 752 987 l 754 984 l 370 528 "},"ι":{"x_min":115.296875,"x_max":356.75,"ha":383,"o":"m 152 733 l 152 189 q 185 60 152 97 q 278 22 217 22 q 310 23 296 22 q 350 28 324 25 l 356 -5 q 321 -12 340 -10 q 280 -14 301 -14 q 154 32 194 -14 q 115 189 115 80 l 115 733 l 152 733 "},"Ĳ":{"x_min":162.78125,"x_max":990.71875,"ha":1123,"o":"m 199 0 l 162 0 l 162 987 l 199 987 l 199 0 m 954 987 l 990 987 l 990 286 q 913 67 990 148 q 714 -14 836 -14 q 500 57 578 -14 q 425 267 421 129 l 426 271 l 457 271 q 522 83 457 143 q 714 22 587 22 q 885 93 817 22 q 954 286 954 164 l 954 987 "},"Ê":{"x_min":135.640625,"x_max":716.203125,"ha":766,"o":"m 647 496 l 172 496 l 172 36 l 716 36 l 716 0 l 135 0 l 135 987 l 716 987 l 716 950 l 172 950 l 172 533 l 647 533 l 647 496 m 591 1094 l 591 1086 l 544 1086 l 418 1212 l 294 1086 l 250 1086 l 250 1097 l 392 1237 l 446 1237 l 591 1094 "},"Ά":{"x_min":23.0625,"x_max":806.40625,"ha":829,"o":"m 655 295 l 173 295 l 63 0 l 23 0 l 392 987 l 436 987 l 806 0 l 766 0 l 655 295 m 187 331 l 642 331 l 435 884 l 416 942 l 412 942 l 394 884 l 187 331 m 191 1027 l 263 1027 l 191 904 l 169 904 l 191 1027 "},")":{"x_min":18.984375,"x_max":312.65625,"ha":423,"o":"m 312 383 q 231 -49 312 144 q 33 -314 149 -242 l 29 -314 l 18 -289 q 199 -26 122 -221 q 276 382 276 167 l 276 400 q 199 808 276 614 q 18 1071 122 1003 l 29 1096 l 33 1096 q 230 826 148 1026 q 312 397 312 626 l 312 383 "},"ε":{"x_min":78.671875,"x_max":670.890625,"ha":761,"o":"m 78 196 q 121 311 78 266 q 247 375 163 357 q 131 441 172 396 q 91 543 91 486 q 166 692 91 640 q 373 744 242 744 q 578 689 495 744 q 658 545 661 634 l 657 541 l 627 541 q 554 662 627 616 q 373 708 481 708 q 189 663 250 708 q 129 545 129 619 q 188 433 129 472 q 375 393 248 393 l 486 393 l 486 356 l 375 356 q 180 317 246 356 q 115 194 115 278 q 182 70 115 114 q 373 25 249 25 q 564 75 491 25 q 638 204 638 125 l 669 204 l 670 200 q 584 43 674 98 q 373 -11 495 -11 q 160 44 241 -11 q 78 196 78 99 "},"э":{"x_min":86.671875,"x_max":655.15625,"ha":739,"o":"m 348 710 q 188 660 255 710 q 120 507 120 609 l 88 507 l 86 512 q 162 683 83 619 q 348 747 240 747 q 572 646 489 747 q 655 381 655 544 l 655 352 q 572 87 655 188 q 349 -14 489 -14 q 160 52 236 -14 q 86 241 83 119 l 88 245 l 120 245 q 186 79 120 136 q 349 22 252 22 q 546 114 477 22 q 615 346 616 206 l 613 349 l 230 349 l 230 386 l 613 386 l 615 389 q 546 620 615 529 q 348 710 476 710 "},"Ӷ":{"x_min":130.890625,"x_max":715.53125,"ha":761,"o":"m 715 950 l 167 950 l 167 0 l 130 0 l 130 987 l 715 987 l 715 950 m 205 -238 l 168 -238 l 168 64 l 205 64 l 205 -238 "},"ӫ":{"x_min":59,"x_max":701.28125,"ha":782,"o":"m 59 381 q 148 644 59 542 q 379 747 237 747 q 612 644 522 747 q 701 381 701 542 l 701 352 q 612 88 701 190 q 381 -14 522 -14 q 148 88 238 -14 q 59 352 59 190 l 59 381 m 95 375 q 154 413 118 399 q 238 426 191 426 q 388 372 309 426 q 518 318 467 318 q 610 341 568 318 q 663 402 653 365 q 579 620 656 531 q 379 710 503 710 q 172 613 250 710 q 95 381 95 516 l 95 375 m 238 392 q 146 372 185 392 q 96 318 107 352 q 182 106 106 191 q 381 22 259 22 q 581 111 505 22 q 658 328 657 201 l 656 332 q 600 297 637 309 q 518 284 563 284 q 368 338 444 284 q 238 392 292 392 m 590 935 l 497 935 l 497 1015 l 590 1015 l 590 935 m 272 935 l 179 935 l 179 1015 l 272 1015 l 272 935 "},"ԋ":{"x_min":106.484375,"x_max":1023.46875,"ha":1144,"o":"m 586 352 l 143 352 l 143 0 l 106 0 l 106 733 l 143 733 l 143 387 l 586 387 l 586 733 l 623 733 l 623 233 q 659 74 622 127 q 763 22 696 22 q 926 97 868 23 q 986 301 983 171 q 974 422 986 359 q 939 559 961 485 l 977 560 q 1012 416 1001 474 q 1023 301 1024 358 q 949 66 1020 146 q 763 -14 878 -14 q 635 43 680 -16 q 586 233 590 103 l 586 352 "},"ш":{"x_min":116.65625,"x_max":990.203125,"ha":1081,"o":"m 153 733 l 153 36 l 537 36 l 537 733 l 575 733 l 575 36 l 953 36 l 953 733 l 990 733 l 990 0 l 116 0 l 116 733 l 153 733 "},"Я":{"x_min":64.4375,"x_max":710.78125,"ha":814,"o":"m 106 0 l 64 0 l 301 457 l 296 463 q 150 552 201 490 q 100 704 100 615 q 185 913 100 838 q 421 987 271 987 l 710 987 l 710 0 l 673 0 l 673 446 l 333 446 l 106 0 m 673 950 l 421 950 q 209 886 282 950 q 137 705 137 822 q 202 544 137 605 q 379 484 267 484 l 673 484 l 673 950 "},"a":{"x_min":62.390625,"x_max":632.78125,"ha":733,"o":"m 577 135 q 463 27 539 69 q 281 -14 388 -14 q 120 41 179 -14 q 62 192 62 97 q 149 347 62 284 q 367 409 236 409 l 577 409 l 577 516 q 518 659 577 608 q 353 710 459 710 q 192 662 253 710 q 132 538 132 614 l 101 539 l 100 543 q 166 688 96 628 q 353 747 237 747 q 542 687 471 747 q 613 515 613 628 l 613 147 q 618 72 613 109 q 632 0 622 35 l 592 0 q 580 72 583 48 q 577 124 577 96 l 577 135 m 281 21 q 466 69 390 21 q 577 207 541 118 l 577 372 l 369 372 q 177 319 255 372 q 99 189 99 267 q 148 68 99 115 q 281 21 198 21 "},"Ę":{"x_min":135.640625,"x_max":716.203125,"ha":766,"o":"m 647 496 l 172 496 l 172 36 l 716 36 l 716 0 l 135 0 l 135 987 l 716 987 l 716 950 l 172 950 l 172 533 l 647 533 l 647 496 m 430 0 q 354 -79 378 -46 q 329 -151 329 -111 q 340 -186 329 -166 q 386 -205 351 -205 q 427 -198 410 -205 q 461 -179 444 -191 l 472 -212 q 435 -233 456 -224 q 386 -242 414 -242 q 319 -218 345 -242 q 293 -151 293 -193 q 321 -67 293 -109 q 395 13 350 -25 l 430 0 "},"Ӣ":{"x_min":135.640625,"x_max":847.09375,"ha":983,"o":"m 810 987 l 847 987 l 847 0 l 810 0 l 810 918 l 806 919 l 172 0 l 135 0 l 135 987 l 172 987 l 172 71 l 176 69 l 810 987 m 706 1175 l 281 1175 l 281 1211 l 706 1211 l 706 1175 "},"Z":{"x_min":63.75,"x_max":766.390625,"ha":830,"o":"m 113 36 l 766 36 l 766 0 l 63 0 l 63 29 l 693 951 l 90 951 l 90 987 l 744 987 l 744 961 l 113 36 "}," ":{"x_min":0,"x_max":0,"ha":236},"k":{"x_min":116.65625,"x_max":642.953125,"ha":657,"o":"m 253 375 l 153 375 l 153 0 l 116 0 l 116 1058 l 153 1058 l 153 411 l 239 411 l 573 733 l 615 733 l 617 729 l 280 399 l 642 3 l 641 0 l 598 0 l 253 375 "},"Ù":{"x_min":125.46875,"x_max":800.296875,"ha":926,"o":"m 800 987 l 800 331 q 706 77 800 168 q 463 -14 611 -14 q 219 77 314 -14 q 125 331 125 169 l 125 987 l 162 987 l 162 331 q 247 106 162 191 q 463 22 332 22 q 678 106 593 22 q 763 331 763 191 l 763 987 l 800 987 m 509 1091 l 508 1088 l 457 1088 l 298 1265 l 300 1268 l 360 1268 l 509 1091 "},"Ҷ":{"x_min":132.25,"x_max":802.0625,"ha":899,"o":"m 766 987 l 766 0 l 729 0 l 729 487 q 590 457 659 467 q 457 446 522 446 q 213 517 295 446 q 132 749 132 588 l 132 987 l 168 987 l 168 749 q 241 546 168 609 q 457 482 313 482 q 592 493 524 482 q 729 523 659 503 l 729 987 l 766 987 m 802 -238 l 765 -238 l 765 64 l 802 64 l 802 -238 "},"Ů":{"x_min":125.46875,"x_max":800.296875,"ha":926,"o":"m 800 987 l 800 331 q 706 77 800 168 q 463 -14 611 -14 q 219 77 314 -14 q 125 331 125 169 l 125 987 l 162 987 l 162 331 q 247 106 162 191 q 463 22 332 22 q 678 106 593 22 q 763 331 763 191 l 763 987 l 800 987 m 379 1170 q 406 1236 379 1208 q 471 1264 433 1264 q 535 1236 508 1264 q 561 1170 561 1209 q 535 1105 561 1131 q 471 1078 508 1078 q 406 1105 433 1078 q 379 1170 379 1131 m 418 1170 q 433 1132 418 1147 q 471 1116 449 1116 q 508 1131 493 1116 q 523 1170 523 1146 q 508 1210 523 1194 q 471 1226 493 1226 q 433 1210 449 1226 q 418 1170 418 1194 "},"¢":{"x_min":90.875,"x_max":659.296875,"ha":753,"o":"m 390 22 q 554 73 483 22 q 626 225 626 124 l 657 225 l 658 221 q 586 55 661 118 q 409 -13 512 -7 l 409 -166 l 372 -166 l 372 -13 q 165 93 239 -6 q 90 352 90 193 l 90 381 q 165 639 90 539 q 372 746 240 739 l 372 893 l 409 893 l 409 746 q 589 673 516 739 q 659 492 661 607 l 657 488 l 626 488 q 556 653 626 596 q 389 710 487 710 q 193 618 260 710 q 127 381 127 526 l 127 352 q 193 114 127 206 q 390 22 260 22 "},"В":{"x_min":135.640625,"x_max":769.78125,"ha":834,"o":"m 135 0 l 135 987 l 395 987 q 633 924 548 987 q 718 734 718 861 q 677 593 718 651 q 563 515 637 535 l 562 511 q 710 431 650 499 q 769 271 769 362 q 686 71 769 142 q 464 0 602 0 l 135 0 m 172 487 l 172 36 l 464 36 q 661 98 589 36 q 733 270 733 160 q 660 427 733 368 q 464 487 588 487 l 172 487 m 172 524 l 421 524 q 615 579 550 526 q 680 737 680 632 q 608 896 680 843 q 395 950 536 950 l 172 950 l 172 524 "},"І":{"x_min":162.78125,"x_max":199.390625,"ha":362,"o":"m 199 0 l 162 0 l 162 987 l 199 987 l 199 0 "},"ē":{"x_min":65.78125,"x_max":644.3125,"ha":705,"o":"m 373 -14 q 154 86 244 -14 q 65 339 65 186 l 65 382 q 154 644 65 541 q 377 747 242 747 q 571 667 499 747 q 644 447 644 586 l 644 391 l 102 391 l 102 382 l 102 339 q 178 113 102 204 q 373 22 254 22 q 500 46 439 22 q 598 111 560 71 l 618 83 q 518 13 579 40 q 373 -14 457 -14 m 377 710 q 190 631 263 710 q 107 432 117 552 l 109 427 l 607 427 l 607 450 q 545 637 607 563 q 377 710 484 710 m 585 957 l 160 957 l 160 993 l 585 993 l 585 957 "},"Ẹ":{"x_min":135.640625,"x_max":716.203125,"ha":766,"o":"m 647 496 l 172 496 l 172 36 l 716 36 l 716 0 l 135 0 l 135 987 l 716 987 l 716 950 l 172 950 l 172 533 l 647 533 l 647 496 m 447 -193 l 383 -193 l 383 -99 l 447 -99 l 447 -193 "},"β":{"x_min":130.890625,"x_max":731.796875,"ha":823,"o":"m 395 1001 q 587 930 514 1001 q 660 748 660 859 q 622 611 660 671 q 515 522 584 550 q 676 429 621 499 q 731 261 731 359 q 649 58 731 131 q 430 -14 566 -14 q 282 15 356 -14 q 168 100 209 44 l 168 -280 l 132 -280 l 132 192 q 131 205 131 200 q 130 215 130 210 l 132 216 l 132 714 q 208 920 132 838 q 395 1001 285 1001 m 392 536 q 567 592 511 536 q 623 751 623 647 q 565 902 623 838 q 395 965 506 965 q 233 893 299 965 q 168 714 168 822 l 168 165 q 267 61 195 101 q 430 22 340 22 q 626 84 558 22 q 694 258 694 146 q 623 434 694 370 q 419 498 552 498 l 322 498 l 322 536 l 392 536 "},"≠":{"x_min":99.703125,"x_max":665.34375,"ha":702,"o":"m 482 608 l 665 608 l 665 571 l 461 571 l 328 332 l 665 332 l 665 295 l 308 295 l 198 96 l 173 115 l 274 295 l 99 295 l 99 332 l 294 332 l 427 571 l 99 571 l 99 608 l 447 608 l 559 809 l 583 790 l 482 608 "},"‼":{"x_min":99.703125,"x_max":433.125,"ha":539,"o":"m 149 324 l 113 324 l 113 987 l 149 987 l 149 324 m 164 0 l 99 0 l 99 90 l 164 90 l 164 0 m 418 324 l 382 324 l 382 987 l 418 987 l 418 324 m 433 0 l 368 0 l 368 90 l 433 90 l 433 0 "},"Ғ":{"x_min":56.296875,"x_max":715.53125,"ha":761,"o":"m 454 495 l 167 495 l 167 0 l 130 0 l 130 495 l 56 495 l 56 532 l 130 532 l 130 987 l 715 987 l 715 950 l 167 950 l 167 532 l 454 532 l 454 495 "},"¥":{"x_min":39.34375,"x_max":776.5625,"ha":819,"o":"m 731 987 l 776 987 l 444 458 l 732 458 l 732 421 l 425 421 l 425 258 l 732 258 l 732 221 l 425 221 l 425 0 l 389 0 l 389 221 l 84 221 l 84 258 l 389 258 l 389 421 l 84 421 l 84 458 l 369 458 l 39 987 l 83 987 l 389 500 l 406 465 l 409 465 l 425 500 l 731 987 "},"Ĥ":{"x_min":135.640625,"x_max":839.640625,"ha":975,"o":"m 839 0 l 803 0 l 803 471 l 172 471 l 172 0 l 135 0 l 135 987 l 172 987 l 172 507 l 803 507 l 803 987 l 839 987 l 839 0 m 657 1094 l 657 1086 l 610 1086 l 484 1212 l 360 1086 l 316 1086 l 316 1097 l 458 1237 l 512 1237 l 657 1094 "},"U":{"x_min":125.46875,"x_max":800.296875,"ha":926,"o":"m 800 987 l 800 331 q 706 77 800 168 q 463 -14 611 -14 q 219 77 314 -14 q 125 331 125 169 l 125 987 l 162 987 l 162 331 q 247 106 162 191 q 463 22 332 22 q 678 106 593 22 q 763 331 763 191 l 763 987 l 800 987 "},"Ñ":{"x_min":135.640625,"x_max":847.09375,"ha":983,"o":"m 847 0 l 810 0 l 177 919 l 172 918 l 172 0 l 135 0 l 135 987 l 172 987 l 806 69 l 810 71 l 810 987 l 847 987 l 847 0 m 694 1221 q 659 1130 694 1165 q 574 1095 625 1095 q 470 1137 523 1095 q 380 1179 417 1179 q 321 1154 344 1179 q 298 1088 298 1129 l 260 1095 q 294 1183 260 1149 q 380 1216 328 1216 q 484 1174 429 1216 q 574 1132 538 1132 q 632 1159 608 1132 q 656 1228 656 1186 l 694 1221 "},"F":{"x_min":135.640625,"x_max":727.0625,"ha":764,"o":"m 657 485 l 172 485 l 172 0 l 135 0 l 135 987 l 727 987 l 727 950 l 172 950 l 172 523 l 657 523 l 657 485 "},"ả":{"x_min":62.390625,"x_max":632.78125,"ha":733,"o":"m 577 135 q 463 27 539 69 q 281 -14 388 -14 q 120 41 179 -14 q 62 192 62 97 q 149 347 62 284 q 367 409 236 409 l 577 409 l 577 516 q 518 659 577 608 q 353 710 459 710 q 192 662 253 710 q 132 538 132 614 l 101 539 l 100 543 q 166 688 96 628 q 353 747 237 747 q 542 687 471 747 q 613 515 613 628 l 613 147 q 618 72 613 109 q 632 0 622 35 l 592 0 q 580 72 583 48 q 577 124 577 96 l 577 135 m 281 21 q 466 69 390 21 q 577 207 541 118 l 577 372 l 369 372 q 177 319 255 372 q 99 189 99 267 q 148 68 99 115 q 281 21 198 21 m 345 859 l 345 926 q 443 949 413 931 q 473 1003 473 966 q 426 1060 473 1042 q 313 1078 378 1078 l 318 1111 q 458 1082 404 1111 q 511 1003 511 1053 q 475 925 511 952 q 377 895 439 899 l 377 859 l 345 859 "},"ϑ":{"x_min":101.734375,"x_max":755.546875,"ha":850,"o":"m 378 702 l 378 744 q 431 931 378 861 q 566 1001 483 1001 q 705 933 654 1001 q 755 744 755 864 l 755 346 q 665 79 755 172 q 421 -14 574 -14 q 189 83 276 -14 q 101 346 101 181 l 101 849 l 138 850 l 138 346 q 214 109 138 196 q 421 22 290 22 q 641 104 564 22 q 718 346 718 186 l 718 396 q 472 487 565 402 q 378 702 378 572 l 378 702 m 718 744 q 679 908 718 852 q 566 965 640 965 q 456 909 497 965 q 415 744 415 853 l 415 701 q 495 514 415 589 q 715 437 575 440 l 718 438 l 718 744 "},"Ӹ":{"x_min":130.890625,"x_max":981.390625,"ha":1118,"o":"m 167 548 l 417 548 q 654 472 571 548 q 737 274 737 396 q 654 75 737 151 q 417 0 571 0 l 130 0 l 130 987 l 167 987 l 167 548 m 167 511 l 167 36 l 417 36 q 629 104 558 36 q 699 275 699 172 q 629 442 699 373 q 417 511 558 511 l 167 511 m 981 0 l 944 0 l 944 987 l 981 987 l 981 0 m 804 1134 l 711 1134 l 711 1214 l 804 1214 l 804 1134 m 486 1134 l 393 1134 l 393 1214 l 486 1214 l 486 1134 "},"Ќ":{"x_min":135.640625,"x_max":808.4375,"ha":832,"o":"m 296 489 l 172 489 l 172 0 l 135 0 l 135 987 l 172 987 l 172 524 l 306 524 l 712 987 l 755 987 l 756 984 l 337 501 l 808 4 l 806 0 l 763 0 l 296 489 m 525 1203 l 578 1203 l 580 1200 l 423 1023 l 378 1023 l 376 1026 l 525 1203 "},"ờ":{"x_min":59,"x_max":836.328125,"ha":761,"o":"m 59 381 q 148 644 59 542 q 379 747 237 747 q 508 720 449 747 q 611 646 567 694 q 753 700 704 647 q 802 851 802 753 l 834 851 l 836 848 q 786 680 838 742 q 638 611 733 619 q 684 505 668 564 q 701 381 701 446 l 701 352 q 612 88 701 190 q 381 -14 522 -14 q 148 88 238 -14 q 59 352 59 190 l 59 381 m 95 352 q 172 118 95 214 q 381 22 250 22 q 587 118 510 22 q 664 352 664 215 l 664 381 q 586 613 664 516 q 379 710 508 710 q 172 613 250 710 q 95 381 95 516 l 95 352 m 431 872 l 430 869 l 379 869 l 220 1046 l 222 1049 l 282 1049 l 431 872 "},"҄":{"x_min":38.65625,"x_max":512.0625,"ha":524,"o":"m 48 923 q 206 989 120 923 q 352 1056 292 1056 q 468 1011 424 1056 q 512 901 512 966 l 512 883 l 474 883 l 474 895 q 442 983 474 947 q 349 1020 410 1020 q 217 956 299 1020 q 50 893 134 893 l 38 893 l 38 923 l 48 923 "},"å":{"x_min":62.390625,"x_max":632.78125,"ha":733,"o":"m 577 135 q 463 27 539 69 q 281 -14 388 -14 q 120 41 179 -14 q 62 192 62 97 q 149 347 62 284 q 367 409 236 409 l 577 409 l 577 516 q 518 659 577 608 q 353 710 459 710 q 192 662 253 710 q 132 538 132 614 l 101 539 l 100 543 q 166 688 96 628 q 353 747 237 747 q 542 687 471 747 q 613 515 613 628 l 613 147 q 618 72 613 109 q 632 0 622 35 l 592 0 q 580 72 583 48 q 577 124 577 96 l 577 135 m 281 21 q 466 69 390 21 q 577 207 541 118 l 577 372 l 369 372 q 177 319 255 372 q 99 189 99 267 q 148 68 99 115 q 281 21 198 21 m 268 953 q 295 1019 268 991 q 360 1047 322 1047 q 424 1019 397 1047 q 450 953 450 992 q 424 888 450 914 q 360 861 397 861 q 295 888 322 861 q 268 953 268 914 m 307 953 q 322 915 307 930 q 360 899 338 899 q 397 914 382 899 q 412 953 412 929 q 397 993 412 977 q 360 1009 382 1009 q 322 993 338 1009 q 307 953 307 977 "},"Ϋ":{"x_min":24.421875,"x_max":803.6875,"ha":829,"o":"m 395 438 l 413 404 l 431 438 l 758 987 l 803 987 l 432 375 l 432 0 l 395 0 l 395 375 l 24 987 l 69 987 l 395 438 m 623 1127 l 530 1127 l 530 1207 l 623 1207 l 623 1127 m 305 1127 l 212 1127 l 212 1207 l 305 1207 l 305 1127 "},"0":{"x_min":79.359375,"x_max":680.9375,"ha":760,"o":"m 680 348 q 602 82 680 178 q 381 -14 523 -14 q 159 82 239 -14 q 79 348 79 179 l 79 638 q 158 905 79 808 q 379 1001 237 1001 q 601 905 521 1001 q 680 638 680 808 l 680 348 m 644 638 q 575 876 644 788 q 379 965 507 965 q 183 876 251 965 q 115 638 115 788 l 115 349 q 184 112 115 202 q 381 22 253 22 q 576 112 507 22 q 644 349 644 202 l 644 638 "},"ō":{"x_min":59,"x_max":701.28125,"ha":760,"o":"m 59 381 q 148 644 59 542 q 379 747 237 747 q 612 644 522 747 q 701 381 701 542 l 701 352 q 612 88 701 190 q 381 -14 522 -14 q 148 88 238 -14 q 59 352 59 190 l 59 381 m 95 352 q 172 118 95 214 q 381 22 250 22 q 587 118 510 22 q 664 352 664 215 l 664 381 q 586 613 664 516 q 379 710 508 710 q 172 613 250 710 q 95 381 95 516 l 95 352 m 602 956 l 177 956 l 177 992 l 602 992 l 602 956 "},"”":{"x_min":126.125,"x_max":330.953125,"ha":446,"o":"m 193 874 l 160 691 l 126 691 l 157 872 l 157 987 l 193 987 l 193 874 m 330 874 l 297 691 l 263 691 l 294 872 l 294 987 l 330 987 l 330 874 "},"Ӕ":{"x_min":33.90625,"x_max":1199.09375,"ha":1232,"o":"m 1199 0 l 689 0 l 676 288 l 250 288 l 78 0 l 33 0 l 631 987 l 1157 987 l 1157 950 l 685 950 l 703 533 l 1102 533 l 1102 496 l 704 496 l 723 36 l 1199 36 l 1199 0 m 272 324 l 675 324 l 649 950 l 645 951 l 607 880 l 272 324 "},"҆":{"x_min":42.046875,"x_max":151.25,"ha":175,"o":"m 66 914 l 42 933 l 85 1019 l 85 1113 l 151 1113 l 151 1017 l 66 914 "},"ö":{"x_min":59,"x_max":701.28125,"ha":760,"o":"m 59 381 q 148 644 59 542 q 379 747 237 747 q 612 644 522 747 q 701 381 701 542 l 701 352 q 612 88 701 190 q 381 -14 522 -14 q 148 88 238 -14 q 59 352 59 190 l 59 381 m 95 352 q 172 118 95 214 q 381 22 250 22 q 587 118 510 22 q 664 352 664 215 l 664 381 q 586 613 664 516 q 379 710 508 710 q 172 613 250 710 q 95 381 95 516 l 95 352 m 606 916 l 513 916 l 513 996 l 606 996 l 606 916 m 288 916 l 195 916 l 195 996 l 288 996 l 288 916 "},"ć":{"x_min":65.78125,"x_max":633.546875,"ha":705,"o":"m 365 22 q 529 73 458 22 q 600 225 600 124 l 632 225 l 633 221 q 554 49 636 113 q 365 -14 472 -14 q 145 86 225 -14 q 65 352 65 187 l 65 381 q 145 646 65 545 q 364 747 224 747 q 557 680 478 747 q 633 492 636 613 l 632 488 l 600 488 q 531 653 600 596 q 364 710 462 710 q 168 618 235 710 q 102 381 102 526 l 102 352 q 168 114 102 206 q 365 22 235 22 m 487 1044 l 540 1044 l 542 1041 l 385 864 l 340 864 l 338 867 l 487 1044 "},"þ":{"x_min":115.296875,"x_max":677.546875,"ha":760,"o":"m 677 353 q 604 84 677 183 q 402 -14 531 -14 q 253 19 316 -14 q 153 110 190 52 l 153 0 l 153 0 l 153 -282 l 116 -282 l 116 200 q 115 204 115 202 q 115 206 115 205 l 115 505 q 115 506 115 505 q 116 510 115 506 l 116 733 l 117 733 l 117 1058 l 153 1058 l 153 606 q 252 709 190 672 q 400 747 315 747 q 603 644 530 747 q 677 367 677 541 l 677 353 m 640 367 q 578 615 640 520 q 401 710 517 710 q 239 659 297 710 q 153 531 180 607 l 153 177 q 245 64 182 105 q 402 22 307 22 q 579 111 518 22 q 640 353 640 201 l 640 367 "},"]":{"x_min":-5.421875,"x_max":186.515625,"ha":298,"o":"m -5 1128 l 186 1128 l 186 -211 l -5 -211 l -5 -174 l 149 -174 l 149 1091 l -5 1091 l -5 1128 "},"А":{"x_min":23.0625,"x_max":806.40625,"ha":829,"o":"m 655 295 l 173 295 l 63 0 l 23 0 l 392 987 l 436 987 l 806 0 l 766 0 l 655 295 m 187 331 l 642 331 l 435 884 l 416 942 l 412 942 l 394 884 l 187 331 "},"′":{"x_min":105.796875,"x_max":173.625,"ha":275,"o":"m 173 872 l 139 690 l 105 690 l 136 871 l 136 987 l 173 987 l 173 872 "},"Ы":{"x_min":130.890625,"x_max":981.390625,"ha":1118,"o":"m 167 548 l 417 548 q 654 472 571 548 q 737 274 737 396 q 654 75 737 151 q 417 0 571 0 l 130 0 l 130 987 l 167 987 l 167 548 m 167 511 l 167 36 l 417 36 q 629 104 558 36 q 699 275 699 172 q 629 442 699 373 q 417 511 558 511 l 167 511 m 981 0 l 944 0 l 944 987 l 981 987 l 981 0 "},"ẁ":{"x_min":56.296875,"x_max":987.5,"ha":1051,"o":"m 248 212 l 286 61 l 290 61 l 338 212 l 503 733 l 540 733 l 704 212 l 752 61 l 756 61 l 795 212 l 944 733 l 987 733 l 773 0 l 737 0 l 553 551 l 522 665 l 518 665 l 486 551 l 305 0 l 269 0 l 56 733 l 98 733 l 248 212 m 560 858 l 559 855 l 508 855 l 349 1032 l 351 1035 l 411 1035 l 560 858 "},"ệ":{"x_min":65.78125,"x_max":644.3125,"ha":705,"o":"m 373 -14 q 154 86 244 -14 q 65 339 65 186 l 65 382 q 154 644 65 541 q 377 747 242 747 q 571 667 499 747 q 644 447 644 586 l 644 391 l 102 391 l 102 382 l 102 339 q 178 113 102 204 q 373 22 254 22 q 500 46 439 22 q 598 111 560 71 l 618 83 q 518 13 579 40 q 373 -14 457 -14 m 377 710 q 190 631 263 710 q 107 432 117 552 l 109 427 l 607 427 l 607 450 q 545 637 607 563 q 377 710 484 710 m 549 876 l 549 868 l 502 868 l 376 994 l 252 868 l 208 868 l 208 879 l 350 1019 l 404 1019 l 549 876 m 403 -197 l 339 -197 l 339 -103 l 403 -103 l 403 -197 "},"ĭ":{"x_min":-43.453125,"x_max":326.546875,"ha":275,"o":"m 159 0 l 122 0 l 122 733 l 159 733 l 159 0 m 325 1014 l 326 1010 q 278 892 329 937 q 141 846 228 846 q 3 892 54 846 q -43 1010 -46 937 l -41 1014 l -10 1014 q 25 920 -10 956 q 141 884 62 884 q 255 920 217 884 q 293 1014 293 957 l 325 1014 "},"8":{"x_min":66.46875,"x_max":695.859375,"ha":760,"o":"m 667 743 q 617 598 667 660 q 487 512 567 537 q 637 419 579 486 q 695 263 695 353 q 607 59 695 133 q 388 -14 519 -14 q 157 59 248 -14 q 66 263 66 132 q 125 420 66 353 q 282 512 185 486 q 145 598 197 537 q 94 743 94 660 q 177 934 94 866 q 387 1001 259 1001 q 587 933 507 1001 q 667 743 667 866 m 658 260 q 579 428 658 364 q 387 493 500 493 q 184 428 266 493 q 103 260 103 364 q 184 86 103 151 q 388 22 265 22 q 580 87 502 22 q 658 260 658 151 m 630 746 q 559 904 630 843 q 387 965 488 965 q 203 906 276 965 q 130 746 130 847 q 204 589 130 648 q 388 530 278 530 q 560 589 490 530 q 630 746 630 649 "},"ѯ":{"x_min":75.96875,"x_max":587.34375,"ha":676,"o":"m 276 396 q 471 437 408 396 q 534 554 534 478 q 474 657 534 618 q 292 696 413 696 l 101 696 l 101 733 l 292 733 q 497 686 422 733 q 572 551 572 639 q 532 447 572 493 q 417 379 491 401 q 544 316 501 360 q 587 206 587 272 q 496 55 587 111 q 271 0 404 0 l 243 0 q 142 -23 172 0 q 111 -95 111 -47 q 151 -172 111 -137 q 234 -221 191 -208 l 223 -256 q 124 -196 173 -242 q 75 -96 75 -150 q 116 0 75 -35 q 243 36 157 36 l 271 36 q 473 81 397 36 q 550 203 550 126 q 481 321 550 284 q 276 358 413 358 l 193 358 l 193 396 l 276 396 m 294 923 l 419 1050 l 464 1050 l 464 1039 l 320 899 l 267 899 l 122 1041 l 122 1050 l 170 1050 l 294 923 "},"Ӝ":{"x_min":22.375,"x_max":1072.953125,"ha":1095,"o":"m 634 488 l 566 488 l 566 0 l 529 0 l 529 488 l 459 488 l 68 0 l 24 0 l 22 3 l 421 499 l 43 987 l 91 987 l 450 524 l 529 524 l 529 987 l 566 987 l 566 524 l 644 524 l 1003 987 l 1051 987 l 673 499 l 1072 3 l 1070 0 l 1026 0 l 634 488 m 783 1134 l 690 1134 l 690 1214 l 783 1214 l 783 1134 m 465 1134 l 372 1134 l 372 1214 l 465 1214 l 465 1134 "},"Ữ":{"x_min":125.46875,"x_max":1073.6875,"ha":926,"o":"m 1071 1099 l 1073 1095 q 1005 889 1075 961 q 807 820 934 817 l 803 822 l 803 853 q 979 916 918 853 q 1040 1099 1040 979 l 1071 1099 m 800 987 l 800 331 q 706 77 800 168 q 463 -14 611 -14 q 219 77 314 -14 q 125 331 125 169 l 125 987 l 162 987 l 162 331 q 247 106 162 191 q 463 22 332 22 q 678 106 593 22 q 763 331 763 191 l 763 987 l 800 987 m 652 1221 q 617 1130 652 1165 q 532 1095 583 1095 q 428 1137 481 1095 q 338 1179 375 1179 q 279 1154 302 1179 q 256 1088 256 1129 l 218 1095 q 252 1183 218 1149 q 338 1216 286 1216 q 442 1174 387 1216 q 532 1132 496 1132 q 590 1159 566 1132 q 614 1228 614 1186 l 652 1221 "},"ѡ":{"x_min":29.15625,"x_max":891.859375,"ha":927,"o":"m 295 155 l 329 56 l 333 56 l 368 155 l 484 429 l 485 429 l 381 733 l 421 733 l 522 429 l 523 429 l 522 427 l 613 155 l 651 45 l 655 45 l 684 100 q 795 393 752 235 q 858 733 838 551 l 891 733 q 818 350 872 536 q 667 0 763 164 l 668 0 l 632 0 l 505 373 l 501 373 l 348 0 l 349 0 l 314 0 l 29 733 l 68 733 l 295 155 "},"R":{"x_min":132.25,"x_max":826.078125,"ha":925,"o":"m 168 463 l 168 0 l 132 0 l 132 986 l 453 986 q 693 919 609 986 q 777 722 777 851 q 724 570 777 638 q 579 482 671 502 q 731 404 685 463 q 777 251 777 344 l 777 158 q 789 75 777 112 q 826 16 800 39 l 826 0 l 790 0 q 753 68 765 27 q 741 160 741 109 l 741 250 q 672 406 741 350 q 476 463 603 463 l 168 463 m 168 499 l 446 499 q 669 563 598 499 q 741 722 741 627 q 669 891 741 832 q 453 950 596 950 l 168 950 l 168 499 "},"Ż":{"x_min":63.75,"x_max":766.390625,"ha":830,"o":"m 113 36 l 766 36 l 766 0 l 63 0 l 63 29 l 693 951 l 90 951 l 90 987 l 744 987 l 744 961 l 113 36 m 444 1130 l 380 1130 l 380 1224 l 444 1224 l 444 1130 "},"Ң":{"x_min":135.640625,"x_max":876.0625,"ha":975,"o":"m 839 0 l 803 0 l 803 471 l 172 471 l 172 0 l 135 0 l 135 987 l 172 987 l 172 507 l 803 507 l 803 987 l 839 987 l 839 0 m 876 -238 l 839 -238 l 839 64 l 876 64 l 876 -238 "},"ħ":{"x_min":44.078125,"x_max":647.03125,"ha":760,"o":"m 442 868 l 153 868 l 153 581 q 253 703 187 659 q 413 747 319 747 q 587 674 528 747 q 647 446 647 602 l 647 0 l 609 0 l 609 447 q 556 651 609 592 q 414 710 503 710 q 234 642 297 710 q 153 466 170 573 l 153 0 l 116 0 l 116 375 l 115 375 q 115 399 115 389 q 116 418 115 408 l 116 868 l 44 868 l 44 905 l 116 905 l 116 1058 l 153 1058 l 153 905 l 442 905 l 442 868 "},"õ":{"x_min":59,"x_max":701.28125,"ha":760,"o":"m 59 381 q 148 644 59 542 q 379 747 237 747 q 612 644 522 747 q 701 381 701 542 l 701 352 q 612 88 701 190 q 381 -14 522 -14 q 148 88 238 -14 q 59 352 59 190 l 59 381 m 95 352 q 172 118 95 214 q 381 22 250 22 q 587 118 510 22 q 664 352 664 215 l 664 381 q 586 613 664 516 q 379 710 508 710 q 172 613 250 710 q 95 381 95 516 l 95 352 m 596 1003 q 561 912 596 947 q 476 877 527 877 q 372 919 425 877 q 282 961 319 961 q 223 936 246 961 q 200 870 200 911 l 162 877 q 196 965 162 931 q 282 998 230 998 q 386 956 331 998 q 476 914 440 914 q 534 941 510 914 q 558 1010 558 968 l 596 1003 "},"ẫ":{"x_min":62.390625,"x_max":632.78125,"ha":733,"o":"m 577 135 q 463 27 539 69 q 281 -14 388 -14 q 120 41 179 -14 q 62 192 62 97 q 149 347 62 284 q 367 409 236 409 l 577 409 l 577 516 q 518 659 577 608 q 353 710 459 710 q 192 662 253 710 q 132 538 132 614 l 101 539 l 100 543 q 166 688 96 628 q 353 747 237 747 q 542 687 471 747 q 613 515 613 628 l 613 147 q 618 72 613 109 q 632 0 622 35 l 592 0 q 580 72 583 48 q 577 124 577 96 l 577 135 m 281 21 q 466 69 390 21 q 577 207 541 118 l 577 372 l 369 372 q 177 319 255 372 q 99 189 99 267 q 148 68 99 115 q 281 21 198 21 m 550 847 l 548 843 l 498 843 l 358 969 l 221 843 l 170 843 l 169 847 l 339 994 l 380 994 l 550 847 m 535 1122 q 509 1053 535 1079 q 447 1027 484 1027 q 369 1063 409 1027 q 302 1098 330 1098 q 264 1077 278 1098 q 249 1022 249 1055 l 215 1027 q 240 1101 215 1069 q 302 1134 266 1134 q 379 1098 339 1134 q 447 1062 420 1062 q 486 1079 472 1062 q 500 1127 500 1096 l 535 1122 "},"ҭ":{"x_min":49.515625,"x_max":647.703125,"ha":697,"o":"m 647 696 l 359 696 l 359 0 l 322 0 l 322 696 l 49 696 l 49 733 l 647 733 l 647 696 m 397 -238 l 360 -238 l 360 64 l 397 64 l 397 -238 "},"ғ":{"x_min":2.71875,"x_max":557.5,"ha":588,"o":"m 400 356 l 153 356 l 153 0 l 116 0 l 116 356 l 2 356 l 2 393 l 116 393 l 116 733 l 557 733 l 557 696 l 153 696 l 153 393 l 400 393 l 400 356 "},"Ӎ":{"x_min":135.640625,"x_max":1091.375,"ha":1191,"o":"m 597 58 l 601 58 l 1013 987 l 1055 987 l 1055 0 l 1018 0 l 1018 897 l 1014 897 l 614 0 l 585 0 l 176 917 l 172 916 l 172 0 l 135 0 l 135 987 l 186 987 l 597 58 m 1091 -21 l 1043 -190 l 1009 -190 l 1054 -24 l 1054 91 l 1091 91 l 1091 -21 "},"˙":{"x_min":105.125,"x_max":169.5625,"ha":291,"o":"m 169 893 l 105 893 l 105 987 l 169 987 l 169 893 "},"ê":{"x_min":65.78125,"x_max":644.3125,"ha":705,"o":"m 373 -14 q 154 86 244 -14 q 65 339 65 186 l 65 382 q 154 644 65 541 q 377 747 242 747 q 571 667 499 747 q 644 447 644 586 l 644 391 l 102 391 l 102 382 l 102 339 q 178 113 102 204 q 373 22 254 22 q 500 46 439 22 q 598 111 560 71 l 618 83 q 518 13 579 40 q 373 -14 457 -14 m 377 710 q 190 631 263 710 q 107 432 117 552 l 109 427 l 607 427 l 607 450 q 545 637 607 563 q 377 710 484 710 m 549 876 l 549 868 l 502 868 l 376 994 l 252 868 l 208 868 l 208 879 l 350 1019 l 404 1019 l 549 876 "},"″":{"x_min":105.796875,"x_max":296.390625,"ha":414,"o":"m 173 874 l 139 690 l 105 690 l 136 872 l 136 987 l 173 987 l 173 874 m 296 874 l 262 690 l 228 690 l 259 872 l 259 987 l 296 987 l 296 874 "},"„":{"x_min":105.125,"x_max":295.703125,"ha":417,"o":"m 172 69 l 139 -114 l 105 -114 l 135 67 l 135 182 l 172 182 l 172 69 m 295 69 l 261 -114 l 227 -114 l 259 67 l 259 182 l 295 182 l 295 69 "},"ӷ":{"x_min":116.65625,"x_max":557.5,"ha":588,"o":"m 557 696 l 153 696 l 153 0 l 116 0 l 116 733 l 557 733 l 557 696 m 189 -238 l 152 -238 l 152 64 l 189 64 l 189 -238 "},"ч":{"x_min":116.65625,"x_max":644.3125,"ha":761,"o":"m 644 0 l 607 0 l 607 354 q 501 315 562 331 q 394 299 440 299 q 180 357 244 299 q 116 575 116 414 l 116 733 l 153 733 l 153 575 q 207 386 153 436 q 394 336 261 336 q 509 353 447 338 q 607 388 570 368 l 607 733 l 644 733 l 644 0 "},"δ":{"x_min":59,"x_max":701.28125,"ha":760,"o":"m 642 987 l 642 951 l 191 951 l 189 947 l 562 693 q 662 564 624 651 q 701 381 701 477 l 701 352 q 612 88 701 190 q 381 -14 522 -14 q 148 88 238 -14 q 59 352 59 190 l 59 381 q 148 644 59 542 q 379 747 237 747 q 399 746 390 747 q 413 745 408 746 l 415 748 l 125 950 l 125 987 l 642 987 m 379 710 q 172 613 250 710 q 95 381 95 516 l 95 352 q 172 118 95 214 q 381 22 250 22 q 587 118 510 22 q 664 352 664 215 l 664 381 q 586 613 664 516 q 379 710 508 710 "},"Â":{"x_min":23.0625,"x_max":806.40625,"ha":829,"o":"m 655 295 l 173 295 l 63 0 l 23 0 l 392 987 l 436 987 l 806 0 l 766 0 l 655 295 m 187 331 l 642 331 l 435 884 l 416 942 l 412 942 l 394 884 l 187 331 m 586 1094 l 586 1086 l 539 1086 l 413 1212 l 289 1086 l 245 1086 l 245 1097 l 387 1237 l 441 1237 l 586 1094 "},"Į":{"x_min":56.28125,"x_max":235.328125,"ha":362,"o":"m 199 0 l 162 0 l 162 987 l 199 987 l 199 0 m 193 0 q 117 -79 141 -46 q 92 -151 92 -111 q 103 -186 92 -166 q 149 -205 114 -205 q 190 -198 173 -205 q 224 -179 207 -191 l 235 -212 q 198 -233 219 -224 q 149 -242 177 -242 q 82 -218 108 -242 q 56 -151 56 -193 q 84 -67 56 -109 q 158 13 113 -25 l 193 0 "},"ҫ":{"x_min":65.78125,"x_max":633.546875,"ha":705,"o":"m 365 22 q 529 73 458 22 q 600 225 600 124 l 632 225 l 633 221 q 554 49 636 113 q 365 -14 472 -14 q 145 86 225 -14 q 65 352 65 187 l 65 381 q 145 646 65 545 q 364 747 224 747 q 557 680 478 747 q 633 492 636 613 l 632 488 l 600 488 q 531 653 600 596 q 364 710 462 710 q 168 618 235 710 q 102 381 102 526 l 102 352 q 168 114 102 206 q 365 22 235 22 m 386 7 q 449 -73 424 -30 q 474 -157 474 -115 q 447 -224 474 -199 q 380 -248 421 -248 q 331 -239 352 -248 q 295 -218 310 -230 l 306 -185 q 340 -204 323 -197 q 380 -211 357 -211 q 426 -192 415 -211 q 437 -157 437 -172 q 416 -84 437 -117 q 350 -6 394 -52 l 386 7 "},"ω":{"x_min":103.09375,"x_max":1098.71875,"ha":1202,"o":"m 242 733 q 166 544 193 642 q 139 339 139 446 q 196 114 139 206 q 365 22 253 22 q 520 92 462 22 q 581 312 578 163 l 581 330 l 581 522 l 619 522 l 619 330 q 619 320 619 326 q 619 312 619 314 q 680 92 622 163 q 836 22 738 22 q 1005 114 947 22 q 1062 339 1062 206 q 1034 543 1062 446 q 959 733 1007 641 l 1004 733 q 1074 549 1050 632 q 1098 341 1098 466 q 1029 84 1098 182 q 836 -14 960 -14 q 687 31 748 -14 q 600 172 626 77 q 512 31 573 77 q 364 -14 451 -14 q 171 84 240 -14 q 103 341 103 182 q 127 550 103 467 q 197 733 151 634 l 242 733 "},"Ţ":{"x_min":38.65625,"x_max":791.484375,"ha":830,"o":"m 791 950 l 445 950 l 445 0 l 408 0 l 408 950 l 38 950 l 38 987 l 791 987 l 791 950 m 444 -169 l 411 -295 l 377 -295 l 408 -172 l 408 -98 l 444 -98 l 444 -169 "},"´":{"x_min":80.703125,"x_max":284.171875,"ha":347,"o":"m 229 1029 l 282 1029 l 284 1026 l 127 849 l 82 849 l 80 852 l 229 1029 "},"ỏ":{"x_min":59,"x_max":701.28125,"ha":760,"o":"m 59 381 q 148 644 59 542 q 379 747 237 747 q 612 644 522 747 q 701 381 701 542 l 701 352 q 612 88 701 190 q 381 -14 522 -14 q 148 88 238 -14 q 59 352 59 190 l 59 381 m 95 352 q 172 118 95 214 q 381 22 250 22 q 587 118 510 22 q 664 352 664 215 l 664 381 q 586 613 664 516 q 379 710 508 710 q 172 613 250 710 q 95 381 95 516 l 95 352 m 378 858 l 378 925 q 476 948 446 930 q 506 1002 506 965 q 459 1059 506 1041 q 346 1077 411 1077 l 351 1110 q 491 1081 437 1110 q 544 1002 544 1052 q 508 924 544 951 q 410 894 472 898 l 410 858 l 378 858 "},"Ĉ":{"x_min":97.671875,"x_max":796.3125,"ha":900,"o":"m 794 302 l 796 298 q 704 66 798 146 q 455 -14 609 -14 q 195 105 293 -14 q 97 419 97 225 l 97 567 q 195 881 97 761 q 455 1001 293 1001 q 704 921 609 1001 q 796 690 798 840 l 794 686 l 763 686 q 680 892 763 819 q 455 965 597 965 q 222 855 310 965 q 134 569 134 746 l 134 419 q 222 131 134 240 q 455 22 310 22 q 680 92 597 22 q 763 302 763 162 l 794 302 m 631 1108 l 631 1100 l 584 1100 l 458 1226 l 334 1100 l 290 1100 l 290 1111 l 432 1251 l 486 1251 l 631 1108 "},"И":{"x_min":135.640625,"x_max":847.09375,"ha":983,"o":"m 810 987 l 847 987 l 847 0 l 810 0 l 810 918 l 806 919 l 172 0 l 135 0 l 135 987 l 172 987 l 172 71 l 176 69 l 810 987 "},"Љ":{"x_min":36.625,"x_max":1406.640625,"ha":1498,"o":"m 836 987 l 836 548 l 1086 548 q 1323 472 1240 548 q 1406 274 1406 396 q 1323 75 1406 151 q 1086 0 1239 0 l 799 0 l 799 950 l 386 950 l 360 557 q 281 118 339 237 q 58 0 223 0 l 36 0 l 36 36 l 60 36 q 249 140 194 36 q 324 557 303 244 l 352 987 l 836 987 m 836 511 l 836 36 l 1086 36 q 1298 104 1227 36 q 1370 275 1370 172 q 1298 442 1370 373 q 1086 511 1226 511 l 836 511 "},"Ờ":{"x_min":111.234375,"x_max":1034.328125,"ha":984,"o":"m 855 419 q 756 102 855 219 q 484 -14 657 -14 q 210 102 309 -14 q 111 419 111 219 l 111 567 q 209 884 111 767 q 482 1001 308 1001 q 663 959 585 1001 q 788 839 741 917 q 946 906 892 843 q 1000 1085 1000 969 l 1032 1085 l 1034 1082 q 976 884 1035 956 q 807 804 916 812 q 843 694 830 754 q 855 567 855 634 l 855 419 m 819 569 q 731 857 819 750 q 482 965 644 965 q 235 857 322 965 q 148 569 148 750 l 148 419 q 235 129 148 236 q 484 22 322 22 q 732 129 645 22 q 819 419 819 236 l 819 569 m 528 1098 l 527 1095 l 476 1095 l 317 1272 l 319 1275 l 379 1275 l 528 1098 "},"р":{"x_min":115.296875,"x_max":677.546875,"ha":760,"o":"m 677 353 q 604 84 677 183 q 402 -14 531 -14 q 253 19 316 -14 q 153 111 189 53 l 153 -282 l 116 -282 l 116 200 q 115 204 115 202 q 115 206 115 205 l 115 505 q 115 506 115 505 q 116 510 115 506 l 116 733 l 145 733 l 152 604 q 252 709 189 670 q 400 747 315 747 q 603 644 530 747 q 677 367 677 541 l 677 353 m 640 367 q 578 615 640 520 q 401 710 517 710 q 238 658 297 710 q 153 529 179 606 l 153 179 q 244 64 181 107 q 402 22 307 22 q 579 111 518 22 q 640 353 640 201 l 640 367 "},"Ω":{"x_min":82.75,"x_max":810.46875,"ha":896,"o":"m 516 52 q 689 208 619 105 q 759 496 759 312 l 759 577 q 672 854 759 743 q 444 965 585 965 q 216 854 302 965 q 130 577 130 743 l 130 496 q 201 208 130 312 q 377 52 271 105 l 377 0 l 82 0 l 82 36 l 330 36 q 160 207 227 95 q 93 496 93 320 l 93 575 q 190 884 93 767 q 444 1001 286 1001 q 698 884 600 1001 q 796 575 796 767 l 796 496 q 729 208 796 320 q 560 36 662 96 l 810 36 l 810 0 l 516 0 l 516 52 "},"т":{"x_min":49.515625,"x_max":647.703125,"ha":697,"o":"m 647 696 l 359 696 l 359 0 l 322 0 l 322 696 l 49 696 l 49 733 l 647 733 l 647 696 "},"П":{"x_min":135.640625,"x_max":839.640625,"ha":975,"o":"m 839 0 l 803 0 l 803 950 l 172 950 l 172 0 l 135 0 l 135 987 l 839 987 l 839 0 "},"Ö":{"x_min":90.203125,"x_max":834.890625,"ha":925,"o":"m 834 419 q 735 102 834 219 q 463 -14 636 -14 q 189 102 288 -14 q 90 419 90 219 l 90 567 q 188 884 90 767 q 461 1001 287 1001 q 735 884 635 1001 q 834 567 834 767 l 834 419 m 798 569 q 710 857 798 750 q 461 965 623 965 q 214 857 301 965 q 127 569 127 750 l 127 419 q 214 129 127 236 q 463 22 301 22 q 711 129 624 22 q 798 419 798 236 l 798 569 m 669 1148 l 576 1148 l 576 1228 l 669 1228 l 669 1148 m 351 1148 l 258 1148 l 258 1228 l 351 1228 l 351 1148 "},"z":{"x_min":59,"x_max":630.75,"ha":663,"o":"m 108 36 l 630 36 l 630 0 l 59 0 l 59 29 l 541 696 l 80 696 l 80 733 l 590 733 l 590 701 l 108 36 "},"™":{"x_min":61.046875,"x_max":722.984375,"ha":846,"o":"m 685 908 l 681 909 l 567 623 l 532 623 l 415 918 l 411 918 l 411 623 l 374 623 l 374 987 l 425 987 l 548 680 l 552 680 l 676 987 l 722 987 l 722 623 l 685 623 l 685 908 m 321 948 l 214 948 l 214 623 l 176 623 l 176 948 l 61 948 l 61 987 l 321 987 l 321 948 "},"ặ":{"x_min":62.390625,"x_max":632.78125,"ha":733,"o":"m 577 135 q 463 27 539 69 q 281 -14 388 -14 q 120 41 179 -14 q 62 192 62 97 q 149 347 62 284 q 367 409 236 409 l 577 409 l 577 516 q 518 659 577 608 q 353 710 459 710 q 192 662 253 710 q 132 538 132 614 l 101 539 l 100 543 q 166 688 96 628 q 353 747 237 747 q 542 687 471 747 q 613 515 613 628 l 613 147 q 618 72 613 109 q 632 0 622 35 l 592 0 q 580 72 583 48 q 577 124 577 96 l 577 135 m 281 21 q 466 69 390 21 q 577 207 541 118 l 577 372 l 369 372 q 177 319 255 372 q 99 189 99 267 q 148 68 99 115 q 281 21 198 21 m 545 1030 l 546 1026 q 498 908 549 953 q 361 862 448 862 q 223 908 274 862 q 176 1026 173 953 l 178 1030 l 209 1030 q 245 936 209 972 q 361 900 282 900 q 475 936 437 900 q 513 1030 513 973 l 545 1030 m 371 -200 l 307 -200 l 307 -106 l 371 -106 l 371 -200 "},"Θ":{"x_min":90.203125,"x_max":834.890625,"ha":925,"o":"m 658 468 l 257 468 l 257 504 l 658 504 l 658 468 m 834 419 q 735 102 834 219 q 463 -14 636 -14 q 189 102 288 -14 q 90 419 90 219 l 90 567 q 188 884 90 767 q 461 1001 287 1001 q 735 884 635 1001 q 834 567 834 767 l 834 419 m 798 569 q 710 857 798 750 q 461 965 623 965 q 214 857 301 965 q 127 569 127 750 l 127 419 q 214 129 127 236 q 463 22 301 22 q 711 129 624 22 q 798 419 798 236 l 798 569 "},"Ř":{"x_min":132.25,"x_max":826.078125,"ha":925,"o":"m 168 463 l 168 0 l 132 0 l 132 986 l 453 986 q 693 919 609 986 q 777 722 777 851 q 724 570 777 638 q 579 482 671 502 q 731 404 685 463 q 777 251 777 344 l 777 158 q 789 75 777 112 q 826 16 800 39 l 826 0 l 790 0 q 753 68 765 27 q 741 160 741 109 l 741 250 q 672 406 741 350 q 476 463 603 463 l 168 463 m 168 499 l 446 499 q 669 563 598 499 q 741 722 741 627 q 669 891 741 832 q 453 950 596 950 l 168 950 l 168 499 m 410 1112 l 535 1239 l 581 1239 l 581 1228 l 437 1088 l 383 1088 l 238 1229 l 238 1239 l 286 1239 l 410 1112 "},"Ň":{"x_min":135.640625,"x_max":847.09375,"ha":983,"o":"m 847 0 l 810 0 l 177 919 l 172 918 l 172 0 l 135 0 l 135 987 l 172 987 l 806 69 l 810 71 l 810 987 l 847 987 l 847 0 m 491 1112 l 616 1239 l 662 1239 l 662 1228 l 518 1088 l 464 1088 l 319 1229 l 319 1239 l 367 1239 l 491 1112 "},"ừ":{"x_min":113.9375,"x_max":862.765625,"ha":760,"o":"m 861 861 l 862 857 q 807 677 864 743 q 644 605 749 612 l 644 301 l 645 301 q 644 284 645 293 q 644 265 644 276 l 644 0 l 613 0 l 608 128 q 510 23 573 61 q 355 -14 446 -14 q 178 66 242 -14 q 113 315 113 146 l 113 733 l 150 733 l 150 314 q 205 93 150 164 q 354 22 260 22 q 527 76 465 22 q 607 221 588 131 l 607 733 l 644 733 l 644 648 l 648 647 q 782 706 735 650 q 828 861 828 761 l 861 861 m 429 858 l 428 855 l 377 855 l 218 1032 l 220 1035 l 280 1035 l 429 858 "},"Ợ":{"x_min":111.234375,"x_max":1034.328125,"ha":984,"o":"m 855 419 q 756 102 855 219 q 484 -14 657 -14 q 210 102 309 -14 q 111 419 111 219 l 111 567 q 209 884 111 767 q 482 1001 308 1001 q 663 959 585 1001 q 788 839 741 917 q 946 906 892 843 q 1000 1085 1000 969 l 1032 1085 l 1034 1082 q 976 884 1035 956 q 807 804 916 812 q 843 694 830 754 q 855 567 855 634 l 855 419 m 819 569 q 731 857 819 750 q 482 965 644 965 q 235 857 322 965 q 148 569 148 750 l 148 419 q 235 129 148 236 q 484 22 322 22 q 732 129 645 22 q 819 419 819 236 l 819 569 m 496 -200 l 432 -200 l 432 -106 l 496 -106 l 496 -200 "},"É":{"x_min":135.640625,"x_max":716.203125,"ha":766,"o":"m 647 496 l 172 496 l 172 36 l 716 36 l 716 0 l 135 0 l 135 987 l 716 987 l 716 950 l 172 950 l 172 533 l 647 533 l 647 496 m 536 1262 l 589 1262 l 591 1259 l 434 1082 l 389 1082 l 387 1085 l 536 1262 "},"ұ":{"x_min":29.15625,"x_max":634.140625,"ha":663,"o":"m 527 4 l 349 4 l 349 3 l 349 -281 l 313 -281 l 313 1 l 311 4 l 129 4 l 129 40 l 297 40 l 29 733 l 68 733 l 295 155 l 329 56 l 333 56 l 368 155 l 594 733 l 634 733 l 364 40 l 527 40 l 527 4 "},"ѿ":{"x_min":29.15625,"x_max":891.859375,"ha":927,"o":"m 257 1010 l 257 920 l 220 920 l 220 1048 l 694 1048 l 694 920 l 657 920 l 657 1010 l 470 1010 l 470 920 l 433 920 l 433 1010 l 257 1010 m 68 733 l 29 733 l 314 0 l 349 0 l 348 0 l 501 373 l 505 373 l 632 0 l 668 0 l 667 0 q 818 350 763 164 q 891 733 872 536 l 858 733 q 795 393 838 551 q 684 100 752 235 l 655 45 l 651 45 l 613 155 l 522 427 l 523 429 l 522 429 l 421 733 l 381 733 l 485 429 l 484 429 l 368 155 l 333 56 l 329 56 l 295 155 l 68 733 "},"и":{"x_min":116.65625,"x_max":644.3125,"ha":760,"o":"m 607 733 l 644 733 l 644 0 l 607 0 l 607 661 l 602 663 l 153 0 l 116 0 l 116 733 l 153 733 l 153 71 l 157 70 l 607 733 "},"³":{"x_min":87.296875,"x_max":463.21875,"ha":564,"o":"m 275 748 q 382 775 347 748 q 416 854 416 803 q 380 934 416 904 q 274 965 345 965 q 170 934 212 965 q 129 853 129 903 l 98 853 l 96 857 q 145 961 92 921 q 274 1002 197 1002 q 405 963 357 1002 q 453 852 453 924 q 429 778 453 811 q 360 729 404 746 q 437 682 411 715 q 463 598 463 649 q 410 485 463 526 q 274 444 358 444 q 140 483 196 444 q 87 598 84 523 l 88 602 l 121 602 q 163 515 121 549 q 274 481 206 481 q 385 512 346 481 q 425 597 425 543 q 387 682 425 655 q 275 710 349 710 l 198 710 l 198 748 l 275 748 "},"Ӿ":{"x_min":35.953125,"x_max":792.84375,"ha":829,"o":"m 609 490 l 446 490 l 792 0 l 747 0 l 413 475 l 80 0 l 35 0 l 381 490 l 211 490 l 211 526 l 375 526 l 49 987 l 95 987 l 413 532 l 733 987 l 778 987 l 453 526 l 609 526 l 609 490 "},"Ӫ":{"x_min":90.203125,"x_max":834.890625,"ha":925,"o":"m 834 419 q 735 102 834 219 q 463 -14 636 -14 q 189 102 288 -14 q 90 419 90 219 l 90 567 q 188 884 90 767 q 461 1001 287 1001 q 735 884 635 1001 q 834 567 834 767 l 834 419 m 651 420 q 747 452 708 420 q 798 530 787 483 l 798 569 q 710 857 798 750 q 461 965 623 965 q 214 857 301 965 q 127 569 127 750 l 127 472 q 191 527 151 507 q 282 547 232 547 q 480 483 377 547 q 651 420 583 420 m 798 453 q 736 405 773 422 q 651 387 698 387 q 454 451 554 387 q 282 514 353 514 q 174 479 214 514 q 128 389 134 443 q 221 120 134 219 q 463 22 308 22 q 711 129 624 22 q 798 419 798 236 l 798 453 m 692 1131 l 599 1131 l 599 1211 l 692 1211 l 692 1131 m 374 1131 l 281 1131 l 281 1211 l 374 1211 l 374 1131 "},"Ѧ":{"x_min":23.0625,"x_max":806.40625,"ha":830,"o":"m 636 344 l 428 344 l 428 0 l 392 0 l 392 344 l 191 344 l 63 0 l 23 0 l 392 987 l 436 987 l 806 0 l 766 0 l 636 344 m 205 381 l 623 381 l 435 884 l 416 942 l 412 942 l 394 884 l 205 381 "},"[":{"x_min":122.765625,"x_max":314.703125,"ha":298,"o":"m 314 1091 l 159 1091 l 159 -174 l 314 -174 l 314 -211 l 122 -211 l 122 1128 l 314 1128 l 314 1091 "},"Ҝ":{"x_min":132.9375,"x_max":809.125,"ha":829,"o":"m 757 987 l 438 501 l 809 0 l 760 0 l 401 489 l 332 489 l 332 269 l 295 269 l 295 489 l 169 489 l 169 0 l 132 0 l 132 987 l 169 987 l 169 524 l 295 524 l 295 733 l 332 733 l 332 524 l 412 524 l 709 987 l 757 987 "},"ζ":{"x_min":25.765625,"x_max":601.578125,"ha":663,"o":"m 601 987 l 601 962 l 301 569 q 185 381 217 462 q 153 231 153 301 q 213 93 153 151 q 391 35 274 35 l 461 35 q 566 3 533 35 q 600 -82 600 -28 q 551 -191 600 -141 q 452 -257 503 -241 l 442 -221 q 524 -167 484 -207 q 564 -82 564 -127 q 539 -20 564 -41 q 461 0 515 0 l 391 0 q 187 68 257 0 q 117 231 117 136 q 152 394 117 307 q 276 596 187 480 l 546 951 l 25 951 l 25 987 l 601 987 "},"∏":{"x_min":122.078125,"x_max":738.578125,"ha":861,"o":"m 738 -184 l 701 -184 l 701 950 l 158 950 l 158 -184 l 122 -184 l 122 987 l 738 987 l 738 -184 "},"Έ":{"x_min":-18.6875,"x_max":716.203125,"ha":766,"o":"m 647 496 l 172 496 l 172 36 l 716 36 l 716 0 l 135 0 l 135 987 l 716 987 l 716 950 l 172 950 l 172 533 l 647 533 l 647 496 m 3 1029 l 75 1029 l 3 906 l -18 906 l 3 1029 "},"Ρ":{"x_min":135.640625,"x_max":763,"ha":834,"o":"m 172 423 l 172 0 l 135 0 l 135 987 l 444 987 q 680 910 597 987 q 763 706 763 833 q 680 500 763 577 q 444 423 598 423 l 172 423 m 172 460 l 444 460 q 655 530 584 460 q 726 704 726 600 q 655 881 726 811 q 444 950 585 950 l 172 950 l 172 460 "},"ğ":{"x_min":82.75,"x_max":644.984375,"ha":760,"o":"m 82 367 q 155 644 82 541 q 359 747 229 747 q 507 708 444 747 q 607 602 570 670 l 613 733 l 644 733 l 644 507 q 644 505 644 506 q 644 505 644 505 l 644 206 q 644 204 644 204 q 644 202 644 203 l 644 -4 q 570 -220 644 -143 q 366 -296 497 -296 q 255 -285 313 -296 q 153 -254 197 -274 l 164 -217 q 260 -249 214 -239 q 365 -260 306 -260 q 545 -194 484 -260 q 607 -4 607 -128 l 607 111 q 506 19 569 53 q 358 -14 442 -14 q 155 84 228 -14 q 82 353 82 183 l 82 367 m 120 353 q 180 111 120 201 q 357 22 240 22 q 514 64 451 22 q 607 178 577 107 l 607 529 q 521 658 579 606 q 358 710 462 710 q 181 615 242 710 q 120 367 120 520 l 120 353 m 567 1028 l 568 1024 q 520 906 571 951 q 383 860 470 860 q 245 906 296 860 q 198 1024 195 951 l 200 1028 l 231 1028 q 267 934 231 970 q 383 898 304 898 q 497 934 459 898 q 535 1028 535 971 l 567 1028 "},"Ở":{"x_min":111.234375,"x_max":1034.328125,"ha":984,"o":"m 855 419 q 756 102 855 219 q 484 -14 657 -14 q 210 102 309 -14 q 111 419 111 219 l 111 567 q 209 884 111 767 q 482 1001 308 1001 q 663 959 585 1001 q 788 839 741 917 q 946 906 892 843 q 1000 1085 1000 969 l 1032 1085 l 1034 1082 q 976 884 1035 956 q 807 804 916 812 q 843 694 830 754 q 855 567 855 634 l 855 419 m 819 569 q 731 857 819 750 q 482 965 644 965 q 235 857 322 965 q 148 569 148 750 l 148 419 q 235 129 148 236 q 484 22 322 22 q 732 129 645 22 q 819 419 819 236 l 819 569 m 476 1083 l 476 1150 q 574 1173 544 1155 q 604 1227 604 1190 q 557 1284 604 1266 q 444 1302 509 1302 l 449 1335 q 589 1306 535 1335 q 642 1227 642 1277 q 606 1149 642 1176 q 508 1119 570 1123 l 508 1083 l 476 1083 "},"Ӏ":{"x_min":162.78125,"x_max":199.390625,"ha":362,"o":"m 199 0 l 162 0 l 162 987 l 199 987 l 199 0 "},"ª":{"x_min":100.375,"x_max":500.53125,"ha":609,"o":"m 461 478 q 450 518 454 497 q 446 560 446 539 q 374 495 419 520 q 269 469 328 469 q 144 510 188 469 q 100 623 100 552 q 150 730 100 692 q 296 768 200 768 l 445 768 l 445 815 q 411 925 445 886 q 310 965 376 965 q 191 933 233 965 q 149 839 149 901 l 118 843 l 117 847 q 167 957 113 913 q 310 1001 221 1001 q 435 953 388 1001 q 482 814 482 904 l 482 601 q 486 538 482 569 q 500 478 491 508 l 461 478 m 269 506 q 380 538 328 506 q 445 610 432 571 l 445 730 l 297 730 q 178 700 220 730 q 137 626 137 670 q 169 538 137 569 q 269 506 202 506 "},"ї":{"x_min":-57.875,"x_max":353.125,"ha":275,"o":"m 159 0 l 122 0 l 122 733 l 159 733 l 159 0 m 353 902 l 260 902 l 260 982 l 353 982 l 353 902 m 35 902 l -57 902 l -57 982 l 35 982 l 35 902 "},"T":{"x_min":38.65625,"x_max":791.484375,"ha":830,"o":"m 791 950 l 445 950 l 445 0 l 408 0 l 408 950 l 38 950 l 38 987 l 791 987 l 791 950 "},"š":{"x_min":75.671875,"x_max":602.9375,"ha":691,"o":"m 566 179 q 516 285 566 238 q 342 360 466 333 q 152 432 211 388 q 94 562 94 476 q 160 694 94 640 q 339 747 227 747 q 531 690 461 747 q 597 541 600 633 l 596 537 l 564 537 q 504 660 564 609 q 339 710 443 710 q 183 666 236 710 q 130 563 130 621 q 175 465 130 505 q 353 394 220 424 q 539 316 476 365 q 602 179 602 267 q 532 39 602 92 q 345 -14 461 -14 q 144 43 217 -14 q 75 182 71 100 l 77 186 l 107 186 q 181 61 112 99 q 345 22 250 22 q 506 69 446 22 q 566 179 566 117 m 343 893 l 468 1020 l 514 1020 l 514 1009 l 370 869 l 316 869 l 171 1010 l 171 1020 l 219 1020 l 343 893 "},"є":{"x_min":75.96875,"x_max":643.734375,"ha":739,"o":"m 375 22 q 539 73 468 22 q 611 225 611 124 l 642 225 l 643 221 q 564 49 646 113 q 375 -14 482 -14 q 155 86 235 -14 q 75 352 75 187 l 75 381 q 155 646 75 545 q 374 747 234 747 q 567 680 488 747 q 643 492 646 613 l 642 488 l 611 488 q 541 653 611 596 q 374 710 472 710 q 180 620 246 710 q 115 389 113 529 l 117 386 l 506 386 l 506 349 l 117 349 l 115 346 q 179 113 113 204 q 375 22 246 22 "},"Þ":{"x_min":135.640625,"x_max":729.09375,"ha":827,"o":"m 172 987 l 172 775 l 423 775 q 648 698 567 775 q 729 500 729 621 q 648 302 729 378 q 423 226 567 226 l 172 226 l 172 0 l 135 0 l 135 987 l 172 987 m 172 738 l 172 263 l 423 263 q 624 333 556 263 q 692 499 692 404 q 624 667 692 596 q 423 738 556 738 l 172 738 "},"j":{"x_min":-106.484375,"x_max":162.78125,"ha":302,"o":"m 162 733 l 162 -60 q 111 -235 162 -173 q -30 -296 61 -296 q -67 -292 -50 -296 q -106 -282 -85 -289 l -97 -247 q -66 -255 -84 -251 q -30 -259 -47 -259 q 85 -207 44 -259 q 126 -60 126 -155 l 126 733 l 162 733 m 158 967 l 122 967 l 122 1058 l 158 1058 l 158 967 "},"Ѱ":{"x_min":105.796875,"x_max":864.0625,"ha":969,"o":"m 502 297 l 506 295 q 737 382 647 295 q 827 614 827 470 l 827 987 l 864 987 l 864 614 q 764 353 864 448 q 502 255 663 257 l 502 0 l 465 0 l 465 255 q 204 354 303 259 q 105 614 105 448 l 105 987 l 143 987 l 143 614 q 231 384 143 471 q 461 296 320 297 l 465 297 l 465 987 l 502 987 l 502 297 "},"Σ":{"x_min":38.65625,"x_max":711.453125,"ha":760,"o":"m 444 520 l 90 36 l 711 36 l 711 0 l 38 0 l 38 29 l 409 533 l 38 957 l 38 987 l 63 987 l 65 985 l 65 987 l 670 987 l 670 951 l 99 951 l 98 948 l 444 552 l 444 520 "},"1":{"x_min":131.578125,"x_max":417.78125,"ha":760,"o":"m 417 0 l 381 0 l 381 966 l 131 913 l 131 944 l 417 1001 l 417 0 "},"ϒ":{"x_min":-38.65625,"x_max":798.265625,"ha":750,"o":"m 550 840 q 626 959 585 924 q 729 994 667 994 q 767 989 748 994 q 798 975 785 983 l 782 948 q 758 958 773 953 q 726 963 744 963 q 651 936 685 963 q 580 824 617 909 l 400 418 l 400 0 l 362 0 l 362 422 l 179 824 q 107 936 140 909 q 33 963 73 963 q 1 958 15 963 q -23 948 -13 953 l -38 975 q -7 989 -25 983 q 31 994 10 994 q 132 959 92 994 q 208 840 173 924 l 343 539 l 377 455 l 381 455 l 416 539 l 550 840 "},"ҍ":{"x_min":-6.109375,"x_max":655.84375,"ha":732,"o":"m 392 575 l 159 575 l 159 427 l 393 427 q 586 367 516 427 q 655 213 655 307 q 586 59 655 118 q 393 0 516 0 l 122 0 l 122 575 l -6 575 l -6 612 l 122 612 l 122 733 l 159 733 l 159 612 l 392 612 l 392 575 m 159 390 l 159 36 l 393 36 q 562 87 505 36 q 619 215 619 138 q 562 339 619 288 q 393 390 505 390 l 159 390 "},"ℓ":{"x_min":52.90625,"x_max":524.9375,"ha":632,"o":"m 467 -7 l 463 -8 q 300 68 356 -12 q 244 292 244 149 l 244 335 q 153 309 201 318 q 52 301 105 301 l 52 337 q 154 346 107 337 q 244 373 202 355 l 244 744 q 283 933 244 864 q 391 1001 322 1001 q 487 943 450 1001 q 524 787 524 885 l 524 758 q 460 517 524 627 q 281 351 396 408 l 281 292 q 325 99 281 176 q 467 22 369 22 l 467 -7 m 488 757 l 488 787 q 461 920 488 874 q 391 965 435 965 q 309 908 337 965 q 281 744 281 852 l 281 399 l 285 398 q 436 548 383 448 q 488 757 488 648 l 488 757 "},"ӡ":{"x_min":86.6875,"x_max":688.390625,"ha":791,"o":"m 644 693 l 642 696 l 96 696 l 96 733 l 686 733 l 688 687 l 361 306 l 368 306 q 600 228 517 306 q 682 7 682 150 q 600 -193 682 -120 q 388 -267 518 -267 q 174 -193 265 -267 q 86 15 83 -120 l 88 19 l 120 19 q 194 -160 120 -90 q 388 -231 268 -231 q 578 -168 510 -231 q 646 4 646 -105 q 571 208 646 142 q 365 274 497 274 l 317 274 l 317 311 l 644 693 "},"Ү":{"x_min":24.421875,"x_max":803.6875,"ha":829,"o":"m 395 438 l 413 404 l 431 438 l 758 987 l 803 987 l 432 375 l 432 0 l 395 0 l 395 375 l 24 987 l 69 987 l 395 438 "},"ĉ":{"x_min":65.78125,"x_max":633.546875,"ha":705,"o":"m 365 22 q 529 73 458 22 q 600 225 600 124 l 632 225 l 633 221 q 554 49 636 113 q 365 -14 472 -14 q 145 86 225 -14 q 65 352 65 187 l 65 381 q 145 646 65 545 q 364 747 224 747 q 557 680 478 747 q 633 492 636 613 l 632 488 l 600 488 q 531 653 600 596 q 364 710 462 710 q 168 618 235 710 q 102 381 102 526 l 102 352 q 168 114 102 206 q 365 22 235 22 m 542 875 l 542 867 l 495 867 l 369 993 l 245 867 l 201 867 l 201 878 l 343 1018 l 397 1018 l 542 875 "},"ī":{"x_min":-75.609375,"x_max":349.640625,"ha":275,"o":"m 159 0 l 122 0 l 122 733 l 159 733 l 159 0 m 349 943 l -75 943 l -75 979 l 349 979 l 349 943 "},"ӹ":{"x_min":122.765625,"x_max":891.375,"ha":1008,"o":"m 159 427 l 393 427 q 586 367 516 427 q 655 213 655 307 q 586 59 655 118 q 393 0 516 0 l 122 0 l 122 733 l 159 733 l 159 427 m 159 390 l 159 36 l 393 36 q 562 87 505 36 q 619 215 619 138 q 562 339 619 288 q 393 390 505 390 l 159 390 m 891 0 l 854 0 l 854 733 l 891 733 l 891 0 m 756 902 l 663 902 l 663 982 l 756 982 l 756 902 m 438 902 l 345 902 l 345 982 l 438 982 l 438 902 "},"О":{"x_min":90.203125,"x_max":834.890625,"ha":925,"o":"m 834 419 q 735 102 834 219 q 463 -14 636 -14 q 189 102 288 -14 q 90 419 90 219 l 90 567 q 188 884 90 767 q 461 1001 287 1001 q 735 884 635 1001 q 834 567 834 767 l 834 419 m 798 569 q 710 857 798 750 q 461 965 623 965 q 214 857 301 965 q 127 569 127 750 l 127 419 q 214 129 127 236 q 463 22 301 22 q 711 129 624 22 q 798 419 798 236 l 798 569 "},"ξ":{"x_min":75.28125,"x_max":673.46875,"ha":711,"o":"m 470 987 l 609 987 l 609 950 l 469 950 q 256 900 326 950 q 185 765 185 849 q 251 635 185 680 q 459 590 318 590 l 541 590 l 541 552 l 459 552 q 222 486 315 552 q 130 286 130 420 q 224 103 130 170 q 477 36 319 36 l 506 36 q 632 0 592 36 q 673 -96 673 -35 q 624 -196 673 -150 q 525 -256 575 -242 l 515 -221 q 597 -172 556 -208 q 637 -95 637 -136 q 606 -23 637 -47 q 506 0 575 0 l 477 0 q 203 77 313 0 q 92 288 92 155 q 155 470 92 397 q 326 570 217 542 q 194 644 240 592 q 148 762 148 695 q 179 874 148 826 q 268 950 210 922 l 75 950 l 75 987 l 410 987 q 443 989 430 988 q 470 990 456 990 l 470 987 "},"Ď":{"x_min":135.640625,"x_max":836.921875,"ha":929,"o":"m 135 0 l 135 987 l 429 987 q 718 865 599 987 q 836 554 836 743 l 836 433 q 718 121 836 243 q 429 0 599 0 l 135 0 m 172 950 l 172 36 l 429 36 q 691 149 583 36 q 800 433 800 261 l 800 556 q 691 838 800 725 q 429 950 583 950 l 172 950 m 416 1112 l 541 1239 l 587 1239 l 587 1228 l 443 1088 l 389 1088 l 244 1229 l 244 1239 l 292 1239 l 416 1112 "},"&":{"x_min":78,"x_max":807.765625,"ha":846,"o":"m 286 544 q 204 672 230 614 q 177 791 177 729 q 232 947 177 892 q 384 1001 288 1001 q 522 952 474 1001 q 571 824 571 904 q 545 727 571 767 q 472 649 519 687 l 335 540 l 657 174 q 714 290 693 225 q 735 428 735 354 l 772 428 q 748 274 772 343 q 682 146 725 204 l 807 3 l 806 0 l 765 0 l 659 120 q 653 114 655 116 q 651 111 651 112 q 523 18 590 50 q 372 -14 456 -14 q 156 53 235 -14 q 78 238 78 122 q 123 381 78 316 q 251 516 169 447 l 286 544 m 372 22 q 515 54 446 22 q 635 146 583 86 l 330 491 q 320 503 325 497 q 307 518 315 509 l 272 490 q 147 350 179 410 q 114 238 114 291 q 181 85 114 147 q 372 22 247 22 m 215 792 q 238 682 215 739 q 313 565 262 625 l 455 678 q 514 748 495 712 q 533 824 533 784 q 495 926 533 887 q 384 965 457 965 q 259 915 303 965 q 215 792 215 866 "},"G":{"x_min":113.9375,"x_max":831.5,"ha":969,"o":"m 831 132 q 711 32 800 80 q 494 -14 623 -14 q 219 106 324 -14 q 113 420 113 227 l 113 581 q 216 884 113 767 q 482 1001 318 1001 q 734 920 640 1001 q 825 711 828 838 l 824 707 l 793 707 q 712 892 793 820 q 482 965 631 965 q 241 858 333 965 q 150 583 150 751 l 150 420 q 244 133 150 244 q 494 22 339 22 q 690 61 613 22 q 794 149 767 99 l 794 430 l 493 430 l 493 467 l 831 467 l 831 132 "},"ΰ":{"x_min":113.9375,"x_max":657.203125,"ha":760,"o":"m 150 733 l 150 328 q 212 96 150 171 q 381 22 274 22 q 565 111 510 22 q 621 339 621 200 q 600 544 621 446 q 545 733 580 642 l 590 733 q 639 550 622 634 q 657 341 657 467 q 590 81 657 177 q 382 -14 522 -14 q 185 69 256 -14 q 113 330 113 153 l 113 733 l 150 733 m 574 864 l 489 864 l 489 937 l 574 937 l 574 864 m 250 864 l 163 864 l 163 937 l 250 937 l 250 864 m 368 1073 l 460 1073 l 380 951 l 352 951 l 368 1073 "},"`":{"x_min":69.859375,"x_max":280.78125,"ha":364,"o":"m 280 852 l 279 849 l 228 849 l 69 1026 l 71 1029 l 131 1029 l 280 852 "},"ỗ":{"x_min":59,"x_max":701.28125,"ha":760,"o":"m 59 381 q 148 644 59 542 q 379 747 237 747 q 612 644 522 747 q 701 381 701 542 l 701 352 q 612 88 701 190 q 381 -14 522 -14 q 148 88 238 -14 q 59 352 59 190 l 59 381 m 95 352 q 172 118 95 214 q 381 22 250 22 q 587 118 510 22 q 664 352 664 215 l 664 381 q 586 613 664 516 q 379 710 508 710 q 172 613 250 710 q 95 381 95 516 l 95 352 m 583 846 l 581 842 l 531 842 l 391 968 l 254 842 l 203 842 l 202 846 l 372 993 l 413 993 l 583 846 m 568 1121 q 542 1052 568 1078 q 480 1026 517 1026 q 402 1062 442 1026 q 335 1097 363 1097 q 297 1076 311 1097 q 282 1021 282 1054 l 248 1026 q 273 1100 248 1068 q 335 1133 299 1133 q 412 1097 372 1133 q 480 1061 453 1061 q 519 1078 505 1061 q 533 1126 533 1095 l 568 1121 "},"Ễ":{"x_min":135.640625,"x_max":716.203125,"ha":766,"o":"m 647 496 l 172 496 l 172 36 l 716 36 l 716 0 l 135 0 l 135 987 l 716 987 l 716 950 l 172 950 l 172 533 l 647 533 l 647 496 m 608 1063 l 606 1059 l 556 1059 l 416 1185 l 279 1059 l 228 1059 l 227 1063 l 397 1210 l 438 1210 l 608 1063 m 593 1338 q 567 1269 593 1295 q 505 1243 542 1243 q 427 1279 467 1243 q 360 1314 388 1314 q 322 1293 336 1314 q 307 1238 307 1271 l 273 1243 q 298 1317 273 1285 q 360 1350 324 1350 q 437 1314 397 1350 q 505 1278 478 1278 q 544 1295 530 1278 q 558 1343 558 1312 l 593 1338 "},"ằ":{"x_min":62.390625,"x_max":632.78125,"ha":733,"o":"m 577 135 q 463 27 539 69 q 281 -14 388 -14 q 120 41 179 -14 q 62 192 62 97 q 149 347 62 284 q 367 409 236 409 l 577 409 l 577 516 q 518 659 577 608 q 353 710 459 710 q 192 662 253 710 q 132 538 132 614 l 101 539 l 100 543 q 166 688 96 628 q 353 747 237 747 q 542 687 471 747 q 613 515 613 628 l 613 147 q 618 72 613 109 q 632 0 622 35 l 592 0 q 580 72 583 48 q 577 124 577 96 l 577 135 m 281 21 q 466 69 390 21 q 577 207 541 118 l 577 372 l 369 372 q 177 319 255 372 q 99 189 99 267 q 148 68 99 115 q 281 21 198 21 m 552 1026 l 554 1022 q 503 914 557 956 q 356 873 449 873 q 208 915 263 873 q 158 1022 154 957 l 159 1026 l 190 1026 q 230 942 190 974 q 356 910 270 910 q 481 943 439 910 q 522 1026 522 975 l 552 1026 m 403 1013 l 346 1013 l 227 1166 l 291 1166 l 403 1013 "},"ŏ":{"x_min":59,"x_max":701.28125,"ha":760,"o":"m 59 381 q 148 644 59 542 q 379 747 237 747 q 612 644 522 747 q 701 381 701 542 l 701 352 q 612 88 701 190 q 381 -14 522 -14 q 148 88 238 -14 q 59 352 59 190 l 59 381 m 95 352 q 172 118 95 214 q 381 22 250 22 q 587 118 510 22 q 664 352 664 215 l 664 381 q 586 613 664 516 q 379 710 508 710 q 172 613 250 710 q 95 381 95 516 l 95 352 m 577 1028 l 578 1024 q 530 906 581 951 q 393 860 480 860 q 255 906 306 860 q 208 1024 205 951 l 210 1028 l 241 1028 q 277 934 241 970 q 393 898 314 898 q 507 934 469 898 q 545 1028 545 971 l 577 1028 "},"Ả":{"x_min":23.0625,"x_max":806.40625,"ha":829,"o":"m 655 295 l 173 295 l 63 0 l 23 0 l 392 987 l 436 987 l 806 0 l 766 0 l 655 295 m 187 331 l 642 331 l 435 884 l 416 942 l 412 942 l 394 884 l 187 331 m 398 1076 l 398 1143 q 496 1166 466 1148 q 526 1220 526 1183 q 479 1277 526 1259 q 366 1295 431 1295 l 371 1328 q 511 1299 457 1328 q 564 1220 564 1270 q 528 1142 564 1169 q 430 1112 492 1116 l 430 1076 l 398 1076 "},"ý":{"x_min":29.15625,"x_max":640.25,"ha":663,"o":"m 310 132 l 337 59 l 341 59 l 345 70 l 599 733 l 640 733 l 314 -122 q 244 -247 284 -199 q 118 -296 204 -296 q 89 -294 105 -296 q 66 -288 73 -291 l 72 -254 q 94 -258 80 -256 q 118 -260 109 -260 q 215 -223 180 -260 q 277 -115 250 -187 l 321 4 l 29 733 l 69 733 l 310 132 m 465 1030 l 518 1030 l 520 1027 l 363 850 l 318 850 l 316 853 l 465 1030 "},"º":{"x_min":100.375,"x_max":513.421875,"ha":620,"o":"m 100 774 q 155 938 100 874 q 306 1001 211 1001 q 457 938 401 1001 q 513 774 513 874 l 513 695 q 457 531 513 594 q 307 468 402 468 q 156 531 212 468 q 100 695 100 594 l 100 774 m 137 695 q 179 557 137 610 q 307 505 222 505 q 433 558 389 505 q 477 695 477 611 l 477 774 q 433 911 477 857 q 306 965 389 965 q 180 911 224 965 q 137 774 137 857 l 137 695 "},"Ԁ":{"x_min":42.734375,"x_max":649.734375,"ha":730,"o":"m 613 548 l 613 987 l 649 987 l 649 0 l 362 0 q 125 75 208 0 q 42 274 42 151 q 125 472 42 396 q 362 548 208 548 l 613 548 m 613 36 l 613 511 l 362 511 q 150 442 221 511 q 80 275 80 373 q 150 104 80 172 q 362 36 220 36 l 613 36 "},"∞":{"x_min":94.953125,"x_max":1401.890625,"ha":1508,"o":"m 1401 337 q 1317 87 1401 189 q 1093 -14 1232 -14 q 873 87 957 -14 q 748 310 790 188 q 621 87 704 188 q 403 -14 539 -14 q 179 87 263 -14 q 94 337 94 189 l 94 396 q 179 645 94 543 q 402 747 263 747 q 621 646 537 747 q 748 422 704 544 q 874 645 790 543 q 1095 747 959 747 q 1317 644 1233 747 q 1401 396 1401 542 l 1401 337 m 1365 396 q 1293 615 1365 520 q 1095 710 1221 710 q 868 584 946 710 q 771 381 790 459 l 771 352 q 868 147 791 273 q 1093 22 946 22 q 1293 116 1221 22 q 1365 337 1365 211 l 1365 396 m 131 337 q 203 116 131 211 q 403 22 275 22 q 637 164 549 22 q 725 352 725 306 l 725 381 q 637 568 725 426 q 402 710 549 710 q 203 615 274 710 q 131 396 131 520 l 131 337 "},"ź":{"x_min":59,"x_max":630.75,"ha":663,"o":"m 108 36 l 630 36 l 630 0 l 59 0 l 59 29 l 541 696 l 80 696 l 80 733 l 590 733 l 590 701 l 108 36 m 472 1030 l 525 1030 l 527 1027 l 370 850 l 325 850 l 323 853 l 472 1030 "},"я":{"x_min":94.265625,"x_max":626.671875,"ha":747,"o":"m 626 733 l 626 0 l 590 0 l 590 305 l 326 305 l 321 305 l 137 0 l 94 0 l 279 308 q 152 378 197 321 q 107 519 107 435 q 172 674 107 614 q 355 733 238 733 l 626 733 m 144 518 q 189 393 144 443 q 326 342 235 342 l 590 342 l 590 696 l 355 696 q 196 646 248 696 q 144 518 144 595 "},"ӛ":{"x_min":111.734375,"x_max":690.21875,"ha":731,"o":"m 382 748 q 601 647 511 748 q 690 394 690 547 l 690 351 q 601 89 690 192 q 378 -13 513 -13 q 184 67 256 -13 q 111 286 111 147 l 111 342 l 653 342 l 653 351 l 653 394 q 577 620 653 529 q 382 711 501 711 q 255 687 316 711 q 157 622 195 662 l 137 650 q 237 720 176 693 q 382 748 298 748 m 378 23 q 565 102 492 23 q 648 302 638 181 l 646 306 l 148 306 l 148 283 q 210 96 148 170 q 378 23 271 23 m 596 916 l 503 916 l 503 996 l 596 996 l 596 916 m 278 916 l 185 916 l 185 996 l 278 996 l 278 916 "},"Ё":{"x_min":135.640625,"x_max":716.203125,"ha":766,"o":"m 647 496 l 172 496 l 172 36 l 716 36 l 716 0 l 135 0 l 135 987 l 716 987 l 716 950 l 172 950 l 172 533 l 647 533 l 647 496 m 631 1134 l 538 1134 l 538 1214 l 631 1214 l 631 1134 m 313 1134 l 220 1134 l 220 1214 l 313 1214 l 313 1134 "},"Ư":{"x_min":125.46875,"x_max":1073.6875,"ha":926,"o":"m 1071 1099 l 1073 1095 q 1005 889 1075 961 q 807 820 934 817 l 803 822 l 803 853 q 979 916 918 853 q 1040 1099 1040 979 l 1071 1099 m 800 987 l 800 331 q 706 77 800 168 q 463 -14 611 -14 q 219 77 314 -14 q 125 331 125 169 l 125 987 l 162 987 l 162 331 q 247 106 162 191 q 463 22 332 22 q 678 106 593 22 q 763 331 763 191 l 763 987 l 800 987 "},"ń":{"x_min":114.625,"x_max":647.03125,"ha":760,"o":"m 147 733 l 152 585 q 250 705 186 662 q 406 747 314 747 q 587 671 526 747 q 647 432 647 596 l 647 0 l 610 0 l 610 433 q 555 648 610 585 q 407 710 501 710 q 231 643 292 710 q 153 470 170 576 l 153 0 l 116 0 l 116 375 l 114 375 q 114 401 114 388 q 116 428 115 415 l 116 733 l 147 733 m 508 1044 l 561 1044 l 563 1041 l 406 864 l 361 864 l 359 867 l 508 1044 "}," ":{"x_min":0,"x_max":0,"ha":354},"Г":{"x_min":130.890625,"x_max":715.53125,"ha":761,"o":"m 715 950 l 167 950 l 167 0 l 130 0 l 130 987 l 715 987 l 715 950 "},"Ь":{"x_min":130.890625,"x_max":737.234375,"ha":829,"o":"m 167 548 l 417 548 q 654 472 571 548 q 737 274 737 396 q 654 75 737 151 q 417 0 571 0 l 130 0 l 130 987 l 167 987 l 167 548 m 167 511 l 167 36 l 417 36 q 629 104 558 36 q 699 275 699 172 q 629 442 699 373 q 417 511 558 511 l 167 511 "},"ѝ":{"x_min":116.65625,"x_max":644.3125,"ha":760,"o":"m 607 733 l 644 733 l 644 0 l 607 0 l 607 661 l 602 663 l 153 0 l 116 0 l 116 733 l 153 733 l 153 71 l 157 70 l 607 733 m 412 858 l 411 855 l 360 855 l 201 1032 l 203 1035 l 263 1035 l 412 858 "},"ԓ":{"x_min":29.84375,"x_max":679.78125,"ha":761,"o":"m 644 733 l 644 0 l 607 0 l 607 696 l 243 696 l 243 400 q 199 92 243 184 q 51 0 155 0 l 29 0 l 29 35 l 53 35 q 168 115 130 35 q 206 400 206 194 l 206 733 l 644 733 m 679 80 l 679 -60 q 628 -235 679 -173 q 486 -296 578 -296 q 449 -292 466 -296 q 410 -282 431 -289 l 419 -247 q 451 -256 432 -252 q 486 -260 469 -260 q 602 -208 561 -260 q 643 -60 643 -155 l 643 80 l 679 80 "},"¤":{"x_min":77.3125,"x_max":935.953125,"ha":1019,"o":"m 786 105 q 658 17 730 48 q 505 -13 585 -13 q 351 17 423 -13 q 223 104 279 48 l 104 -17 l 77 8 l 198 132 q 126 260 151 189 q 101 412 101 332 q 128 568 101 495 q 205 699 155 642 l 77 830 l 104 857 l 231 727 q 356 808 286 779 q 505 836 426 836 q 652 807 582 836 q 778 725 722 778 l 908 857 l 935 830 l 805 697 q 881 567 853 640 q 908 412 908 493 q 883 262 908 333 q 812 134 857 191 l 935 8 l 908 -18 l 786 105 m 138 412 q 246 136 138 250 q 505 22 354 22 q 763 136 655 22 q 871 412 871 250 q 763 687 871 573 q 505 800 655 800 q 246 687 354 800 q 138 412 138 573 "},"Ĝ":{"x_min":113.9375,"x_max":831.5,"ha":969,"o":"m 831 132 q 711 32 800 80 q 494 -14 623 -14 q 219 106 324 -14 q 113 420 113 227 l 113 581 q 216 884 113 767 q 482 1001 318 1001 q 734 920 640 1001 q 825 711 828 838 l 824 707 l 793 707 q 712 892 793 820 q 482 965 631 965 q 241 858 333 965 q 150 583 150 751 l 150 420 q 244 133 150 244 q 494 22 339 22 q 690 61 613 22 q 794 149 767 99 l 794 430 l 493 430 l 493 467 l 831 467 l 831 132 m 625 1108 l 625 1100 l 578 1100 l 452 1226 l 328 1100 l 284 1100 l 284 1111 l 426 1251 l 480 1251 l 625 1108 "},"p":{"x_min":115.296875,"x_max":677.546875,"ha":760,"o":"m 677 353 q 604 84 677 183 q 402 -14 531 -14 q 253 19 316 -14 q 153 111 189 53 l 153 -282 l 116 -282 l 116 200 q 115 204 115 202 q 115 206 115 205 l 115 505 q 115 506 115 505 q 116 510 115 506 l 116 733 l 145 733 l 152 604 q 252 709 189 670 q 400 747 315 747 q 603 644 530 747 q 677 367 677 541 l 677 353 m 640 367 q 578 615 640 520 q 401 710 517 710 q 238 658 297 710 q 153 529 179 606 l 153 179 q 244 64 181 107 q 402 22 307 22 q 579 111 518 22 q 640 353 640 201 l 640 367 "},"ӓ":{"x_min":62.390625,"x_max":632.78125,"ha":733,"o":"m 577 135 q 463 27 539 69 q 281 -14 388 -14 q 120 41 179 -14 q 62 192 62 97 q 149 347 62 284 q 367 409 236 409 l 577 409 l 577 516 q 518 659 577 608 q 353 710 459 710 q 192 662 253 710 q 132 538 132 614 l 101 539 l 100 543 q 166 688 96 628 q 353 747 237 747 q 542 687 471 747 q 613 515 613 628 l 613 147 q 618 72 613 109 q 632 0 622 35 l 592 0 q 580 72 583 48 q 577 124 577 96 l 577 135 m 281 21 q 466 69 390 21 q 577 207 541 118 l 577 372 l 369 372 q 177 319 255 372 q 99 189 99 267 q 148 68 99 115 q 281 21 198 21 m 573 917 l 480 917 l 480 997 l 573 997 l 573 917 m 255 917 l 162 917 l 162 997 l 255 997 l 255 917 "},"Ѹ":{"x_min":90.203125,"x_max":1565.25,"ha":1588,"o":"m 834 419 q 735 102 834 219 q 463 -14 636 -14 q 189 102 288 -14 q 90 419 90 219 l 90 567 q 188 884 90 767 q 461 1001 287 1001 q 735 884 635 1001 q 834 567 834 767 l 834 419 m 798 569 q 710 857 798 750 q 461 965 623 965 q 214 857 301 965 q 127 569 127 750 l 127 419 q 214 129 127 236 q 463 22 301 22 q 711 129 624 22 q 798 419 798 236 l 798 569 m 1235 132 l 1262 59 l 1266 59 l 1270 70 l 1524 733 l 1565 733 l 1239 -122 q 1169 -247 1209 -199 q 1043 -296 1129 -296 q 1014 -294 1030 -296 q 991 -288 998 -291 l 997 -254 q 1019 -258 1005 -256 q 1043 -260 1034 -260 q 1140 -223 1105 -260 q 1202 -115 1175 -187 l 1246 4 l 954 733 l 994 733 l 1235 132 "},"Ю":{"x_min":146.5,"x_max":1176.71875,"ha":1286,"o":"m 1176 419 q 1077 102 1176 219 q 805 -14 978 -14 q 531 102 630 -14 q 432 419 432 219 l 432 470 l 183 470 l 183 0 l 146 0 l 146 987 l 183 987 l 183 506 l 432 506 l 432 567 q 530 884 432 767 q 803 1001 629 1001 q 1077 884 977 1001 q 1176 567 1176 767 l 1176 419 m 1140 569 q 1052 857 1140 750 q 803 965 965 965 q 556 857 642 965 q 469 569 469 750 l 469 419 q 556 129 469 236 q 805 22 643 22 q 1053 129 966 22 q 1140 419 1140 236 l 1140 569 "},"ο":{"x_min":59,"x_max":701.28125,"ha":760,"o":"m 59 381 q 148 644 59 542 q 379 747 237 747 q 612 644 522 747 q 701 381 701 542 l 701 352 q 612 88 701 190 q 381 -14 522 -14 q 148 88 238 -14 q 59 352 59 190 l 59 381 m 95 352 q 172 118 95 214 q 381 22 250 22 q 587 118 510 22 q 664 352 664 215 l 664 381 q 586 613 664 516 q 379 710 508 710 q 172 613 250 710 q 95 381 95 516 l 95 352 "},"S":{"x_min":60.25,"x_max":756.21875,"ha":829,"o":"m 718 232 q 649 369 718 317 q 412 476 579 421 q 166 583 245 526 q 87 752 87 640 q 180 932 87 864 q 415 1001 272 1001 q 652 925 562 1001 q 739 713 742 849 l 738 709 l 707 709 q 626 892 707 819 q 415 965 544 965 q 202 902 281 965 q 124 754 124 839 q 187 615 124 668 q 423 511 250 562 q 674 401 592 458 q 756 233 756 344 q 659 53 756 121 q 419 -14 562 -14 q 164 55 271 -14 q 60 274 56 124 l 61 278 l 92 278 q 191 83 92 143 q 419 22 290 22 q 634 82 549 22 q 718 232 718 142 "},"ễ":{"x_min":65.78125,"x_max":644.3125,"ha":705,"o":"m 373 -14 q 154 86 244 -14 q 65 339 65 186 l 65 382 q 154 644 65 541 q 377 747 242 747 q 571 667 499 747 q 644 447 644 586 l 644 391 l 102 391 l 102 382 l 102 339 q 178 113 102 204 q 373 22 254 22 q 500 46 439 22 q 598 111 560 71 l 618 83 q 518 13 579 40 q 373 -14 457 -14 m 377 710 q 190 631 263 710 q 107 432 117 552 l 109 427 l 607 427 l 607 450 q 545 637 607 563 q 377 710 484 710 m 566 846 l 564 842 l 514 842 l 374 968 l 237 842 l 186 842 l 185 846 l 355 993 l 396 993 l 566 846 m 551 1121 q 525 1052 551 1078 q 463 1026 500 1026 q 385 1062 425 1026 q 318 1097 346 1097 q 280 1076 294 1097 q 265 1021 265 1054 l 231 1026 q 256 1100 231 1068 q 318 1133 282 1133 q 395 1097 355 1133 q 463 1061 436 1061 q 502 1078 488 1061 q 516 1126 516 1095 l 551 1121 "},"/":{"x_min":28.484375,"x_max":480.859375,"ha":530,"o":"m 68 -84 l 28 -84 l 440 987 l 480 987 l 68 -84 "},"Ọ":{"x_min":90.203125,"x_max":834.890625,"ha":925,"o":"m 834 419 q 735 102 834 219 q 463 -14 636 -14 q 189 102 288 -14 q 90 419 90 219 l 90 567 q 188 884 90 767 q 461 1001 287 1001 q 735 884 635 1001 q 834 567 834 767 l 834 419 m 798 569 q 710 857 798 750 q 461 965 623 965 q 214 857 301 965 q 127 569 127 750 l 127 419 q 214 129 127 236 q 463 22 301 22 q 711 129 624 22 q 798 419 798 236 l 798 569 m 490 -201 l 426 -201 l 426 -107 l 490 -107 l 490 -201 "},"Ӭ":{"x_min":101.609375,"x_max":800.984375,"ha":899,"o":"m 103 685 l 101 689 q 192 921 98 841 q 443 1002 287 1002 q 702 882 604 1002 q 800 568 800 762 l 800 420 q 702 106 800 225 q 443 -13 604 -13 q 193 66 288 -13 q 101 297 98 147 l 103 301 l 134 301 q 217 95 134 168 q 443 23 300 23 q 675 131 587 23 q 764 419 764 240 l 764 495 l 369 495 l 369 531 l 764 531 l 764 568 q 675 856 764 747 q 443 965 587 965 q 217 895 299 965 q 134 685 134 825 l 103 685 m 680 1149 l 587 1149 l 587 1229 l 680 1229 l 680 1149 m 362 1149 l 269 1149 l 269 1229 l 362 1229 l 362 1149 "},"Ŧ":{"x_min":38.65625,"x_max":791.484375,"ha":830,"o":"m 614 574 l 445 574 l 445 0 l 408 0 l 408 574 l 216 574 l 216 611 l 408 611 l 408 950 l 38 950 l 38 987 l 791 987 l 791 950 l 445 950 l 445 611 l 614 611 l 614 574 "},"ђ":{"x_min":7.453125,"x_max":647.03125,"ha":760,"o":"m 407 870 l 153 870 l 153 581 q 253 703 187 659 q 413 747 319 747 q 587 674 528 747 q 647 446 647 602 l 647 -60 q 595 -235 647 -173 q 453 -296 544 -296 q 408 -292 429 -296 q 363 -282 387 -289 l 372 -247 q 408 -255 385 -251 q 453 -259 432 -259 q 568 -207 527 -259 q 609 -60 609 -155 l 609 447 q 556 651 609 592 q 414 710 503 710 q 234 642 297 710 q 153 466 170 573 l 153 0 l 116 0 l 116 375 l 115 375 q 115 399 115 389 q 116 418 115 408 l 116 870 l 7 870 l 7 906 l 116 906 l 116 1058 l 153 1058 l 153 906 l 407 906 l 407 870 "},"y":{"x_min":29.15625,"x_max":640.25,"ha":663,"o":"m 310 132 l 337 59 l 341 59 l 345 70 l 599 733 l 640 733 l 314 -122 q 244 -247 284 -199 q 118 -296 204 -296 q 89 -294 105 -296 q 66 -288 73 -291 l 72 -254 q 94 -258 80 -256 q 118 -260 109 -260 q 215 -223 180 -260 q 277 -115 250 -187 l 321 4 l 29 733 l 69 733 l 310 132 "},"Π":{"x_min":135.640625,"x_max":839.640625,"ha":975,"o":"m 839 0 l 803 0 l 803 950 l 172 950 l 172 0 l 135 0 l 135 987 l 839 987 l 839 0 "},"‗":{"x_min":52.328125,"x_max":626.09375,"ha":626,"o":"m 626 -194 l 52 -194 l 52 -158 l 626 -158 l 626 -194 m 626 -36 l 52 -36 l 52 0 l 626 0 l 626 -36 "},"–":{"x_min":117.703125,"x_max":853.90625,"ha":958,"o":"m 853 489 l 117 489 l 117 525 l 853 525 l 853 489 "},"ë":{"x_min":65.78125,"x_max":644.3125,"ha":705,"o":"m 373 -14 q 154 86 244 -14 q 65 339 65 186 l 65 382 q 154 644 65 541 q 377 747 242 747 q 571 667 499 747 q 644 447 644 586 l 644 391 l 102 391 l 102 382 l 102 339 q 178 113 102 204 q 373 22 254 22 q 500 46 439 22 q 598 111 560 71 l 618 83 q 518 13 579 40 q 373 -14 457 -14 m 377 710 q 190 631 263 710 q 107 432 117 552 l 109 427 l 607 427 l 607 450 q 545 637 607 563 q 377 710 484 710 m 589 917 l 496 917 l 496 997 l 589 997 l 589 917 m 271 917 l 178 917 l 178 997 l 271 997 l 271 917 "},"б":{"x_min":65.78125,"x_max":708.75,"ha":761,"o":"m 386 747 q 619 644 529 747 q 708 381 708 542 l 708 352 q 619 88 708 190 q 387 -14 530 -14 q 155 88 244 -14 q 65 352 65 190 l 65 604 q 167 867 65 777 q 457 963 269 957 q 614 986 561 965 q 666 1053 666 1007 l 694 1053 l 695 1049 q 641 955 700 984 q 461 926 583 927 q 196 842 289 923 q 102 604 102 761 l 102 562 q 215 698 141 649 q 386 747 289 747 m 386 710 q 179 613 257 710 q 102 381 102 516 l 102 352 q 179 118 102 214 q 387 22 257 22 q 594 118 516 22 q 671 352 671 215 l 671 381 q 593 613 671 516 q 386 710 515 710 "},"ƒ":{"x_min":-61.046875,"x_max":450.34375,"ha":437,"o":"m 402 696 l 208 696 l 208 -60 q 157 -235 208 -173 q 14 -296 106 -296 q -22 -292 -4 -296 q -61 -282 -40 -289 l -52 -247 q -20 -255 -39 -251 q 14 -259 -2 -259 q 130 -207 89 -259 q 171 -60 171 -155 l 171 696 l 44 696 l 44 733 l 171 733 l 171 854 q 222 1015 171 958 q 363 1072 272 1072 q 407 1069 385 1072 q 450 1060 430 1066 l 444 1025 q 406 1033 423 1030 q 364 1035 389 1035 q 249 987 290 1035 q 208 854 208 939 l 208 733 l 402 733 l 402 696 "},"у":{"x_min":29.15625,"x_max":640.25,"ha":663,"o":"m 310 132 l 337 59 l 341 59 l 345 70 l 599 733 l 640 733 l 314 -122 q 244 -247 284 -199 q 118 -296 204 -296 q 89 -294 105 -296 q 66 -288 73 -291 l 72 -254 q 94 -258 80 -256 q 118 -260 109 -260 q 215 -223 180 -260 q 277 -115 250 -187 l 321 4 l 29 733 l 69 733 l 310 132 "},"J":{"x_min":62.9375,"x_max":628.71875,"ha":761,"o":"m 592 987 l 628 987 l 628 286 q 551 67 628 148 q 352 -14 474 -14 q 138 57 216 -14 q 63 267 59 129 l 64 271 l 95 271 q 160 83 95 143 q 352 22 225 22 q 523 93 455 22 q 592 286 592 164 l 592 987 "},"ŷ":{"x_min":29.15625,"x_max":640.25,"ha":663,"o":"m 310 132 l 337 59 l 341 59 l 345 70 l 599 733 l 640 733 l 314 -122 q 244 -247 284 -199 q 118 -296 204 -296 q 89 -294 105 -296 q 66 -288 73 -291 l 72 -254 q 94 -258 80 -256 q 118 -260 109 -260 q 215 -223 180 -260 q 277 -115 250 -187 l 321 4 l 29 733 l 69 733 l 310 132 m 520 861 l 520 853 l 473 853 l 347 979 l 223 853 l 179 853 l 179 864 l 321 1004 l 375 1004 l 520 861 "},"ŕ":{"x_min":116.65625,"x_max":452.171875,"ha":465,"o":"m 440 707 l 392 711 q 232 648 294 711 q 153 480 171 584 l 153 0 l 116 0 l 116 733 l 146 733 l 153 606 l 153 581 q 244 703 183 659 q 392 747 304 747 q 421 745 408 747 q 444 739 434 742 l 440 707 m 397 1044 l 450 1044 l 452 1041 l 295 864 l 250 864 l 248 867 l 397 1044 "},"ӌ":{"x_min":116.65625,"x_max":644.3125,"ha":761,"o":"m 644 0 l 607 0 l 607 354 q 501 315 562 331 q 394 299 440 299 q 180 357 244 299 q 116 575 116 414 l 116 733 l 153 733 l 153 575 q 207 386 153 436 q 394 336 261 336 q 509 353 447 338 q 607 388 570 368 l 607 733 l 644 733 l 644 0 m 608 -238 l 571 -238 l 571 64 l 608 64 l 608 -238 "},"ώ":{"x_min":103.09375,"x_max":1098.71875,"ha":1202,"o":"m 242 733 q 166 544 193 642 q 139 339 139 446 q 196 114 139 206 q 365 22 253 22 q 520 92 462 22 q 581 312 578 163 l 581 330 l 581 522 l 619 522 l 619 330 q 619 320 619 326 q 619 312 619 314 q 680 92 622 163 q 836 22 738 22 q 1005 114 947 22 q 1062 339 1062 206 q 1034 543 1062 446 q 959 733 1007 641 l 1004 733 q 1074 549 1050 632 q 1098 341 1098 466 q 1029 84 1098 182 q 836 -14 960 -14 q 687 31 748 -14 q 600 172 626 77 q 512 31 573 77 q 364 -14 451 -14 q 171 84 240 -14 q 103 341 103 182 q 127 550 103 467 q 197 733 151 634 l 242 733 m 594 958 l 666 958 l 594 835 l 572 835 l 594 958 "},"˘":{"x_min":103.546875,"x_max":473.546875,"ha":581,"o":"m 472 987 l 473 983 q 425 865 476 910 q 288 819 375 819 q 150 865 201 819 q 103 983 100 910 l 105 987 l 136 987 q 172 893 136 929 q 288 857 209 857 q 402 893 364 857 q 440 987 440 930 l 472 987 "},"҃":{"x_min":46.125,"x_max":409.640625,"ha":449,"o":"m 85 923 l 85 841 l 46 841 l 46 959 l 372 959 l 372 1032 l 409 1032 l 409 923 l 85 923 "},"D":{"x_min":135.640625,"x_max":836.921875,"ha":929,"o":"m 135 0 l 135 987 l 429 987 q 718 865 599 987 q 836 554 836 743 l 836 433 q 718 121 836 243 q 429 0 599 0 l 135 0 m 172 950 l 172 36 l 429 36 q 691 149 583 36 q 800 433 800 261 l 800 556 q 691 838 800 725 q 429 950 583 950 l 172 950 "},"ł":{"x_min":11.53125,"x_max":330.296875,"ha":343,"o":"m 193 576 l 330 630 l 330 590 l 193 536 l 193 0 l 157 0 l 157 521 l 11 463 l 11 503 l 157 561 l 157 1058 l 193 1058 l 193 576 "},"ĺ":{"x_min":113.703125,"x_max":317.171875,"ha":286,"o":"m 162 0 l 125 0 l 125 1058 l 162 1058 l 162 0 m 262 1270 l 315 1270 l 317 1267 l 160 1090 l 115 1090 l 113 1093 l 262 1270 "},"ӳ":{"x_min":29.15625,"x_max":640.25,"ha":663,"o":"m 310 132 l 337 59 l 341 59 l 345 70 l 599 733 l 640 733 l 314 -122 q 244 -247 284 -199 q 118 -296 204 -296 q 89 -294 105 -296 q 66 -288 73 -291 l 72 -254 q 94 -258 80 -256 q 118 -260 109 -260 q 215 -223 180 -260 q 277 -115 250 -187 l 321 4 l 29 733 l 69 733 l 310 132 m 576 1033 l 625 1033 l 626 1029 l 428 853 l 384 853 l 383 857 l 576 1033 m 393 1033 l 439 1033 l 441 1029 l 273 853 l 231 853 l 230 856 l 393 1033 "},"ц":{"x_min":116.65625,"x_max":681.609375,"ha":760,"o":"m 116 733 l 153 733 l 153 36 l 607 36 l 607 733 l 644 733 l 644 0 l 116 0 l 116 733 m 681 -236 l 644 -236 l 644 36 l 681 36 l 681 -236 "},"Л":{"x_min":23.0625,"x_max":836.25,"ha":969,"o":"m 836 987 l 836 0 l 799 0 l 799 950 l 318 950 l 293 557 q 228 118 276 237 q 44 0 180 0 l 23 0 l 23 36 l 46 36 q 196 140 153 36 q 256 557 240 243 l 284 987 l 836 987 "},"$":{"x_min":86.015625,"x_max":678.90625,"ha":760,"o":"m 642 233 q 588 372 642 321 q 390 476 535 423 q 179 581 244 524 q 113 752 113 639 q 184 928 113 861 q 375 1001 255 996 l 375 1127 l 413 1127 l 413 1001 q 603 919 535 994 q 670 713 672 844 l 668 710 l 636 710 q 572 894 636 822 q 392 965 507 965 q 212 903 274 965 q 150 754 150 841 q 200 613 150 665 q 402 511 250 560 q 611 404 544 461 q 678 234 678 346 q 608 59 678 125 q 420 -13 537 -6 l 420 -141 l 383 -141 l 383 -14 q 168 59 255 -10 q 86 273 82 128 l 87 277 l 118 277 q 201 82 118 142 q 397 21 283 21 q 575 84 507 21 q 642 233 642 146 "},"w":{"x_min":56.296875,"x_max":987.5,"ha":1051,"o":"m 248 212 l 286 61 l 290 61 l 338 212 l 503 733 l 540 733 l 704 212 l 752 61 l 756 61 l 795 212 l 944 733 l 987 733 l 773 0 l 737 0 l 553 551 l 522 665 l 518 665 l 486 551 l 305 0 l 269 0 l 56 733 l 98 733 l 248 212 "},"Ԅ":{"x_min":33.234375,"x_max":993.0625,"ha":1093,"o":"m 514 265 q 461 426 514 367 q 301 484 408 484 l 172 484 l 172 522 l 305 522 q 505 579 436 522 q 573 750 573 636 q 501 897 573 845 q 276 950 429 950 l 33 950 l 33 987 l 276 987 q 524 926 438 987 q 610 748 610 865 q 555 582 610 651 q 400 495 499 513 q 515 416 480 475 q 550 266 550 357 l 550 206 q 592 73 550 124 q 705 22 634 22 q 886 124 819 23 q 956 358 953 224 q 944 486 956 420 q 908 632 931 553 l 946 632 q 982 482 969 543 q 992 358 994 420 q 910 91 990 196 q 705 -14 830 -14 q 566 36 616 -16 q 514 206 517 90 l 514 265 "},"о":{"x_min":59,"x_max":701.28125,"ha":760,"o":"m 59 381 q 148 644 59 542 q 379 747 237 747 q 612 644 522 747 q 701 381 701 542 l 701 352 q 612 88 701 190 q 381 -14 522 -14 q 148 88 238 -14 q 59 352 59 190 l 59 381 m 95 352 q 172 118 95 214 q 381 22 250 22 q 587 118 510 22 q 664 352 664 215 l 664 381 q 586 613 664 516 q 379 710 508 710 q 172 613 250 710 q 95 381 95 516 l 95 352 "},"Д":{"x_min":35.953125,"x_max":916.953125,"ha":966,"o":"m 835 36 l 916 36 l 916 -236 l 879 -236 l 879 0 l 73 0 l 73 -236 l 36 -236 l 36 0 l 35 0 l 35 36 l 59 36 q 228 199 158 36 q 319 672 299 362 l 347 987 l 835 987 l 835 36 m 356 672 q 289 264 339 429 q 159 36 240 99 l 798 36 l 798 950 l 380 950 l 356 672 "},"Ç":{"x_min":97.671875,"x_max":796.3125,"ha":900,"o":"m 794 302 l 796 298 q 704 66 798 146 q 455 -14 609 -14 q 195 105 293 -14 q 97 419 97 225 l 97 567 q 195 881 97 761 q 455 1001 293 1001 q 704 921 609 1001 q 796 690 798 840 l 794 686 l 763 686 q 680 892 763 819 q 455 965 597 965 q 222 855 310 965 q 134 569 134 746 l 134 419 q 222 131 134 240 q 455 22 310 22 q 680 92 597 22 q 763 302 763 162 l 794 302 m 460 -6 l 452 -57 q 550 -88 514 -62 q 586 -172 586 -114 q 532 -266 586 -231 q 379 -301 479 -301 l 374 -267 q 497 -243 445 -267 q 549 -172 549 -218 q 518 -111 549 -128 q 407 -88 487 -94 l 424 -6 l 460 -6 "},"Ŝ":{"x_min":60.25,"x_max":756.21875,"ha":829,"o":"m 718 232 q 649 369 718 317 q 412 476 579 421 q 166 583 245 526 q 87 752 87 640 q 180 932 87 864 q 415 1001 272 1001 q 652 925 562 1001 q 739 713 742 849 l 738 709 l 707 709 q 626 892 707 819 q 415 965 544 965 q 202 902 281 965 q 124 754 124 839 q 187 615 124 668 q 423 511 250 562 q 674 401 592 458 q 756 233 756 344 q 659 53 756 121 q 419 -14 562 -14 q 164 55 271 -14 q 60 274 56 124 l 61 278 l 92 278 q 191 83 92 143 q 419 22 290 22 q 634 82 549 22 q 718 232 718 142 m 591 1108 l 591 1100 l 544 1100 l 418 1226 l 294 1100 l 250 1100 l 250 1111 l 392 1251 l 446 1251 l 591 1108 "},"Ӛ":{"x_min":78.671875,"x_max":913.5625,"ha":988,"o":"m 466 1001 q 795 885 678 1001 q 913 579 913 769 l 913 463 q 795 119 913 252 q 497 -14 677 -14 q 192 97 306 -14 q 78 398 78 208 l 78 455 l 876 455 l 876 463 l 876 579 q 774 857 876 750 q 466 965 671 965 q 293 937 370 965 q 158 860 215 909 l 137 889 q 272 971 197 940 q 466 1001 347 1001 m 497 22 q 760 133 659 22 q 871 413 861 244 l 869 417 l 115 417 l 115 396 q 217 128 115 233 q 497 22 318 22 m 681 1103 l 588 1103 l 588 1183 l 681 1183 l 681 1103 m 363 1103 l 270 1103 l 270 1183 l 363 1183 l 363 1103 "},"ӣ":{"x_min":116.65625,"x_max":644.3125,"ha":760,"o":"m 607 733 l 644 733 l 644 0 l 607 0 l 607 661 l 602 663 l 153 0 l 116 0 l 116 733 l 153 733 l 153 71 l 157 70 l 607 733 m 583 943 l 158 943 l 158 979 l 583 979 l 583 943 "},"C":{"x_min":97.671875,"x_max":796.3125,"ha":900,"o":"m 794 302 l 796 298 q 704 66 798 146 q 455 -14 609 -14 q 195 105 293 -14 q 97 419 97 225 l 97 567 q 195 881 97 761 q 455 1001 293 1001 q 704 921 609 1001 q 796 690 798 840 l 794 686 l 763 686 q 680 892 763 819 q 455 965 597 965 q 222 855 310 965 q 134 569 134 746 l 134 419 q 222 131 134 240 q 455 22 310 22 q 680 92 597 22 q 763 302 763 162 l 794 302 "},"Ӂ":{"x_min":22.375,"x_max":1072.953125,"ha":1095,"o":"m 634 488 l 566 488 l 566 0 l 529 0 l 529 488 l 459 488 l 68 0 l 24 0 l 22 3 l 421 499 l 43 987 l 91 987 l 450 524 l 529 524 l 529 987 l 566 987 l 566 524 l 644 524 l 1003 987 l 1051 987 l 673 499 l 1072 3 l 1070 0 l 1026 0 l 634 488 m 755 1247 l 756 1243 q 708 1125 759 1170 q 571 1079 658 1079 q 433 1125 484 1079 q 386 1243 383 1170 l 388 1247 l 419 1247 q 455 1153 419 1189 q 571 1117 492 1117 q 685 1153 647 1117 q 723 1247 723 1190 l 755 1247 "},"Ḁ":{"x_min":23.0625,"x_max":806.40625,"ha":829,"o":"m 655 295 l 173 295 l 63 0 l 23 0 l 392 987 l 436 987 l 806 0 l 766 0 l 655 295 m 187 331 l 642 331 l 435 884 l 416 942 l 412 942 l 394 884 l 187 331 m 339 -143 q 366 -86 339 -110 q 432 -62 394 -62 q 495 -86 468 -62 q 522 -143 522 -110 q 495 -199 522 -176 q 432 -222 469 -222 q 366 -199 394 -222 q 339 -143 339 -176 m 378 -143 q 394 -172 378 -160 q 432 -184 409 -184 q 468 -172 453 -184 q 483 -143 483 -161 q 468 -113 483 -125 q 432 -101 453 -101 q 394 -113 409 -101 q 378 -143 378 -125 "},"̉":{"x_min":-437.453125,"x_max":-239.40625,"ha":0,"o":"m -405 832 l -405 899 q -307 922 -337 904 q -277 976 -277 939 q -324 1033 -277 1015 q -437 1051 -372 1051 l -432 1084 q -292 1055 -346 1084 q -239 976 -239 1026 q -275 898 -239 925 q -373 868 -311 872 l -373 832 l -405 832 "},"Ĵ":{"x_min":62.9375,"x_max":781.921875,"ha":761,"o":"m 592 987 l 628 987 l 628 286 q 551 67 628 148 q 352 -14 474 -14 q 138 57 216 -14 q 63 267 59 129 l 64 271 l 95 271 q 160 83 95 143 q 352 22 225 22 q 523 93 455 22 q 592 286 592 164 l 592 987 m 781 1073 l 781 1065 l 734 1065 l 608 1191 l 484 1065 l 440 1065 l 440 1076 l 582 1216 l 636 1216 l 781 1073 "},"Ẻ":{"x_min":135.640625,"x_max":716.203125,"ha":766,"o":"m 647 496 l 172 496 l 172 36 l 716 36 l 716 0 l 135 0 l 135 987 l 716 987 l 716 950 l 172 950 l 172 533 l 647 533 l 647 496 m 403 1076 l 403 1143 q 501 1166 471 1148 q 531 1220 531 1183 q 484 1277 531 1259 q 371 1295 436 1295 l 376 1328 q 516 1299 462 1328 q 569 1220 569 1270 q 533 1142 569 1169 q 435 1112 497 1116 l 435 1076 l 403 1076 "},"Ҕ":{"x_min":130.890625,"x_max":715.53125,"ha":760,"o":"m 715 950 l 167 950 l 167 566 l 320 566 q 577 494 481 566 q 672 264 672 421 q 616 92 674 178 q 425 -17 557 7 l 415 10 q 582 106 532 33 q 636 264 633 179 q 552 464 640 399 q 320 530 463 530 l 167 530 l 167 0 l 130 0 l 130 987 l 715 987 l 715 950 "},"È":{"x_min":135.640625,"x_max":716.203125,"ha":766,"o":"m 647 496 l 172 496 l 172 36 l 716 36 l 716 0 l 135 0 l 135 987 l 716 987 l 716 950 l 172 950 l 172 533 l 647 533 l 647 496 m 456 1091 l 455 1088 l 404 1088 l 245 1265 l 247 1268 l 307 1268 l 456 1091 "},"ﬁ":{"x_min":44.765625,"x_max":599.546875,"ha":724,"o":"m 172 0 l 172 696 l 44 696 l 44 733 l 172 733 l 172 841 q 230 1011 172 951 q 391 1072 288 1072 q 482 1063 436 1072 q 573 1033 529 1053 l 567 998 q 485 1026 522 1018 q 392 1035 447 1035 q 257 984 306 1035 q 208 841 208 932 l 208 733 l 402 733 l 402 696 l 208 696 l 208 0 l 172 0 m 599 0 l 562 0 l 562 733 l 599 733 l 599 0 "},"X":{"x_min":35.953125,"x_max":792.84375,"ha":829,"o":"m 413 532 l 733 987 l 778 987 l 437 503 l 792 0 l 747 0 l 413 475 l 80 0 l 35 0 l 391 503 l 49 987 l 95 987 l 413 532 "},"ô":{"x_min":59,"x_max":701.28125,"ha":760,"o":"m 59 381 q 148 644 59 542 q 379 747 237 747 q 612 644 522 747 q 701 381 701 542 l 701 352 q 612 88 701 190 q 381 -14 522 -14 q 148 88 238 -14 q 59 352 59 190 l 59 381 m 95 352 q 172 118 95 214 q 381 22 250 22 q 587 118 510 22 q 664 352 664 215 l 664 381 q 586 613 664 516 q 379 710 508 710 q 172 613 250 710 q 95 381 95 516 l 95 352 m 566 875 l 566 867 l 519 867 l 393 993 l 269 867 l 225 867 l 225 878 l 367 1018 l 421 1018 l 566 875 "},"ҝ":{"x_min":115.96875,"x_max":680.9375,"ha":709,"o":"m 637 733 l 398 374 l 680 0 l 625 0 l 362 358 l 307 358 l 307 169 l 269 169 l 269 358 l 153 358 l 153 0 l 115 0 l 115 733 l 153 733 l 153 394 l 269 394 l 269 576 l 307 576 l 307 394 l 368 394 l 584 733 l 637 733 "},"Ė":{"x_min":135.640625,"x_max":716.203125,"ha":766,"o":"m 647 496 l 172 496 l 172 36 l 716 36 l 716 0 l 135 0 l 135 987 l 716 987 l 716 950 l 172 950 l 172 533 l 647 533 l 647 496 m 450 1130 l 386 1130 l 386 1224 l 450 1224 l 450 1130 "},"г":{"x_min":116.65625,"x_max":557.5,"ha":588,"o":"m 557 696 l 153 696 l 153 0 l 116 0 l 116 733 l 557 733 l 557 696 "},"ấ":{"x_min":62.390625,"x_max":670.5,"ha":733,"o":"m 577 135 q 463 27 539 69 q 281 -14 388 -14 q 120 41 179 -14 q 62 192 62 97 q 149 347 62 284 q 367 409 236 409 l 577 409 l 577 516 q 518 659 577 608 q 353 710 459 710 q 192 662 253 710 q 132 538 132 614 l 101 539 l 100 543 q 166 688 96 628 q 353 747 237 747 q 542 687 471 747 q 613 515 613 628 l 613 147 q 618 72 613 109 q 632 0 622 35 l 592 0 q 580 72 583 48 q 577 124 577 96 l 577 135 m 281 21 q 466 69 390 21 q 577 207 541 118 l 577 372 l 369 372 q 177 319 255 372 q 99 189 99 267 q 148 68 99 115 q 281 21 198 21 m 332 1001 l 386 1001 l 550 854 l 549 850 l 497 850 l 359 976 l 220 850 l 169 850 l 167 854 l 332 1001 m 623 1075 l 668 1075 l 670 1071 l 562 936 l 519 936 l 623 1075 "},"Ŀ":{"x_min":135.640625,"x_max":706.703125,"ha":766,"o":"m 172 36 l 706 36 l 706 0 l 135 0 l 135 987 l 172 987 l 172 36 m 474 465 l 410 465 l 410 559 l 474 559 l 474 465 "},"х":{"x_min":37.296875,"x_max":625.328125,"ha":663,"o":"m 331 408 l 565 733 l 611 733 l 354 376 l 625 0 l 579 0 l 330 344 l 82 0 l 37 0 l 308 376 l 50 733 l 96 733 l 331 408 "},"Ԋ":{"x_min":142.421875,"x_max":1189.0625,"ha":1321,"o":"m 761 987 l 761 233 q 802 74 760 127 q 916 22 843 22 q 1088 112 1027 23 q 1152 358 1149 202 q 1140 487 1152 421 q 1105 631 1127 554 l 1143 632 q 1178 483 1166 545 q 1188 358 1190 420 q 1111 80 1186 175 q 916 -14 1037 -14 q 777 43 826 -16 q 725 233 728 103 l 725 470 l 179 470 l 179 0 l 142 0 l 142 987 l 179 987 l 179 506 l 725 506 l 725 987 l 761 987 "},"ŋ":{"x_min":115.296875,"x_max":647.03125,"ha":760,"o":"m 147 733 l 152 585 q 249 705 186 662 q 406 747 313 747 q 587 671 526 747 q 647 432 647 596 l 647 -60 q 595 -235 647 -173 q 453 -296 544 -296 q 408 -292 429 -296 q 363 -282 387 -289 l 372 -247 q 409 -256 386 -252 q 453 -260 432 -260 q 569 -207 528 -260 q 610 -60 610 -155 l 610 433 q 556 648 610 585 q 407 710 501 710 q 231 643 292 710 q 153 470 170 576 l 153 0 l 116 0 l 116 375 l 115 375 q 115 394 115 385 q 116 418 115 404 l 116 733 l 147 733 "},"Ỵ":{"x_min":24.421875,"x_max":803.6875,"ha":829,"o":"m 395 438 l 413 404 l 431 438 l 758 987 l 803 987 l 432 375 l 432 0 l 395 0 l 395 375 l 24 987 l 69 987 l 395 438 m 442 -193 l 378 -193 l 378 -99 l 442 -99 l 442 -193 "},"Ч":{"x_min":132.25,"x_max":766.390625,"ha":899,"o":"m 766 987 l 766 0 l 729 0 l 729 487 q 590 457 659 467 q 457 446 522 446 q 213 517 295 446 q 132 749 132 588 l 132 987 l 168 987 l 168 749 q 241 546 168 609 q 457 482 313 482 q 592 493 524 482 q 729 523 659 503 l 729 987 l 766 987 "},"\t":{"x_min":0,"x_max":0,"ha":0},"ü":{"x_min":113.9375,"x_max":645.671875,"ha":760,"o":"m 608 128 q 510 23 573 61 q 355 -14 446 -14 q 178 66 242 -14 q 113 315 113 146 l 113 733 l 150 733 l 150 314 q 205 93 150 164 q 354 22 260 22 q 527 76 465 22 q 607 221 588 131 l 607 733 l 644 733 l 644 301 l 645 301 q 644 284 645 293 q 644 265 644 276 l 644 0 l 613 0 l 608 128 m 604 902 l 511 902 l 511 982 l 604 982 l 604 902 m 286 902 l 193 902 l 193 982 l 286 982 l 286 902 "},"ь":{"x_min":122.765625,"x_max":655.84375,"ha":732,"o":"m 159 427 l 393 427 q 586 367 516 427 q 655 213 655 307 q 586 59 655 118 q 393 0 516 0 l 122 0 l 122 733 l 159 733 l 159 427 m 159 390 l 159 36 l 393 36 q 562 87 505 36 q 619 215 619 138 q 562 339 619 288 q 393 390 505 390 l 159 390 "},"Җ":{"x_min":22.375,"x_max":1084.0625,"ha":1095,"o":"m 634 488 l 566 488 l 566 0 l 529 0 l 529 488 l 459 488 l 68 0 l 24 0 l 22 3 l 421 499 l 43 987 l 91 987 l 450 524 l 529 524 l 529 987 l 566 987 l 566 524 l 644 524 l 1003 987 l 1051 987 l 673 499 l 1072 3 l 1070 0 l 1026 0 l 634 488 m 1084 -238 l 1047 -238 l 1047 64 l 1084 64 l 1084 -238 "},"Ҍ":{"x_min":25.765625,"x_max":737.234375,"ha":829,"o":"m 423 780 l 167 780 l 167 548 l 417 548 q 654 472 571 548 q 737 274 737 396 q 654 75 737 151 q 417 0 571 0 l 130 0 l 130 780 l 25 780 l 25 817 l 130 817 l 130 987 l 167 987 l 167 817 l 423 817 l 423 780 m 167 511 l 167 36 l 417 36 q 629 104 558 36 q 699 275 699 172 q 629 442 699 373 q 417 511 558 511 l 167 511 "},"Ÿ":{"x_min":24.421875,"x_max":803.6875,"ha":829,"o":"m 395 438 l 413 404 l 431 438 l 758 987 l 803 987 l 432 375 l 432 0 l 395 0 l 395 375 l 24 987 l 69 987 l 395 438 m 623 1127 l 530 1127 l 530 1207 l 623 1207 l 623 1127 m 305 1127 l 212 1127 l 212 1207 l 305 1207 l 305 1127 "},"€":{"x_min":55.609375,"x_max":653.8125,"ha":719,"o":"m 621 375 l 219 375 l 219 348 q 296 111 219 200 q 504 22 374 22 q 581 28 543 22 q 653 45 619 33 l 653 6 q 580 -8 618 -3 q 504 -14 542 -14 q 271 84 360 -14 q 182 348 182 182 l 182 375 l 55 375 l 55 412 l 182 412 l 182 562 l 55 562 l 55 600 l 182 600 l 182 638 q 270 903 182 804 q 503 1001 359 1001 q 575 996 539 1001 q 653 980 611 990 l 653 941 q 579 958 617 952 q 503 965 541 965 q 295 877 372 965 q 219 640 219 790 l 219 600 l 621 600 l 621 562 l 219 562 l 219 412 l 621 412 l 621 375 "},"ҽ":{"x_min":12.71875,"x_max":746.046875,"ha":816,"o":"m 475 -14 q 256 86 345 -14 q 167 339 167 186 l 167 382 l 167 396 q 51 450 92 404 q 12 574 10 496 l 14 577 l 46 577 q 77 476 46 513 q 170 432 108 439 q 269 659 183 572 q 478 747 355 747 q 673 667 600 747 q 746 447 746 586 l 746 391 l 204 391 l 204 382 l 204 339 q 280 113 204 204 q 475 22 356 22 q 601 46 541 22 q 700 111 662 71 l 720 83 q 620 13 681 40 q 475 -14 559 -14 m 478 710 q 291 631 364 710 q 209 432 219 552 l 211 427 l 709 427 l 709 450 q 647 637 709 563 q 478 710 585 710 "},"в":{"x_min":122.765625,"x_max":682.296875,"ha":760,"o":"m 122 0 l 122 733 l 375 733 q 578 686 505 733 q 650 543 650 638 q 612 436 650 482 q 505 376 573 391 l 505 376 q 631 317 581 368 q 682 198 682 265 q 611 51 682 102 q 421 0 540 0 l 122 0 m 159 353 l 159 36 l 421 36 q 586 78 526 36 q 646 198 646 120 q 585 310 646 267 q 421 353 524 353 l 159 353 m 159 389 l 388 389 q 556 429 498 389 q 613 545 613 468 q 553 659 613 623 q 375 696 493 696 l 159 696 l 159 389 "},"Η":{"x_min":135.640625,"x_max":839.640625,"ha":975,"o":"m 839 0 l 803 0 l 803 471 l 172 471 l 172 0 l 135 0 l 135 987 l 172 987 l 172 507 l 803 507 l 803 987 l 839 987 l 839 0 "},"С":{"x_min":97.671875,"x_max":796.3125,"ha":900,"o":"m 794 302 l 796 298 q 704 66 798 146 q 455 -14 609 -14 q 195 105 293 -14 q 97 419 97 225 l 97 567 q 195 881 97 761 q 455 1001 293 1001 q 704 921 609 1001 q 796 690 798 840 l 794 686 l 763 686 q 680 892 763 819 q 455 965 597 965 q 222 855 310 965 q 134 569 134 746 l 134 419 q 222 131 134 240 q 455 22 310 22 q 680 92 597 22 q 763 302 763 162 l 794 302 "},"ß":{"x_min":111.234375,"x_max":720.265625,"ha":802,"o":"m 147 0 l 111 0 l 111 733 q 171 930 111 861 q 341 999 231 999 q 481 950 424 999 q 539 817 539 900 q 498 679 539 749 q 458 542 458 609 q 589 385 458 481 q 720 187 720 289 q 642 38 720 92 q 471 -14 565 -14 q 349 3 412 -14 q 259 46 286 21 l 276 79 q 359 39 305 56 q 465 21 414 21 q 622 70 560 21 q 683 193 683 118 q 552 364 683 270 q 421 543 421 459 q 460 687 421 615 q 498 819 498 760 q 452 921 498 880 q 347 963 406 963 q 202 903 257 963 q 147 733 147 844 l 147 0 "},"њ":{"x_min":116.65625,"x_max":1140.765625,"ha":1196,"o":"m 153 428 l 607 428 l 607 733 l 644 733 l 644 427 l 878 427 q 1071 367 1001 427 q 1140 213 1140 307 q 1071 59 1140 118 q 878 0 1001 0 l 607 0 l 607 392 l 153 392 l 153 0 l 116 0 l 116 733 l 153 733 l 153 428 m 644 390 l 644 36 l 878 36 q 1047 87 990 36 q 1104 215 1104 138 q 1047 339 1104 288 q 878 390 990 390 l 644 390 "},"Ể":{"x_min":135.640625,"x_max":755.015625,"ha":766,"o":"m 647 496 l 172 496 l 172 36 l 716 36 l 716 0 l 135 0 l 135 987 l 716 987 l 716 950 l 172 950 l 172 533 l 647 533 l 647 496 m 447 1231 l 393 1231 l 229 1084 l 230 1080 l 282 1080 l 419 1206 l 559 1080 l 610 1080 l 611 1084 l 447 1231 m 612 1158 l 612 1221 q 692 1236 670 1225 q 713 1276 713 1247 q 677 1322 713 1308 q 587 1335 641 1335 l 590 1373 q 709 1348 663 1373 q 755 1281 755 1323 q 724 1215 755 1237 q 643 1188 694 1192 l 643 1158 l 612 1158 "},"Ӓ":{"x_min":23.0625,"x_max":806.40625,"ha":829,"o":"m 655 295 l 173 295 l 63 0 l 23 0 l 392 987 l 436 987 l 806 0 l 766 0 l 655 295 m 187 331 l 642 331 l 435 884 l 416 942 l 412 942 l 394 884 l 187 331 m 626 1134 l 533 1134 l 533 1214 l 626 1214 l 626 1134 m 308 1134 l 215 1134 l 215 1214 l 308 1214 l 308 1134 "},"ẳ":{"x_min":62.390625,"x_max":632.78125,"ha":733,"o":"m 577 135 q 463 27 539 69 q 281 -14 388 -14 q 120 41 179 -14 q 62 192 62 97 q 149 347 62 284 q 367 409 236 409 l 577 409 l 577 516 q 518 659 577 608 q 353 710 459 710 q 192 662 253 710 q 132 538 132 614 l 101 539 l 100 543 q 166 688 96 628 q 353 747 237 747 q 542 687 471 747 q 613 515 613 628 l 613 147 q 618 72 613 109 q 632 0 622 35 l 592 0 q 580 72 583 48 q 577 124 577 96 l 577 135 m 281 21 q 466 69 390 21 q 577 207 541 118 l 577 372 l 369 372 q 177 319 255 372 q 99 189 99 267 q 148 68 99 115 q 281 21 198 21 m 501 993 q 464 916 501 946 q 353 886 427 886 q 239 915 275 886 q 203 993 203 945 l 174 993 l 173 989 q 217 892 168 930 q 353 855 267 855 q 487 892 438 855 q 533 989 537 930 l 531 993 l 501 993 m 339 981 l 339 1042 q 433 1061 405 1046 q 462 1110 462 1076 q 416 1159 462 1143 q 308 1175 370 1175 l 313 1204 q 447 1179 396 1204 q 499 1110 499 1154 q 464 1040 499 1064 q 370 1013 428 1017 l 370 981 l 339 981 "},"Ű":{"x_min":125.46875,"x_max":800.296875,"ha":926,"o":"m 800 987 l 800 331 q 706 77 800 168 q 463 -14 611 -14 q 219 77 314 -14 q 125 331 125 169 l 125 987 l 162 987 l 162 331 q 247 106 162 191 q 463 22 332 22 q 678 106 593 22 q 763 331 763 191 l 763 987 l 800 987 m 700 1266 l 749 1266 l 750 1262 l 552 1086 l 508 1086 l 507 1090 l 700 1266 m 517 1266 l 563 1266 l 565 1262 l 397 1086 l 355 1086 l 354 1089 l 517 1266 "},"c":{"x_min":65.78125,"x_max":633.546875,"ha":705,"o":"m 365 22 q 529 73 458 22 q 600 225 600 124 l 632 225 l 633 221 q 554 49 636 113 q 365 -14 472 -14 q 145 86 225 -14 q 65 352 65 187 l 65 381 q 145 646 65 545 q 364 747 224 747 q 557 680 478 747 q 633 492 636 613 l 632 488 l 600 488 q 531 653 600 596 q 364 710 462 710 q 168 618 235 710 q 102 381 102 526 l 102 352 q 168 114 102 206 q 365 22 235 22 "},"¶":{"x_min":67.140625,"x_max":522.234375,"ha":642,"o":"m 485 0 l 485 352 l 400 352 q 154 440 242 352 q 67 670 67 528 q 154 898 67 810 q 400 987 242 987 l 522 987 l 522 0 l 485 0 "},"Ή":{"x_min":13.3125,"x_max":839.640625,"ha":975,"o":"m 839 0 l 803 0 l 803 471 l 172 471 l 172 0 l 135 0 l 135 987 l 172 987 l 172 507 l 803 507 l 803 987 l 839 987 l 839 0 m 35 1029 l 107 1029 l 35 906 l 13 906 l 35 1029 "},"Ὅ":{"x_min":-30.65625,"x_max":834.890625,"ha":925,"o":"m 834 419 q 735 102 834 219 q 463 -14 636 -14 q 189 102 288 -14 q 90 419 90 219 l 90 567 q 188 884 90 767 q 461 1001 287 1001 q 735 884 635 1001 q 834 567 834 767 l 834 419 m 798 569 q 710 857 798 750 q 461 965 623 965 q 214 857 301 965 q 127 569 127 750 l 127 419 q 214 129 127 236 q 463 22 301 22 q 711 129 624 22 q 798 419 798 236 l 798 569 m 113 898 l 182 1110 l 269 1110 l 269 1096 l 141 880 l 113 880 l 113 898 m -30 878 l 35 878 l 35 971 l 91 1110 l 38 1110 l -30 975 l -30 878 "},"Ụ":{"x_min":125.46875,"x_max":800.296875,"ha":926,"o":"m 800 987 l 800 331 q 706 77 800 168 q 463 -14 611 -14 q 219 77 314 -14 q 125 331 125 169 l 125 987 l 162 987 l 162 331 q 247 106 162 191 q 463 22 332 22 q 678 106 593 22 q 763 331 763 191 l 763 987 l 800 987 m 490 -200 l 426 -200 l 426 -106 l 490 -106 l 490 -200 "},"γ":{"x_min":29.15625,"x_max":634.140625,"ha":663,"o":"m 594 733 l 634 733 l 349 3 l 349 -281 l 313 -281 l 313 1 l 29 733 l 68 733 l 295 155 l 329 56 l 333 56 l 368 155 l 594 733 "},"­":{"x_min":67.140625,"x_max":467.296875,"ha":547,"o":"m 467 406 l 67 406 l 67 442 l 467 442 l 467 406 "},"ѫ":{"x_min":113.265625,"x_max":828.78125,"ha":942,"o":"m 732 733 l 773 733 l 522 396 l 552 396 q 757 338 687 396 q 828 152 828 280 l 828 0 l 792 0 l 792 152 q 734 311 792 264 q 552 359 677 359 l 495 359 l 490 352 l 490 0 l 453 0 l 453 353 l 449 359 l 389 359 q 207 311 264 359 q 150 152 150 264 l 150 0 l 113 0 l 113 152 q 184 338 113 280 q 389 396 255 396 l 421 396 l 170 733 l 214 733 l 214 734 l 732 734 l 732 733 m 701 697 l 242 697 l 461 404 l 464 396 l 479 396 l 483 404 l 701 697 "},":":{"x_min":99.328125,"x_max":157.65625,"ha":247,"o":"m 157 0 l 99 0 l 99 88 l 157 88 l 157 0 m 157 644 l 99 644 l 99 732 l 157 732 l 157 644 "},"Ѝ":{"x_min":135.640625,"x_max":847.09375,"ha":983,"o":"m 810 987 l 847 987 l 847 0 l 810 0 l 810 918 l 806 919 l 172 0 l 135 0 l 135 987 l 172 987 l 172 71 l 176 69 l 810 987 m 535 1091 l 534 1088 l 483 1088 l 324 1265 l 326 1268 l 386 1268 l 535 1091 "},"₫":{"x_min":81.328125,"x_max":753.359375,"ha":760,"o":"m 82 367 q 155 644 82 541 q 359 747 229 747 q 507 709 444 747 q 607 604 570 670 l 607 1058 l 644 1058 l 644 507 q 644 505 644 506 q 644 505 644 505 l 644 206 q 644 204 644 204 q 644 202 644 203 l 644 0 l 609 0 l 607 113 q 507 20 571 54 q 358 -14 443 -14 q 155 84 228 -14 q 82 353 82 183 l 82 367 m 120 353 q 180 111 120 201 q 357 22 240 22 q 516 65 453 22 q 607 180 579 108 l 607 527 q 521 658 580 605 q 358 710 463 710 q 181 615 242 710 q 120 367 120 520 l 120 353 m 753 869 l 355 869 l 355 905 l 753 905 l 753 869 m 655 -142 l 81 -142 l 81 -106 l 655 -106 l 655 -142 "},"ś":{"x_min":75.671875,"x_max":602.9375,"ha":691,"o":"m 566 179 q 516 285 566 238 q 342 360 466 333 q 152 432 211 388 q 94 562 94 476 q 160 694 94 640 q 339 747 227 747 q 531 690 461 747 q 597 541 600 633 l 596 537 l 564 537 q 504 660 564 609 q 339 710 443 710 q 183 666 236 710 q 130 563 130 621 q 175 465 130 505 q 353 394 220 424 q 539 316 476 365 q 602 179 602 267 q 532 39 602 92 q 345 -14 461 -14 q 144 43 217 -14 q 75 182 71 100 l 77 186 l 107 186 q 181 61 112 99 q 345 22 250 22 q 506 69 446 22 q 566 179 566 117 m 461 1044 l 514 1044 l 516 1041 l 359 864 l 314 864 l 312 867 l 461 1044 "},"ӄ":{"x_min":115.96875,"x_max":648.4375,"ha":709,"o":"m 326 395 q 561 315 474 388 q 648 92 648 242 q 591 -78 650 6 q 401 -189 533 -164 l 389 -161 q 558 -65 507 -137 q 611 92 609 7 q 527 293 615 227 q 295 359 439 359 l 293 359 l 292 358 l 153 358 l 153 0 l 115 0 l 115 733 l 153 733 l 153 396 l 275 396 l 585 733 l 633 733 l 634 730 l 326 395 "}," ":{"x_min":0,"x_max":0,"ha":332},"У":{"x_min":29.15625,"x_max":855.234375,"ha":914,"o":"m 416 377 l 453 309 l 467 336 l 810 987 l 855 987 l 428 174 q 333 41 388 96 q 182 -14 278 -14 q 105 -4 148 -14 q 42 21 61 6 l 52 56 q 113 31 76 41 q 185 22 151 22 q 303 65 254 22 q 388 180 352 107 l 432 267 l 29 987 l 74 987 l 416 377 "},"ү":{"x_min":29.15625,"x_max":634.140625,"ha":663,"o":"m 594 733 l 634 733 l 349 3 l 349 -281 l 313 -281 l 313 1 l 29 733 l 68 733 l 295 155 l 329 56 l 333 56 l 368 155 l 594 733 "},"¾":{"x_min":109.296875,"x_max":1124.0625,"ha":1121,"o":"m 398 93 l 368 114 l 850 886 l 880 865 l 398 93 m 1004 163 l 1124 163 l 1124 126 l 1004 126 l 1004 0 l 967 0 l 967 126 l 667 126 l 667 150 l 962 543 l 1004 543 l 1004 163 m 723 163 l 967 163 l 967 489 l 963 491 l 938 450 l 723 163 m 297 748 q 404 775 369 748 q 438 854 438 803 q 402 934 438 904 q 296 965 367 965 q 192 934 234 965 q 151 853 151 903 l 120 853 l 118 857 q 167 962 114 921 q 296 1002 219 1002 q 427 963 379 1002 q 475 852 475 924 q 451 778 475 811 q 382 730 426 746 q 459 682 433 715 q 485 599 485 650 q 432 485 485 526 q 296 444 380 444 q 162 484 218 444 q 109 598 106 523 l 110 602 l 143 602 q 185 515 143 549 q 296 481 228 481 q 407 512 368 481 q 447 597 447 543 q 409 683 447 656 q 297 710 371 710 l 220 710 l 220 748 l 297 748 "},"Ί":{"x_min":9.3125,"x_max":199.390625,"ha":362,"o":"m 199 0 l 162 0 l 162 987 l 199 987 l 199 0 m 31 1025 l 103 1025 l 31 902 l 9 902 l 31 1025 "},"ŉ":{"x_min":-2.3125,"x_max":647.03125,"ha":760,"o":"m 147 733 l 152 585 q 250 705 186 662 q 406 747 314 747 q 587 671 526 747 q 647 432 647 596 l 647 0 l 610 0 l 610 433 q 555 648 610 585 q 407 710 501 710 q 231 643 292 710 q 153 470 170 576 l 153 0 l 116 0 l 116 375 l 114 375 q 114 401 114 388 q 116 428 115 415 l 116 733 l 147 733 m 64 983 l 31 857 l -2 857 l 28 980 l 28 1054 l 64 1054 l 64 983 "},"Ѭ":{"x_min":160.0625,"x_max":1322.53125,"ha":1437,"o":"m 766 470 l 162 470 l 162 506 l 766 506 l 766 470 m 196 0 l 160 0 l 160 987 l 196 987 l 196 0 m 1218 987 l 1256 987 l 935 507 l 1047 507 q 1252 449 1181 507 q 1322 263 1322 391 l 1322 0 l 1285 0 l 1285 263 q 1228 423 1285 376 q 1047 471 1171 471 l 913 471 l 913 0 l 876 0 l 876 471 l 745 471 q 563 423 620 471 q 506 263 506 376 l 506 0 l 469 0 l 469 263 q 540 449 469 391 q 745 507 611 507 l 854 507 l 533 987 l 569 987 l 569 988 l 1218 988 l 1218 987 m 1188 951 l 600 951 l 876 531 l 891 507 l 898 507 l 912 531 l 1188 951 "},"Ģ":{"x_min":113.9375,"x_max":831.5,"ha":969,"o":"m 831 132 q 711 32 800 80 q 494 -14 623 -14 q 219 106 324 -14 q 113 420 113 227 l 113 581 q 216 884 113 767 q 482 1001 318 1001 q 734 920 640 1001 q 825 711 828 838 l 824 707 l 793 707 q 712 892 793 820 q 482 965 631 965 q 241 858 333 965 q 150 583 150 751 l 150 420 q 244 133 150 244 q 494 22 339 22 q 690 61 613 22 q 794 149 767 99 l 794 430 l 493 430 l 493 467 l 831 467 l 831 132 m 513 -176 l 480 -302 l 446 -302 l 477 -179 l 477 -105 l 513 -105 l 513 -176 "},"m":{"x_min":109.1875,"x_max":1134.671875,"ha":1245,"o":"m 142 733 l 147 585 q 242 705 181 662 q 393 747 304 747 q 545 700 486 747 q 628 554 604 653 q 724 696 658 645 q 887 748 789 748 q 1071 668 1008 748 q 1134 419 1134 589 l 1134 0 l 1097 0 l 1097 420 q 1040 645 1097 579 q 888 711 983 711 q 715 644 775 711 q 639 472 656 578 q 640 445 640 459 q 641 417 641 431 l 641 0 l 604 0 l 604 375 l 602 375 q 602 401 602 388 q 604 426 602 414 q 545 646 602 582 q 394 710 489 710 q 224 646 282 710 q 147 478 165 581 l 147 0 l 110 0 l 110 375 l 109 375 q 109 394 109 385 q 110 418 109 404 l 110 733 l 142 733 "},"Ị":{"x_min":145.4375,"x_max":209.859375,"ha":362,"o":"m 199 0 l 162 0 l 162 987 l 199 987 l 199 0 m 209 -200 l 145 -200 l 145 -106 l 209 -106 l 209 -200 "},"Ҏ":{"x_min":130.890625,"x_max":758.25,"ha":869,"o":"m 697 332 l 667 311 l 490 571 l 520 592 l 697 332 m 167 423 l 167 0 l 130 0 l 130 987 l 439 987 q 675 910 592 987 q 758 706 758 833 q 675 500 758 577 q 439 423 593 423 l 167 423 m 167 460 l 439 460 q 650 530 579 460 q 721 704 721 600 q 651 881 721 811 q 439 950 580 950 l 167 950 l 167 460 "},"Е":{"x_min":135.640625,"x_max":716.203125,"ha":766,"o":"m 647 496 l 172 496 l 172 36 l 716 36 l 716 0 l 135 0 l 135 987 l 716 987 l 716 950 l 172 950 l 172 533 l 647 533 l 647 496 "},"ž":{"x_min":59,"x_max":630.75,"ha":663,"o":"m 108 36 l 630 36 l 630 0 l 59 0 l 59 29 l 541 696 l 80 696 l 80 733 l 590 733 l 590 701 l 108 36 m 354 879 l 479 1006 l 525 1006 l 525 995 l 381 855 l 327 855 l 182 996 l 182 1006 l 230 1006 l 354 879 "},"ớ":{"x_min":59,"x_max":836.328125,"ha":761,"o":"m 59 381 q 148 644 59 542 q 379 747 237 747 q 508 720 449 747 q 611 646 567 694 q 753 700 704 647 q 802 851 802 753 l 834 851 l 836 848 q 786 680 838 742 q 638 611 733 619 q 684 505 668 564 q 701 381 701 446 l 701 352 q 612 88 701 190 q 381 -14 522 -14 q 148 88 238 -14 q 59 352 59 190 l 59 381 m 95 352 q 172 118 95 214 q 381 22 250 22 q 587 118 510 22 q 664 352 664 215 l 664 381 q 586 613 664 516 q 379 710 508 710 q 172 613 250 710 q 95 381 95 516 l 95 352 m 511 1044 l 564 1044 l 566 1041 l 409 864 l 364 864 l 362 867 l 511 1044 "},"á":{"x_min":62.390625,"x_max":632.78125,"ha":733,"o":"m 577 135 q 463 27 539 69 q 281 -14 388 -14 q 120 41 179 -14 q 62 192 62 97 q 149 347 62 284 q 367 409 236 409 l 577 409 l 577 516 q 518 659 577 608 q 353 710 459 710 q 192 662 253 710 q 132 538 132 614 l 101 539 l 100 543 q 166 688 96 628 q 353 747 237 747 q 542 687 471 747 q 613 515 613 628 l 613 147 q 618 72 613 109 q 632 0 622 35 l 592 0 q 580 72 583 48 q 577 124 577 96 l 577 135 m 281 21 q 466 69 390 21 q 577 207 541 118 l 577 372 l 369 372 q 177 319 255 372 q 99 189 99 267 q 148 68 99 115 q 281 21 198 21 m 479 1045 l 532 1045 l 534 1042 l 377 865 l 332 865 l 330 868 l 479 1045 "},"Ӻ":{"x_min":-74.484375,"x_max":715.53125,"ha":761,"o":"m 715 950 l 167 950 l 167 0 l 130 0 l 130 987 l 715 987 l 715 950 m 393 538 l -4 538 l -4 574 l 393 574 l 393 538 m 194 80 l 194 -60 q 143 -235 194 -173 q 1 -296 93 -296 q -35 -292 -18 -296 q -74 -282 -53 -289 l -65 -247 q -33 -256 -52 -252 q 1 -260 -15 -260 q 117 -208 76 -260 q 158 -60 158 -155 l 158 80 l 194 80 "},"×":{"x_min":66.46875,"x_max":640.25,"ha":713,"o":"m 66 196 l 326 462 l 84 709 l 111 735 l 352 489 l 594 735 l 621 709 l 379 462 l 640 196 l 613 170 l 353 436 l 92 170 l 66 196 "},"Ӱ":{"x_min":29.15625,"x_max":855.234375,"ha":914,"o":"m 416 377 l 453 309 l 467 336 l 810 987 l 855 987 l 428 174 q 333 41 388 96 q 182 -14 278 -14 q 105 -4 148 -14 q 42 21 61 6 l 52 56 q 113 31 76 41 q 185 22 151 22 q 303 65 254 22 q 388 180 352 107 l 432 267 l 29 987 l 74 987 l 416 377 m 649 1134 l 556 1134 l 556 1214 l 649 1214 l 649 1134 m 331 1134 l 238 1134 l 238 1214 l 331 1214 l 331 1134 "},"ӆ":{"x_min":29.84375,"x_max":679.375,"ha":761,"o":"m 644 733 l 644 0 l 607 0 l 607 696 l 243 696 l 243 400 q 199 92 243 184 q 51 0 155 0 l 29 0 l 29 35 l 53 35 q 168 115 130 35 q 206 400 206 194 l 206 733 l 644 733 m 679 -21 l 631 -190 l 597 -190 l 642 -24 l 642 91 l 679 91 l 679 -21 "},"п":{"x_min":116.65625,"x_max":644.3125,"ha":760,"o":"m 644 0 l 607 0 l 607 696 l 153 696 l 153 0 l 116 0 l 116 733 l 644 733 l 644 0 "},"Ǻ":{"x_min":23.0625,"x_max":806.40625,"ha":829,"o":"m 655 295 l 173 295 l 63 0 l 23 0 l 392 987 l 436 987 l 806 0 l 766 0 l 655 295 m 187 331 l 642 331 l 435 884 l 416 942 l 412 942 l 394 884 l 187 331 m 515 1410 l 562 1410 l 564 1407 l 442 1261 l 397 1261 l 515 1410 m 320 1128 q 348 1195 320 1167 q 414 1224 375 1224 q 480 1195 452 1224 q 507 1128 507 1167 q 480 1061 507 1088 q 414 1034 452 1034 q 348 1061 375 1034 q 320 1128 320 1088 m 355 1128 q 372 1085 355 1102 q 414 1068 389 1068 q 456 1085 439 1068 q 473 1128 473 1102 q 456 1172 473 1154 q 414 1189 439 1189 q 372 1172 389 1189 q 355 1128 355 1154 "},"K":{"x_min":135.640625,"x_max":808.4375,"ha":832,"o":"m 296 489 l 172 489 l 172 0 l 135 0 l 135 987 l 172 987 l 172 524 l 306 524 l 712 987 l 755 987 l 756 984 l 337 501 l 808 4 l 806 0 l 763 0 l 296 489 "},"7":{"x_min":59,"x_max":689.75,"ha":760,"o":"m 689 950 q 442 570 541 784 q 343 88 343 356 l 343 0 l 306 0 l 306 88 q 397 552 306 334 q 645 950 488 769 l 59 950 l 59 987 l 689 987 l 689 950 "},"¨":{"x_min":105.125,"x_max":516.125,"ha":614,"o":"m 516 907 l 423 907 l 423 987 l 516 987 l 516 907 m 198 907 l 105 907 l 105 987 l 198 987 l 198 907 "},"Y":{"x_min":24.421875,"x_max":803.6875,"ha":829,"o":"m 395 438 l 413 404 l 431 438 l 758 987 l 803 987 l 432 375 l 432 0 l 395 0 l 395 375 l 24 987 l 69 987 l 395 438 "},"E":{"x_min":135.640625,"x_max":716.203125,"ha":766,"o":"m 647 496 l 172 496 l 172 36 l 716 36 l 716 0 l 135 0 l 135 987 l 716 987 l 716 950 l 172 950 l 172 533 l 647 533 l 647 496 "},"Ô":{"x_min":90.203125,"x_max":834.890625,"ha":925,"o":"m 834 419 q 735 102 834 219 q 463 -14 636 -14 q 189 102 288 -14 q 90 419 90 219 l 90 567 q 188 884 90 767 q 461 1001 287 1001 q 735 884 635 1001 q 834 567 834 767 l 834 419 m 798 569 q 710 857 798 750 q 461 965 623 965 q 214 857 301 965 q 127 569 127 750 l 127 419 q 214 129 127 236 q 463 22 301 22 q 711 129 624 22 q 798 419 798 236 l 798 569 m 630 1108 l 630 1100 l 583 1100 l 457 1226 l 333 1100 l 289 1100 l 289 1111 l 431 1251 l 485 1251 l 630 1108 "},"ổ":{"x_min":59,"x_max":730.015625,"ha":760,"o":"m 59 381 q 148 644 59 542 q 379 747 237 747 q 612 644 522 747 q 701 381 701 542 l 701 352 q 612 88 701 190 q 381 -14 522 -14 q 148 88 238 -14 q 59 352 59 190 l 59 381 m 95 352 q 172 118 95 214 q 381 22 250 22 q 587 118 510 22 q 664 352 664 215 l 664 381 q 586 613 664 516 q 379 710 508 710 q 172 613 250 710 q 95 381 95 516 l 95 352 m 422 1012 l 368 1012 l 204 865 l 205 861 l 257 861 l 394 987 l 534 861 l 585 861 l 586 865 l 422 1012 m 587 939 l 587 1002 q 667 1017 645 1006 q 688 1057 688 1028 q 652 1103 688 1089 q 562 1116 616 1116 l 565 1154 q 684 1129 638 1154 q 730 1062 730 1104 q 699 996 730 1018 q 618 969 669 973 l 618 939 l 587 939 "},"Є":{"x_min":97.671875,"x_max":796.3125,"ha":899,"o":"m 794 303 l 796 299 q 704 66 798 147 q 455 -13 609 -13 q 195 106 293 -13 q 97 420 97 225 l 97 568 q 195 882 97 762 q 455 1002 293 1002 q 704 921 609 1002 q 796 691 798 841 l 794 687 l 763 687 q 680 893 763 820 q 455 965 597 965 q 222 856 310 965 q 134 569 134 747 l 134 519 l 530 519 l 530 482 l 134 482 l 134 420 q 222 131 134 240 q 455 23 310 23 q 680 92 597 23 q 763 303 763 162 l 794 303 "},"Ï":{"x_min":-17.875,"x_max":393.125,"ha":362,"o":"m 199 0 l 162 0 l 162 987 l 199 987 l 199 0 m 393 1134 l 300 1134 l 300 1214 l 393 1214 l 393 1134 m 75 1134 l -17 1134 l -17 1214 l 75 1214 l 75 1134 "},"Ѷ":{"x_min":23.734375,"x_max":892.546875,"ha":836,"o":"m 346 96 l 363 44 l 367 44 l 385 96 l 623 832 q 700 962 651 924 q 822 1001 748 1001 q 859 995 841 1001 q 892 982 876 989 l 876 953 q 852 964 868 959 q 819 969 837 969 q 724 941 765 969 q 653 816 682 912 l 387 0 l 343 0 l 23 987 l 63 987 l 346 96 m 316 1073 l 315 1069 l 270 1069 l 72 1245 l 74 1249 l 123 1249 l 316 1073 m 469 1072 l 468 1069 l 426 1069 l 258 1245 l 260 1249 l 306 1249 l 469 1072 "},"ġ":{"x_min":82.75,"x_max":644.984375,"ha":760,"o":"m 82 367 q 155 644 82 541 q 359 747 229 747 q 507 708 444 747 q 607 602 570 670 l 613 733 l 644 733 l 644 507 q 644 505 644 506 q 644 505 644 505 l 644 206 q 644 204 644 204 q 644 202 644 203 l 644 -4 q 570 -220 644 -143 q 366 -296 497 -296 q 255 -285 313 -296 q 153 -254 197 -274 l 164 -217 q 260 -249 214 -239 q 365 -260 306 -260 q 545 -194 484 -260 q 607 -4 607 -128 l 607 111 q 506 19 569 53 q 358 -14 442 -14 q 155 84 228 -14 q 82 353 82 183 l 82 367 m 120 353 q 180 111 120 201 q 357 22 240 22 q 514 64 451 22 q 607 178 577 107 l 607 529 q 521 658 579 606 q 358 710 462 710 q 181 615 242 710 q 120 367 120 520 l 120 353 m 415 911 l 351 911 l 351 1005 l 415 1005 l 415 911 "},"Ẳ":{"x_min":23.0625,"x_max":806.40625,"ha":829,"o":"m 655 295 l 173 295 l 63 0 l 23 0 l 392 987 l 436 987 l 806 0 l 766 0 l 655 295 m 187 331 l 642 331 l 435 884 l 416 942 l 412 942 l 394 884 l 187 331 m 554 1210 q 517 1133 554 1163 q 406 1103 480 1103 q 292 1132 328 1103 q 256 1210 256 1162 l 227 1210 l 226 1206 q 270 1109 221 1147 q 406 1072 320 1072 q 540 1109 491 1072 q 586 1206 590 1147 l 584 1210 l 554 1210 m 392 1198 l 392 1259 q 486 1278 458 1263 q 515 1327 515 1293 q 469 1376 515 1360 q 361 1392 423 1392 l 366 1421 q 500 1396 449 1421 q 552 1327 552 1371 q 517 1257 552 1281 q 423 1230 481 1234 l 423 1198 l 392 1198 "},"ҕ":{"x_min":116.65625,"x_max":649.796875,"ha":710,"o":"m 557 696 l 153 696 l 153 429 l 297 429 q 554 357 458 429 q 649 127 649 284 q 593 -43 651 41 q 402 -154 534 -128 l 392 -126 q 559 -29 509 -102 q 613 127 610 42 q 529 327 617 262 q 297 393 440 393 l 153 393 l 153 0 l 116 0 l 116 733 l 557 733 l 557 696 "},"ứ":{"x_min":113.9375,"x_max":862.765625,"ha":760,"o":"m 861 861 l 862 857 q 807 677 864 743 q 644 605 749 612 l 644 301 l 645 301 q 644 284 645 293 q 644 265 644 276 l 644 0 l 613 0 l 608 128 q 510 23 573 61 q 355 -14 446 -14 q 178 66 242 -14 q 113 315 113 146 l 113 733 l 150 733 l 150 314 q 205 93 150 164 q 354 22 260 22 q 527 76 465 22 q 607 221 588 131 l 607 733 l 644 733 l 644 648 l 648 647 q 782 706 735 650 q 828 861 828 761 l 861 861 m 510 1030 l 563 1030 l 565 1027 l 408 850 l 363 850 l 361 853 l 510 1030 "},"έ":{"x_min":78.671875,"x_max":670.890625,"ha":761,"o":"m 78 196 q 121 311 78 266 q 247 375 163 357 q 131 441 172 396 q 91 543 91 486 q 166 692 91 640 q 373 744 242 744 q 578 689 495 744 q 658 545 661 634 l 657 541 l 627 541 q 554 662 627 616 q 373 708 481 708 q 189 663 250 708 q 129 545 129 619 q 188 433 129 472 q 375 393 248 393 l 486 393 l 486 356 l 375 356 q 180 317 246 356 q 115 194 115 278 q 182 70 115 114 q 373 25 249 25 q 564 75 491 25 q 638 204 638 125 l 669 204 l 670 200 q 584 43 674 98 q 373 -11 495 -11 q 160 44 241 -11 q 78 196 78 99 m 378 972 l 450 972 l 378 849 l 356 849 l 378 972 "},"Ấ":{"x_min":23.0625,"x_max":806.40625,"ha":829,"o":"m 655 295 l 173 295 l 63 0 l 23 0 l 392 987 l 436 987 l 806 0 l 766 0 l 655 295 m 187 331 l 642 331 l 435 884 l 416 942 l 412 942 l 394 884 l 187 331 m 385 1218 l 439 1218 l 603 1071 l 602 1067 l 550 1067 l 412 1193 l 273 1067 l 222 1067 l 220 1071 l 385 1218 m 676 1292 l 721 1292 l 723 1288 l 615 1153 l 572 1153 l 676 1292 "}," ":{"x_min":0,"x_max":0,"ha":473},"ể":{"x_min":65.78125,"x_max":713.015625,"ha":705,"o":"m 373 -14 q 154 86 244 -14 q 65 339 65 186 l 65 382 q 154 644 65 541 q 377 747 242 747 q 571 667 499 747 q 644 447 644 586 l 644 391 l 102 391 l 102 382 l 102 339 q 178 113 102 204 q 373 22 254 22 q 500 46 439 22 q 598 111 560 71 l 618 83 q 518 13 579 40 q 373 -14 457 -14 m 377 710 q 190 631 263 710 q 107 432 117 552 l 109 427 l 607 427 l 607 450 q 545 637 607 563 q 377 710 484 710 m 405 1013 l 351 1013 l 187 866 l 188 862 l 240 862 l 377 988 l 517 862 l 568 862 l 569 866 l 405 1013 m 570 940 l 570 1003 q 650 1018 628 1007 q 671 1058 671 1029 q 635 1104 671 1090 q 545 1117 599 1117 l 548 1155 q 667 1130 621 1155 q 713 1063 713 1105 q 682 997 713 1019 q 601 970 652 974 l 601 940 l 570 940 "},"ϋ":{"x_min":113.9375,"x_max":657.203125,"ha":760,"o":"m 150 733 l 150 328 q 212 96 150 171 q 381 22 274 22 q 565 111 510 22 q 621 339 621 200 q 600 544 621 446 q 545 733 580 642 l 590 733 q 639 550 622 634 q 657 341 657 467 q 590 81 657 177 q 382 -14 522 -14 q 185 69 256 -14 q 113 330 113 153 l 113 733 l 150 733 m 580 902 l 487 902 l 487 982 l 580 982 l 580 902 m 262 902 l 169 902 l 169 982 l 262 982 l 262 902 "},"җ":{"x_min":31.203125,"x_max":993.0625,"ha":1023,"o":"m 607 358 l 528 358 l 528 0 l 491 0 l 491 358 l 413 358 l 75 0 l 32 0 l 31 3 l 374 374 l 73 730 l 75 733 l 115 733 l 407 394 l 491 394 l 491 733 l 528 733 l 528 394 l 614 394 l 905 733 l 947 733 l 948 730 l 646 374 l 990 4 l 988 0 l 946 0 l 607 358 m 993 -238 l 956 -238 l 956 64 l 993 64 l 993 -238 "},"й":{"x_min":116.65625,"x_max":644.3125,"ha":760,"o":"m 607 733 l 644 733 l 644 0 l 607 0 l 607 661 l 602 663 l 153 0 l 116 0 l 116 733 l 153 733 l 153 71 l 157 70 l 607 733 m 559 1014 l 560 1010 q 512 892 563 937 q 375 846 462 846 q 237 892 288 846 q 190 1010 187 937 l 192 1014 l 223 1014 q 259 920 223 956 q 375 884 296 884 q 489 920 451 884 q 527 1014 527 957 l 559 1014 "},"b":{"x_min":115.296875,"x_max":677.546875,"ha":760,"o":"m 677 353 q 604 84 677 183 q 402 -14 531 -14 q 251 20 316 -14 q 151 113 187 54 l 147 0 l 116 0 l 116 200 q 115 203 115 202 q 115 206 115 204 l 115 505 q 115 506 115 505 q 116 510 115 506 l 116 1058 l 153 1058 l 153 604 q 252 709 189 671 q 400 747 314 747 q 603 644 530 747 q 677 367 677 541 l 677 353 m 639 367 q 578 615 639 520 q 401 710 517 710 q 238 658 297 710 q 153 529 179 606 l 153 178 q 244 64 181 107 q 402 22 307 22 q 579 111 518 22 q 639 353 639 201 l 639 367 "},"̃":{"x_min":-557.140625,"x_max":-123.75,"ha":0,"o":"m -123 998 q -158 907 -123 942 q -243 872 -192 872 q -347 914 -294 872 q -437 956 -400 956 q -496 931 -473 956 q -519 865 -519 906 l -557 872 q -523 960 -557 926 q -437 993 -489 993 q -334 951 -388 993 q -243 909 -279 909 q -185 936 -209 909 q -161 1005 -161 963 l -123 998 "},"ύ":{"x_min":113.9375,"x_max":657.203125,"ha":760,"o":"m 150 733 l 150 328 q 212 96 150 171 q 381 22 274 22 q 565 111 510 22 q 621 339 621 200 q 600 544 621 446 q 545 733 580 642 l 590 733 q 639 550 622 634 q 657 341 657 467 q 590 81 657 177 q 382 -14 522 -14 q 185 69 256 -14 q 113 330 113 153 l 113 733 l 150 733 m 374 958 l 446 958 l 374 835 l 352 835 l 374 958 "},"ﬂ":{"x_min":44.765625,"x_max":599.09375,"ha":724,"o":"m 172 0 l 172 696 l 44 696 l 44 733 l 172 733 l 172 854 q 222 1015 172 958 q 364 1072 273 1072 q 408 1069 386 1072 q 451 1060 430 1066 l 445 1025 q 407 1033 423 1030 q 364 1035 390 1035 q 250 987 291 1035 q 208 854 208 939 l 208 733 l 402 733 l 402 696 l 208 696 l 208 0 l 172 0 m 599 0 l 562 0 l 562 1058 l 599 1058 l 599 0 "},"ԅ":{"x_min":29.84375,"x_max":834.25,"ha":891,"o":"m 461 144 q 489 52 461 83 q 589 22 517 22 q 741 92 688 23 q 797 284 794 160 q 785 392 798 336 q 744 500 771 448 l 788 500 q 823 380 811 429 q 834 284 834 332 q 761 62 831 138 q 589 -14 692 -14 q 467 20 507 -16 q 425 145 427 57 l 425 203 q 377 307 425 269 q 240 347 329 345 l 88 347 l 87 381 l 240 381 q 385 424 331 381 q 438 531 438 467 q 376 651 438 602 q 211 699 314 699 l 33 699 l 29 733 l 211 733 q 405 679 335 733 q 476 531 476 624 q 441 428 476 474 q 345 362 406 382 q 434 303 406 343 q 461 204 461 263 l 461 144 l 461 144 "},"ӏ":{"x_min":162.78125,"x_max":199.390625,"ha":362,"o":"m 199 0 l 162 0 l 162 987 l 199 987 l 199 0 "},"ҋ":{"x_min":116.65625,"x_max":679.375,"ha":760,"o":"m 607 733 l 644 733 l 644 0 l 607 0 l 607 661 l 602 663 l 153 0 l 116 0 l 116 733 l 153 733 l 153 71 l 157 70 l 607 733 m 559 1014 l 560 1010 q 512 892 563 937 q 375 846 462 846 q 237 892 288 846 q 190 1010 187 937 l 192 1014 l 223 1014 q 259 920 223 956 q 375 884 296 884 q 489 920 451 884 q 527 1014 527 957 l 559 1014 m 679 -21 l 631 -190 l 597 -190 l 642 -24 l 642 91 l 679 91 l 679 -21 "},"ф":{"x_min":82.75,"x_max":1167.90625,"ha":1251,"o":"m 82 367 q 155 644 82 541 q 359 747 229 747 q 506 709 444 747 q 607 603 569 670 l 607 1058 l 644 1058 l 644 604 q 742 709 680 671 q 891 747 805 747 q 1094 644 1020 747 q 1167 367 1167 541 l 1167 353 q 1094 84 1167 183 q 892 -14 1021 -14 q 743 20 807 -14 q 644 112 680 54 l 644 -282 l 607 -282 l 607 112 q 506 20 570 54 q 358 -14 442 -14 q 155 84 228 -14 q 82 353 82 183 l 82 367 m 1131 367 q 1069 615 1131 520 q 891 710 1007 710 q 729 658 787 710 q 644 529 670 607 l 644 507 q 644 505 644 506 q 644 505 644 505 l 644 206 q 644 204 644 204 q 644 202 644 203 l 644 178 q 734 64 672 106 q 893 22 797 22 q 1070 111 1009 22 q 1131 353 1131 201 l 1131 367 m 120 353 q 180 111 120 201 q 357 22 240 22 q 516 65 453 22 q 607 180 579 108 l 607 203 q 607 204 607 203 q 607 206 607 205 l 607 505 q 607 506 607 505 q 607 507 607 507 l 607 527 q 521 658 580 605 q 358 710 463 710 q 181 615 242 710 q 120 367 120 520 l 120 353 "},"Ŋ":{"x_min":135.640625,"x_max":847.78125,"ha":983,"o":"m 847 987 l 847 -60 q 796 -235 847 -173 q 654 -296 745 -296 q 616 -292 634 -296 q 578 -282 598 -289 l 587 -247 q 617 -256 599 -252 q 654 -259 636 -259 q 770 -207 729 -259 q 811 -60 811 -155 l 811 0 l 176 919 l 172 918 l 172 0 l 135 0 l 135 987 l 172 987 l 807 68 l 811 69 l 811 987 l 847 987 "},"Ũ":{"x_min":125.46875,"x_max":800.296875,"ha":926,"o":"m 800 987 l 800 331 q 706 77 800 168 q 463 -14 611 -14 q 219 77 314 -14 q 125 331 125 169 l 125 987 l 162 987 l 162 331 q 247 106 162 191 q 463 22 332 22 q 678 106 593 22 q 763 331 763 191 l 763 987 l 800 987 m 674 1221 q 639 1130 674 1165 q 554 1095 605 1095 q 450 1137 503 1095 q 360 1179 397 1179 q 301 1154 324 1179 q 278 1088 278 1129 l 240 1095 q 274 1183 240 1149 q 360 1216 308 1216 q 464 1174 409 1216 q 554 1132 518 1132 q 612 1159 588 1132 q 636 1228 636 1186 l 674 1221 "},"Щ":{"x_min":127.5,"x_max":1268.953125,"ha":1382,"o":"m 164 987 l 164 36 l 661 36 l 661 987 l 699 987 l 699 36 l 1196 36 l 1196 987 l 1233 987 l 1233 57 l 1268 57 l 1268 -238 l 1232 -238 l 1232 0 l 127 0 l 127 987 l 164 987 "},"L":{"x_min":135.640625,"x_max":706.703125,"ha":766,"o":"m 172 36 l 706 36 l 706 0 l 135 0 l 135 987 l 172 987 l 172 36 "},"Ҡ":{"x_min":68.5,"x_max":1108.21875,"ha":1139,"o":"m 596 489 l 472 489 l 472 0 l 435 0 l 435 950 l 68 950 l 68 987 l 472 987 l 472 524 l 606 524 l 1011 987 l 1055 987 l 1056 984 l 636 501 l 1108 4 l 1106 0 l 1063 0 l 596 489 "},"ď":{"x_min":82.75,"x_max":826.828125,"ha":760,"o":"m 82 367 q 155 644 82 541 q 359 747 229 747 q 507 709 444 747 q 607 604 570 670 l 607 1058 l 644 1058 l 644 507 q 644 505 644 506 q 644 505 644 505 l 644 206 q 644 204 644 204 q 644 202 644 203 l 644 0 l 609 0 l 607 113 q 507 20 571 54 q 358 -14 443 -14 q 155 84 228 -14 q 82 353 82 183 l 82 367 m 120 353 q 180 111 120 201 q 357 22 240 22 q 516 65 453 22 q 607 180 579 108 l 607 527 q 521 658 580 605 q 358 710 463 710 q 181 615 242 710 q 120 367 120 520 l 120 353 m 826 985 l 793 859 l 759 859 l 790 982 l 790 1056 l 826 1056 l 826 985 "},"Ο":{"x_min":90.203125,"x_max":834.890625,"ha":925,"o":"m 834 419 q 735 102 834 219 q 463 -14 636 -14 q 189 102 288 -14 q 90 419 90 219 l 90 567 q 188 884 90 767 q 461 1001 287 1001 q 735 884 635 1001 q 834 567 834 767 l 834 419 m 798 569 q 710 857 798 750 q 461 965 623 965 q 214 857 301 965 q 127 569 127 750 l 127 419 q 214 129 127 236 q 463 22 301 22 q 711 129 624 22 q 798 419 798 236 l 798 569 "},"Ĭ":{"x_min":-3.453125,"x_max":366.546875,"ha":362,"o":"m 199 0 l 162 0 l 162 987 l 199 987 l 199 0 m 365 1247 l 366 1243 q 318 1125 369 1170 q 181 1079 268 1079 q 43 1125 94 1079 q -3 1243 -6 1170 l -1 1247 l 29 1247 q 65 1153 29 1189 q 181 1117 102 1117 q 295 1153 257 1117 q 333 1247 333 1190 l 365 1247 "},"ŧ":{"x_min":19.671875,"x_max":419.8125,"ha":429,"o":"m 192 931 l 192 733 l 373 733 l 373 696 l 192 696 l 192 466 l 419 466 l 419 430 l 192 430 l 192 189 q 223 60 192 99 q 303 22 253 22 q 336 23 322 22 q 375 28 350 25 l 382 -4 q 347 -12 365 -10 q 305 -14 328 -14 q 193 33 231 -14 q 155 189 155 82 l 155 430 l 21 430 l 21 466 l 155 466 l 155 696 l 19 696 l 19 733 l 155 733 l 155 931 l 192 931 "},"À":{"x_min":23.0625,"x_max":806.40625,"ha":829,"o":"m 655 295 l 173 295 l 63 0 l 23 0 l 392 987 l 436 987 l 806 0 l 766 0 l 655 295 m 187 331 l 642 331 l 435 884 l 416 942 l 412 942 l 394 884 l 187 331 m 451 1091 l 450 1088 l 399 1088 l 240 1265 l 242 1268 l 302 1268 l 451 1091 "},"Ϊ":{"x_min":-17.875,"x_max":393.125,"ha":362,"o":"m 199 0 l 162 0 l 162 987 l 199 987 l 199 0 m 393 1134 l 300 1134 l 300 1214 l 393 1214 l 393 1134 m 75 1134 l -17 1134 l -17 1214 l 75 1214 l 75 1134 "},"ḁ":{"x_min":62.390625,"x_max":632.78125,"ha":733,"o":"m 577 135 q 463 27 539 69 q 281 -14 388 -14 q 120 41 179 -14 q 62 192 62 97 q 149 347 62 284 q 367 409 236 409 l 577 409 l 577 516 q 518 659 577 608 q 353 710 459 710 q 192 662 253 710 q 132 538 132 614 l 101 539 l 100 543 q 166 688 96 628 q 353 747 237 747 q 542 687 471 747 q 613 515 613 628 l 613 147 q 618 72 613 109 q 632 0 622 35 l 592 0 q 580 72 583 48 q 577 124 577 96 l 577 135 m 281 21 q 466 69 390 21 q 577 207 541 118 l 577 372 l 369 372 q 177 319 255 372 q 99 189 99 267 q 148 68 99 115 q 281 21 198 21 m 250 -143 q 277 -86 250 -110 q 343 -62 305 -62 q 406 -86 379 -62 q 433 -143 433 -110 q 406 -199 433 -176 q 343 -222 380 -222 q 277 -199 305 -222 q 250 -143 250 -176 m 289 -143 q 305 -172 289 -160 q 343 -184 320 -184 q 379 -172 364 -184 q 394 -143 394 -161 q 379 -113 394 -125 q 343 -101 364 -101 q 305 -113 320 -101 q 289 -143 289 -125 "},"½":{"x_min":95.609375,"x_max":981.015625,"ha":981,"o":"m 252 93 l 222 114 l 704 886 l 734 865 l 252 93 m 244 450 l 208 450 l 208 956 l 95 947 l 95 985 l 244 1000 l 244 450 m 981 0 l 607 0 l 607 37 l 829 240 q 906 329 885 295 q 928 398 928 364 q 895 482 928 451 q 797 513 863 513 q 689 478 727 513 q 651 389 651 444 l 618 389 l 616 394 q 663 504 613 458 q 797 550 713 550 q 920 511 875 550 q 966 398 966 472 q 932 305 966 350 q 837 200 898 260 l 657 41 l 658 37 l 981 37 l 981 0 "},"ԍ":{"x_min":90.875,"x_max":651.765625,"ha":707,"o":"m 398 22 q 562 73 512 23 q 615 204 613 122 q 610 285 615 244 q 596 364 605 326 l 633 364 q 647 279 642 318 q 651 204 651 240 q 579 41 649 96 q 398 -14 510 -14 q 173 91 255 -14 q 90 352 90 198 l 90 381 q 169 640 90 534 q 384 747 248 747 q 490 737 446 747 q 561 707 534 727 l 545 674 q 473 701 514 691 q 384 710 432 710 q 192 612 257 710 q 127 381 127 514 l 127 352 q 198 121 127 220 q 398 22 269 22 "},"'":{"x_min":105.796875,"x_max":173.625,"ha":275,"o":"m 173 872 l 139 690 l 105 690 l 136 871 l 136 987 l 173 987 l 173 872 "},"ĳ":{"x_min":125.46875,"x_max":448.78125,"ha":588,"o":"m 162 0 l 125 0 l 125 733 l 162 733 l 162 0 m 162 964 l 125 964 l 125 1058 l 162 1058 l 162 964 m 448 733 l 448 -60 q 397 -235 448 -173 q 255 -296 347 -296 q 218 -292 235 -296 q 179 -282 200 -289 l 188 -247 q 219 -255 201 -251 q 255 -259 238 -259 q 371 -207 330 -259 q 412 -60 412 -155 l 412 733 l 448 733 m 444 967 l 408 967 l 408 1058 l 444 1058 l 444 967 "},"Ҽ":{"x_min":10.03125,"x_max":1003.09375,"ha":1167,"o":"m 628 -15 q 319 100 429 -15 q 209 406 209 215 l 209 522 l 209 531 q 60 591 112 537 q 10 737 7 644 l 12 741 l 44 741 q 86 618 44 663 q 210 567 128 573 q 335 879 223 759 q 611 1000 446 1000 q 896 888 789 1000 q 1003 587 1003 776 l 1003 531 l 246 531 l 246 522 l 246 406 q 341 128 246 235 q 628 21 437 21 q 801 48 723 21 q 937 125 878 75 l 957 96 q 822 14 897 44 q 628 -15 746 -15 m 611 963 q 357 851 455 963 q 250 571 260 740 l 252 568 l 966 568 l 966 589 q 871 857 966 751 q 611 963 776 963 "},"Р":{"x_min":135.640625,"x_max":763,"ha":834,"o":"m 172 423 l 172 0 l 135 0 l 135 987 l 444 987 q 680 910 597 987 q 763 706 763 833 q 680 500 763 577 q 444 423 598 423 l 172 423 m 172 460 l 444 460 q 655 530 584 460 q 726 704 726 600 q 655 881 726 811 q 444 950 585 950 l 172 950 l 172 460 "},"˛":{"x_min":75.28125,"x_max":254.328125,"ha":319,"o":"m 212 0 q 136 -79 160 -46 q 111 -151 111 -111 q 122 -186 111 -166 q 168 -205 133 -205 q 209 -198 192 -205 q 243 -179 226 -191 l 254 -212 q 217 -233 238 -224 q 168 -242 196 -242 q 101 -218 127 -242 q 75 -151 75 -193 q 103 -67 75 -109 q 177 13 132 -25 l 212 0 "},"Ѿ":{"x_min":73.25,"x_max":1254.71875,"ha":1321,"o":"m 470 1156 l 470 1086 l 434 1086 l 433 1194 l 907 1194 l 907 1086 l 870 1086 l 870 1156 l 683 1156 l 683 1086 l 647 1086 l 647 1156 l 470 1156 m 737 927 q 826 954 775 944 q 940 965 877 965 q 1141 858 1064 965 q 1218 583 1218 751 l 1218 420 q 1138 133 1218 244 q 928 22 1059 22 q 767 52 831 22 q 682 122 704 83 l 682 430 l 889 430 l 889 467 l 438 467 l 438 430 l 645 430 l 645 122 q 559 52 623 83 q 399 22 495 22 q 188 133 267 22 q 109 420 109 244 l 109 583 q 186 858 109 751 q 387 965 262 965 q 500 954 449 965 q 590 927 551 944 l 600 962 q 503 991 557 981 q 387 1001 450 1001 q 160 884 248 1001 q 73 581 73 767 l 73 420 q 163 106 73 227 q 399 -14 254 -14 q 559 13 491 -14 q 663 81 627 42 q 767 13 699 42 q 928 -14 834 -14 q 1163 106 1072 -14 q 1254 420 1254 227 l 1254 581 q 1166 884 1254 767 q 940 1001 1079 1001 q 823 991 876 1001 q 727 962 769 981 l 737 927 "},"Ć":{"x_min":97.671875,"x_max":796.3125,"ha":900,"o":"m 794 302 l 796 298 q 704 66 798 146 q 455 -14 609 -14 q 195 105 293 -14 q 97 419 97 225 l 97 567 q 195 881 97 761 q 455 1001 293 1001 q 704 921 609 1001 q 796 690 798 840 l 794 686 l 763 686 q 680 892 763 819 q 455 965 597 965 q 222 855 310 965 q 134 569 134 746 l 134 419 q 222 131 134 240 q 455 22 310 22 q 680 92 597 22 q 763 302 763 162 l 794 302 m 576 1277 l 629 1277 l 631 1274 l 474 1097 l 429 1097 l 427 1100 l 576 1277 "},"Т":{"x_min":38.65625,"x_max":791.484375,"ha":830,"o":"m 791 950 l 445 950 l 445 0 l 408 0 l 408 950 l 38 950 l 38 987 l 791 987 l 791 950 "},"£":{"x_min":44.078125,"x_max":706.03125,"ha":780,"o":"m 245 452 l 250 316 q 226 156 250 231 q 157 36 202 81 l 705 36 l 706 0 l 87 0 l 87 36 l 94 36 q 184 135 154 47 q 214 316 214 223 l 208 452 l 44 452 l 44 489 l 207 489 l 200 705 q 268 922 200 843 q 451 1001 337 1001 q 625 932 570 1001 q 678 742 680 863 l 676 739 l 644 739 q 595 911 644 858 q 451 965 545 965 q 294 897 352 965 q 236 705 236 829 l 244 489 l 568 489 l 568 452 l 245 452 "},"ẹ":{"x_min":65.78125,"x_max":644.3125,"ha":705,"o":"m 373 -14 q 154 86 244 -14 q 65 339 65 186 l 65 382 q 154 644 65 541 q 377 747 242 747 q 571 667 499 747 q 644 447 644 586 l 644 391 l 102 391 l 102 382 l 102 339 q 178 113 102 204 q 373 22 254 22 q 500 46 439 22 q 598 111 560 71 l 618 83 q 518 13 579 40 q 373 -14 457 -14 m 377 710 q 190 631 263 710 q 107 432 117 552 l 109 427 l 607 427 l 607 450 q 545 637 607 563 q 377 710 484 710 m 403 -197 l 339 -197 l 339 -103 l 403 -103 l 403 -197 "},"ů":{"x_min":113.9375,"x_max":645.671875,"ha":760,"o":"m 608 128 q 510 23 573 61 q 355 -14 446 -14 q 178 66 242 -14 q 113 315 113 146 l 113 733 l 150 733 l 150 314 q 205 93 150 164 q 354 22 260 22 q 527 76 465 22 q 607 221 588 131 l 607 733 l 644 733 l 644 301 l 645 301 q 644 284 645 293 q 644 265 644 276 l 644 0 l 613 0 l 608 128 m 299 938 q 326 1004 299 976 q 391 1032 353 1032 q 455 1004 428 1032 q 481 938 481 977 q 455 873 481 899 q 391 846 428 846 q 326 873 353 846 q 299 938 299 899 m 338 938 q 353 900 338 915 q 391 884 369 884 q 428 899 413 884 q 443 938 443 914 q 428 978 443 962 q 391 994 413 994 q 353 978 369 994 q 338 938 338 962 "},"Ō":{"x_min":90.203125,"x_max":834.890625,"ha":925,"o":"m 834 419 q 735 102 834 219 q 463 -14 636 -14 q 189 102 288 -14 q 90 419 90 219 l 90 567 q 188 884 90 767 q 461 1001 287 1001 q 735 884 635 1001 q 834 567 834 767 l 834 419 m 798 569 q 710 857 798 750 q 461 965 623 965 q 214 857 301 965 q 127 569 127 750 l 127 419 q 214 129 127 236 q 463 22 301 22 q 711 129 624 22 q 798 419 798 236 l 798 569 m 665 1189 l 240 1189 l 240 1225 l 665 1225 l 665 1189 "},"а":{"x_min":62.390625,"x_max":632.78125,"ha":733,"o":"m 577 135 q 463 27 539 69 q 281 -14 388 -14 q 120 41 179 -14 q 62 192 62 97 q 149 347 62 284 q 367 409 236 409 l 577 409 l 577 516 q 518 659 577 608 q 353 710 459 710 q 192 662 253 710 q 132 538 132 614 l 101 539 l 100 543 q 166 688 96 628 q 353 747 237 747 q 542 687 471 747 q 613 515 613 628 l 613 147 q 618 72 613 109 q 632 0 622 35 l 592 0 q 580 72 583 48 q 577 124 577 96 l 577 135 m 281 21 q 466 69 390 21 q 577 207 541 118 l 577 372 l 369 372 q 177 319 255 372 q 99 189 99 267 q 148 68 99 115 q 281 21 198 21 "},"Ğ":{"x_min":113.9375,"x_max":831.5,"ha":969,"o":"m 831 132 q 711 32 800 80 q 494 -14 623 -14 q 219 106 324 -14 q 113 420 113 227 l 113 581 q 216 884 113 767 q 482 1001 318 1001 q 734 920 640 1001 q 825 711 828 838 l 824 707 l 793 707 q 712 892 793 820 q 482 965 631 965 q 241 858 333 965 q 150 583 150 751 l 150 420 q 244 133 150 244 q 494 22 339 22 q 690 61 613 22 q 794 149 767 99 l 794 430 l 493 430 l 493 467 l 831 467 l 831 132 m 636 1261 l 637 1257 q 589 1139 640 1184 q 452 1093 539 1093 q 314 1139 365 1093 q 267 1257 264 1184 l 269 1261 l 300 1261 q 336 1167 300 1203 q 452 1131 373 1131 q 566 1167 528 1131 q 604 1261 604 1204 l 636 1261 "},"ә":{"x_min":111.734375,"x_max":690.21875,"ha":731,"o":"m 382 748 q 601 647 511 748 q 690 394 690 547 l 690 351 q 601 89 690 192 q 378 -13 513 -13 q 184 67 256 -13 q 111 286 111 147 l 111 342 l 653 342 l 653 351 l 653 394 q 577 620 653 529 q 382 711 501 711 q 255 687 316 711 q 157 622 195 662 l 137 650 q 237 720 176 693 q 382 748 298 748 m 378 23 q 565 102 492 23 q 648 302 638 181 l 646 306 l 148 306 l 148 283 q 210 96 148 170 q 378 23 271 23 "},"v":{"x_min":29.15625,"x_max":634.140625,"ha":663,"o":"m 295 155 l 329 56 l 333 56 l 368 155 l 594 733 l 634 733 l 348 0 l 349 0 l 314 0 l 29 733 l 68 733 l 295 155 "},"Ї":{"x_min":-17.875,"x_max":393.125,"ha":362,"o":"m 199 0 l 162 0 l 162 987 l 199 987 l 199 0 m 393 1134 l 300 1134 l 300 1214 l 393 1214 l 393 1134 m 75 1134 l -17 1134 l -17 1214 l 75 1214 l 75 1134 "},"Ѯ":{"x_min":103.765625,"x_max":685,"ha":711,"o":"m 332 522 q 559 578 486 522 q 632 737 632 634 q 561 892 632 834 q 348 950 491 950 l 120 950 l 120 987 l 348 987 q 583 922 497 987 q 669 734 669 856 q 618 593 669 655 q 473 505 567 531 q 632 420 579 482 q 685 261 685 358 q 581 70 685 141 q 326 0 478 0 l 271 0 q 170 -23 200 0 q 139 -95 139 -47 q 179 -172 139 -137 q 261 -221 219 -208 l 251 -256 q 152 -196 200 -242 q 103 -96 103 -150 q 144 0 103 -35 q 271 36 184 36 l 326 36 q 559 96 472 36 q 647 259 647 155 q 568 431 647 377 q 332 484 489 484 l 248 484 l 248 522 l 332 522 m 403 1138 l 528 1265 l 573 1265 l 573 1254 l 430 1114 l 376 1114 l 231 1256 l 231 1265 l 279 1265 l 403 1138 "},"û":{"x_min":113.9375,"x_max":645.671875,"ha":760,"o":"m 608 128 q 510 23 573 61 q 355 -14 446 -14 q 178 66 242 -14 q 113 315 113 146 l 113 733 l 150 733 l 150 314 q 205 93 150 164 q 354 22 260 22 q 527 76 465 22 q 607 221 588 131 l 607 733 l 644 733 l 644 301 l 645 301 q 644 284 645 293 q 644 265 644 276 l 644 0 l 613 0 l 608 128 m 565 861 l 565 853 l 518 853 l 392 979 l 268 853 l 224 853 l 224 864 l 366 1004 l 420 1004 l 565 861 "},"Ź":{"x_min":63.75,"x_max":766.390625,"ha":830,"o":"m 113 36 l 766 36 l 766 0 l 63 0 l 63 29 l 693 951 l 90 951 l 90 987 l 744 987 l 744 961 l 113 36 m 529 1262 l 582 1262 l 584 1259 l 427 1082 l 382 1082 l 380 1085 l 529 1262 "},"ˉ":{"x_min":62.390625,"x_max":487.640625,"ha":550,"o":"m 487 951 l 62 951 l 62 987 l 487 987 l 487 951 "},"Ĺ":{"x_min":125.703125,"x_max":706.703125,"ha":766,"o":"m 172 36 l 706 36 l 706 0 l 135 0 l 135 987 l 172 987 l 172 36 m 274 1220 l 327 1220 l 329 1217 l 172 1040 l 127 1040 l 125 1043 l 274 1220 "},"ỵ":{"x_min":29.15625,"x_max":640.25,"ha":663,"o":"m 310 132 l 337 59 l 341 59 l 345 70 l 599 733 l 640 733 l 314 -122 q 244 -247 284 -199 q 118 -296 204 -296 q 89 -294 105 -296 q 66 -288 73 -291 l 72 -254 q 94 -258 80 -256 q 118 -260 109 -260 q 215 -223 180 -260 q 277 -115 250 -187 l 321 4 l 29 733 l 69 733 l 310 132 m 513 -306 l 449 -306 l 449 -212 l 513 -212 l 513 -306 "},"ӻ":{"x_min":-80.484375,"x_max":557.5,"ha":572,"o":"m 557 696 l 153 696 l 153 0 l 116 0 l 116 733 l 557 733 l 557 696 m 398 399 l 0 399 l 0 435 l 398 435 l 398 399 m 188 80 l 188 -60 q 137 -235 188 -173 q -4 -296 87 -296 q -41 -292 -24 -296 q -80 -282 -59 -289 l -71 -247 q -39 -256 -58 -252 q -4 -260 -21 -260 q 111 -208 70 -260 q 152 -60 152 -155 l 152 80 l 188 80 "},"₤":{"x_min":44.078125,"x_max":706.03125,"ha":780,"o":"m 248 368 l 250 316 q 226 156 250 231 q 157 36 202 81 l 705 36 l 706 0 l 87 0 l 87 36 l 94 36 q 184 135 154 47 q 214 316 214 223 l 212 368 l 44 368 l 44 405 l 210 405 l 206 530 l 51 530 l 51 567 l 204 567 l 200 705 q 268 922 200 843 q 451 1001 337 1001 q 625 932 570 1001 q 678 742 680 863 l 676 739 l 644 739 q 595 911 644 858 q 451 965 545 965 q 294 897 352 965 q 236 705 236 829 l 241 567 l 526 567 l 526 530 l 242 530 l 247 405 l 533 405 l 533 368 l 248 368 "},"Č":{"x_min":97.671875,"x_max":796.3125,"ha":900,"o":"m 794 302 l 796 298 q 704 66 798 146 q 455 -14 609 -14 q 195 105 293 -14 q 97 419 97 225 l 97 567 q 195 881 97 761 q 455 1001 293 1001 q 704 921 609 1001 q 796 690 798 840 l 794 686 l 763 686 q 680 892 763 819 q 455 965 597 965 q 222 855 310 965 q 134 569 134 746 l 134 419 q 222 131 134 240 q 455 22 310 22 q 680 92 597 22 q 763 302 763 162 l 794 302 m 458 1126 l 583 1253 l 629 1253 l 629 1242 l 485 1102 l 431 1102 l 286 1243 l 286 1253 l 334 1253 l 458 1126 "},"x":{"x_min":37.296875,"x_max":625.328125,"ha":663,"o":"m 331 408 l 565 733 l 611 733 l 354 376 l 625 0 l 579 0 l 330 344 l 82 0 l 37 0 l 308 376 l 50 733 l 96 733 l 331 408 "},"è":{"x_min":65.78125,"x_max":644.3125,"ha":705,"o":"m 373 -14 q 154 86 244 -14 q 65 339 65 186 l 65 382 q 154 644 65 541 q 377 747 242 747 q 571 667 499 747 q 644 447 644 586 l 644 391 l 102 391 l 102 382 l 102 339 q 178 113 102 204 q 373 22 254 22 q 500 46 439 22 q 598 111 560 71 l 618 83 q 518 13 579 40 q 373 -14 457 -14 m 377 710 q 190 631 263 710 q 107 432 117 552 l 109 427 l 607 427 l 607 450 q 545 637 607 563 q 377 710 484 710 m 414 873 l 413 870 l 362 870 l 203 1047 l 205 1050 l 265 1050 l 414 873 "},"Ń":{"x_min":135.640625,"x_max":847.09375,"ha":983,"o":"m 847 0 l 810 0 l 177 919 l 172 918 l 172 0 l 135 0 l 135 987 l 172 987 l 806 69 l 810 71 l 810 987 l 847 987 l 847 0 m 609 1262 l 662 1262 l 664 1259 l 507 1082 l 462 1082 l 460 1085 l 609 1262 "},"ḿ":{"x_min":109.1875,"x_max":1134.671875,"ha":1245,"o":"m 142 733 l 147 585 q 242 705 181 662 q 393 747 304 747 q 545 700 486 747 q 628 554 604 653 q 724 696 658 645 q 887 748 789 748 q 1071 668 1008 748 q 1134 419 1134 589 l 1134 0 l 1097 0 l 1097 420 q 1040 645 1097 579 q 888 711 983 711 q 715 644 775 711 q 639 472 656 578 q 640 445 640 459 q 641 417 641 431 l 641 0 l 604 0 l 604 375 l 602 375 q 602 401 602 388 q 604 426 602 414 q 545 646 602 582 q 394 710 489 710 q 224 646 282 710 q 147 478 165 581 l 147 0 l 110 0 l 110 375 l 109 375 q 109 394 109 385 q 110 418 109 404 l 110 733 l 142 733 m 738 1044 l 791 1044 l 793 1041 l 636 864 l 591 864 l 589 867 l 738 1044 "},"μ":{"x_min":115.96875,"x_max":647.703125,"ha":760,"o":"m 151 733 l 151 298 q 208 84 151 147 q 358 22 266 22 q 540 85 483 22 q 609 263 597 148 l 609 733 l 646 733 l 646 342 l 647 342 q 647 321 647 331 q 646 297 647 311 l 646 0 l 618 0 l 611 139 q 517 25 578 65 q 364 -14 456 -14 q 239 16 295 -14 q 151 115 183 46 l 151 -282 l 115 -282 l 115 733 l 151 733 "},".":{"x_min":117.328125,"x_max":175.65625,"ha":298,"o":"m 175 0 l 117 0 l 117 88 l 175 88 l 175 0 "},"Ѡ":{"x_min":73.25,"x_max":1254.71875,"ha":1321,"o":"m 727 962 q 823 991 769 981 q 940 1001 876 1001 q 1166 884 1079 1001 q 1254 581 1254 767 l 1254 420 q 1163 106 1254 227 q 928 -14 1072 -14 q 767 13 834 -14 q 663 81 699 42 q 559 13 627 42 q 399 -14 491 -14 q 163 106 254 -14 q 73 420 73 227 l 73 581 q 160 884 73 767 q 387 1001 248 1001 q 503 991 450 1001 q 600 962 557 981 l 590 927 q 500 954 551 944 q 387 965 449 965 q 186 858 262 965 q 109 583 109 751 l 109 420 q 188 133 109 244 q 399 22 267 22 q 559 52 495 22 q 645 122 623 83 l 645 430 l 438 430 l 438 467 l 889 467 l 889 430 l 682 430 l 682 122 q 767 52 704 83 q 928 22 831 22 q 1138 133 1059 22 q 1218 420 1218 244 l 1218 583 q 1141 858 1218 751 q 940 965 1064 965 q 826 954 877 965 q 737 927 775 944 l 727 962 "},"ӑ":{"x_min":62.390625,"x_max":632.78125,"ha":733,"o":"m 577 135 q 463 27 539 69 q 281 -14 388 -14 q 120 41 179 -14 q 62 192 62 97 q 149 347 62 284 q 367 409 236 409 l 577 409 l 577 516 q 518 659 577 608 q 353 710 459 710 q 192 662 253 710 q 132 538 132 614 l 101 539 l 100 543 q 166 688 96 628 q 353 747 237 747 q 542 687 471 747 q 613 515 613 628 l 613 147 q 618 72 613 109 q 632 0 622 35 l 592 0 q 580 72 583 48 q 577 124 577 96 l 577 135 m 281 21 q 466 69 390 21 q 577 207 541 118 l 577 372 l 369 372 q 177 319 255 372 q 99 189 99 267 q 148 68 99 115 q 281 21 198 21 m 545 1030 l 546 1026 q 498 908 549 953 q 361 862 448 862 q 223 908 274 862 q 176 1026 173 953 l 178 1030 l 209 1030 q 245 936 209 972 q 361 900 282 900 q 475 936 437 900 q 513 1030 513 973 l 545 1030 "},"‘":{"x_min":116.65625,"x_max":184.484375,"ha":292,"o":"m 116 803 l 150 987 l 184 987 l 153 806 l 153 691 l 116 691 l 116 803 "},"π":{"x_min":55.609375,"x_max":831.5,"ha":802,"o":"m 752 696 l 627 696 l 627 189 q 659 60 627 97 q 752 22 692 22 q 785 23 771 22 q 825 28 799 25 l 831 -5 q 795 -12 815 -10 q 754 -14 776 -14 q 629 32 669 -14 q 590 189 590 80 l 590 696 l 204 696 l 204 0 l 167 0 l 167 696 l 55 696 l 55 733 l 752 733 l 752 696 "},"Ỏ":{"x_min":90.203125,"x_max":834.890625,"ha":925,"o":"m 834 419 q 735 102 834 219 q 463 -14 636 -14 q 189 102 288 -14 q 90 419 90 219 l 90 567 q 188 884 90 767 q 461 1001 287 1001 q 735 884 635 1001 q 834 567 834 767 l 834 419 m 798 569 q 710 857 798 750 q 461 965 623 965 q 214 857 301 965 q 127 569 127 750 l 127 419 q 214 129 127 236 q 463 22 301 22 q 711 129 624 22 q 798 419 798 236 l 798 569 m 442 1090 l 442 1157 q 540 1180 510 1162 q 570 1234 570 1197 q 523 1291 570 1273 q 410 1309 475 1309 l 415 1342 q 555 1313 501 1342 q 608 1234 608 1284 q 572 1156 608 1183 q 474 1126 536 1130 l 474 1090 l 442 1090 "},"Ѩ":{"x_min":172.953125,"x_max":1165.1875,"ha":1216,"o":"m 209 381 l 524 381 l 750 987 l 795 987 l 1165 0 l 1125 0 l 995 344 l 787 344 l 787 0 l 750 0 l 750 344 l 550 344 l 421 0 l 381 0 l 510 344 l 209 344 l 209 0 l 172 0 l 172 987 l 209 987 l 209 381 m 564 381 l 982 381 l 794 884 l 775 942 l 771 942 l 752 884 l 564 381 "},"Ớ":{"x_min":111.234375,"x_max":1034.328125,"ha":984,"o":"m 855 419 q 756 102 855 219 q 484 -14 657 -14 q 210 102 309 -14 q 111 419 111 219 l 111 567 q 209 884 111 767 q 482 1001 308 1001 q 663 959 585 1001 q 788 839 741 917 q 946 906 892 843 q 1000 1085 1000 969 l 1032 1085 l 1034 1082 q 976 884 1035 956 q 807 804 916 812 q 843 694 830 754 q 855 567 855 634 l 855 419 m 819 569 q 731 857 819 750 q 482 965 644 965 q 235 857 322 965 q 148 569 148 750 l 148 419 q 235 129 148 236 q 484 22 322 22 q 732 129 645 22 q 819 419 819 236 l 819 569 m 609 1269 l 662 1269 l 664 1266 l 507 1089 l 462 1089 l 460 1092 l 609 1269 "},"9":{"x_min":64.4375,"x_max":659.90625,"ha":760,"o":"m 360 22 q 548 99 479 22 q 617 310 617 175 l 617 508 q 510 398 579 438 q 354 358 440 358 q 145 448 226 358 q 64 670 64 538 q 147 905 64 809 q 360 1001 230 1001 q 576 911 493 1001 q 659 653 659 821 l 659 311 q 577 72 659 160 q 360 -14 495 -14 q 263 -3 312 -14 q 162 28 213 7 l 172 62 q 260 31 217 40 q 360 22 303 22 m 354 394 q 523 447 455 394 q 617 579 591 501 l 617 652 q 546 884 617 803 q 362 965 476 965 q 177 877 248 965 q 106 670 106 789 q 173 474 106 555 q 354 394 241 394 "},"l":{"x_min":125.46875,"x_max":162.09375,"ha":286,"o":"m 162 0 l 125 0 l 125 1058 l 162 1058 l 162 0 "},"Ẫ":{"x_min":23.0625,"x_max":806.40625,"ha":829,"o":"m 655 295 l 173 295 l 63 0 l 23 0 l 392 987 l 436 987 l 806 0 l 766 0 l 655 295 m 187 331 l 642 331 l 435 884 l 416 942 l 412 942 l 394 884 l 187 331 m 603 1063 l 601 1059 l 551 1059 l 411 1185 l 274 1059 l 223 1059 l 222 1063 l 392 1210 l 433 1210 l 603 1063 m 588 1338 q 562 1269 588 1295 q 500 1243 537 1243 q 422 1279 462 1243 q 355 1314 383 1314 q 317 1293 331 1314 q 302 1238 302 1271 l 268 1243 q 293 1317 268 1285 q 355 1350 319 1350 q 432 1314 392 1350 q 500 1278 473 1278 q 539 1295 525 1278 q 553 1343 553 1312 l 588 1338 "},"Ъ":{"x_min":-19.671875,"x_max":944.09375,"ha":1075,"o":"m -19 987 l 374 987 l 374 548 l 624 548 q 861 472 777 548 q 944 274 944 396 q 861 75 944 151 q 624 0 777 0 l 337 0 l 337 950 l -19 950 l -19 987 m 374 511 l 374 36 l 624 36 q 836 104 765 36 q 906 275 906 172 q 835 442 906 373 q 624 511 765 511 l 374 511 "}," ":{"x_min":0,"x_max":0,"ha":142},"Ś":{"x_min":60.25,"x_max":756.21875,"ha":829,"o":"m 718 232 q 649 369 718 317 q 412 476 579 421 q 166 583 245 526 q 87 752 87 640 q 180 932 87 864 q 415 1001 272 1001 q 652 925 562 1001 q 739 713 742 849 l 738 709 l 707 709 q 626 892 707 819 q 415 965 544 965 q 202 902 281 965 q 124 754 124 839 q 187 615 124 668 q 423 511 250 562 q 674 401 592 458 q 756 233 756 344 q 659 53 756 121 q 419 -14 562 -14 q 164 55 271 -14 q 60 274 56 124 l 61 278 l 92 278 q 191 83 92 143 q 419 22 290 22 q 634 82 549 22 q 718 232 718 142 m 536 1277 l 589 1277 l 591 1274 l 434 1097 l 389 1097 l 387 1100 l 536 1277 "},"Ü":{"x_min":125.46875,"x_max":800.296875,"ha":926,"o":"m 800 987 l 800 331 q 706 77 800 168 q 463 -14 611 -14 q 219 77 314 -14 q 125 331 125 169 l 125 987 l 162 987 l 162 331 q 247 106 162 191 q 463 22 332 22 q 678 106 593 22 q 763 331 763 191 l 763 987 l 800 987 m 684 1134 l 591 1134 l 591 1214 l 684 1214 l 684 1134 m 366 1134 l 273 1134 l 273 1214 l 366 1214 l 366 1134 "},"à":{"x_min":62.390625,"x_max":632.78125,"ha":733,"o":"m 577 135 q 463 27 539 69 q 281 -14 388 -14 q 120 41 179 -14 q 62 192 62 97 q 149 347 62 284 q 367 409 236 409 l 577 409 l 577 516 q 518 659 577 608 q 353 710 459 710 q 192 662 253 710 q 132 538 132 614 l 101 539 l 100 543 q 166 688 96 628 q 353 747 237 747 q 542 687 471 747 q 613 515 613 628 l 613 147 q 618 72 613 109 q 632 0 622 35 l 592 0 q 580 72 583 48 q 577 124 577 96 l 577 135 m 281 21 q 466 69 390 21 q 577 207 541 118 l 577 372 l 369 372 q 177 319 255 372 q 99 189 99 267 q 148 68 99 115 q 281 21 198 21 m 398 874 l 397 871 l 346 871 l 187 1048 l 189 1051 l 249 1051 l 398 874 "},"η":{"x_min":115.296875,"x_max":647.03125,"ha":760,"o":"m 147 733 l 152 585 q 249 705 186 662 q 406 747 313 747 q 587 671 526 747 q 647 432 647 596 l 647 -282 l 610 -282 l 610 433 q 556 648 610 585 q 407 710 501 710 q 231 643 292 710 q 153 470 170 576 l 153 0 l 116 0 l 116 375 l 115 375 q 115 394 115 385 q 116 418 115 404 l 116 733 l 147 733 "},"ó":{"x_min":59,"x_max":701.28125,"ha":760,"o":"m 59 381 q 148 644 59 542 q 379 747 237 747 q 612 644 522 747 q 701 381 701 542 l 701 352 q 612 88 701 190 q 381 -14 522 -14 q 148 88 238 -14 q 59 352 59 190 l 59 381 m 95 352 q 172 118 95 214 q 381 22 250 22 q 587 118 510 22 q 664 352 664 215 l 664 381 q 586 613 664 516 q 379 710 508 710 q 172 613 250 710 q 95 381 95 516 l 95 352 m 511 1044 l 564 1044 l 566 1041 l 409 864 l 364 864 l 362 867 l 511 1044 "},"¦":{"x_min":116.65625,"x_max":153.28125,"ha":270,"o":"m 116 -183 l 116 326 l 153 326 l 153 -183 l 116 -183 m 153 473 l 116 473 l 116 987 l 153 987 l 153 473 "},"Ѣ":{"x_min":25.765625,"x_max":737.234375,"ha":829,"o":"m 423 780 l 167 780 l 167 548 l 417 548 q 654 472 571 548 q 737 274 737 396 q 654 75 737 151 q 417 0 571 0 l 130 0 l 130 780 l 25 780 l 25 817 l 130 817 l 130 987 l 167 987 l 167 817 l 423 817 l 423 780 m 167 511 l 167 36 l 417 36 q 629 104 558 36 q 699 275 699 172 q 629 442 699 373 q 417 511 558 511 l 167 511 "},"Ӈ":{"x_min":132.25,"x_max":836.25,"ha":969,"o":"m 168 987 l 168 507 l 799 507 l 799 987 l 836 987 l 836 -60 q 785 -235 836 -173 q 643 -296 734 -296 q 605 -292 623 -296 q 567 -282 587 -289 l 576 -247 q 607 -255 588 -251 q 643 -259 626 -259 q 758 -207 717 -259 q 799 -60 799 -155 l 799 471 l 168 471 l 168 0 l 132 0 l 132 987 l 168 987 "},"Ỷ":{"x_min":24.421875,"x_max":803.6875,"ha":829,"o":"m 395 438 l 413 404 l 431 438 l 758 987 l 803 987 l 432 375 l 432 0 l 395 0 l 395 375 l 24 987 l 69 987 l 395 438 m 396 1069 l 396 1136 q 494 1159 464 1141 q 524 1213 524 1176 q 477 1270 524 1252 q 364 1288 429 1288 l 369 1321 q 509 1292 455 1321 q 562 1213 562 1263 q 526 1135 562 1162 q 428 1105 490 1109 l 428 1069 l 396 1069 "},"Ő":{"x_min":90.203125,"x_max":834.890625,"ha":925,"o":"m 834 419 q 735 102 834 219 q 463 -14 636 -14 q 189 102 288 -14 q 90 419 90 219 l 90 567 q 188 884 90 767 q 461 1001 287 1001 q 735 884 635 1001 q 834 567 834 767 l 834 419 m 798 569 q 710 857 798 750 q 461 965 623 965 q 214 857 301 965 q 127 569 127 750 l 127 419 q 214 129 127 236 q 463 22 301 22 q 711 129 624 22 q 798 419 798 236 l 798 569 m 686 1280 l 735 1280 l 736 1276 l 538 1100 l 494 1100 l 493 1104 l 686 1280 m 503 1280 l 549 1280 l 551 1276 l 383 1100 l 341 1100 l 340 1103 l 503 1280 "},"ҁ":{"x_min":82.75,"x_max":651.1875,"ha":711,"o":"m 421 -238 l 384 -238 l 384 -14 q 164 89 245 -12 q 82 352 82 190 l 82 381 q 165 645 82 543 q 388 747 248 747 q 577 680 501 747 q 651 492 653 613 l 649 488 l 618 488 q 552 653 618 596 q 388 710 486 710 q 189 617 259 710 q 120 381 120 524 l 120 352 q 188 116 120 208 q 384 22 256 23 l 421 22 l 421 -238 "},"Ҧ":{"x_min":121.40625,"x_max":1325.3125,"ha":1382,"o":"m 825 569 l 972 569 q 1229 497 1133 569 q 1325 267 1325 425 q 1268 96 1327 181 q 1078 -14 1209 10 l 1067 14 q 1235 110 1184 37 q 1288 267 1285 183 q 1204 468 1292 402 q 972 533 1116 533 l 825 533 l 825 0 l 788 0 l 788 950 l 158 950 l 158 0 l 121 0 l 121 987 l 825 987 l 825 569 "},"Ž":{"x_min":63.75,"x_max":766.390625,"ha":830,"o":"m 113 36 l 766 36 l 766 0 l 63 0 l 63 29 l 693 951 l 90 951 l 90 987 l 744 987 l 744 961 l 113 36 m 412 1112 l 537 1239 l 583 1239 l 583 1228 l 439 1088 l 385 1088 l 240 1229 l 240 1239 l 288 1239 l 412 1112 "},"е":{"x_min":65.78125,"x_max":644.3125,"ha":705,"o":"m 373 -14 q 154 86 244 -14 q 65 339 65 186 l 65 382 q 154 644 65 541 q 377 747 242 747 q 571 667 499 747 q 644 447 644 586 l 644 391 l 102 391 l 102 382 l 102 339 q 178 113 102 204 q 373 22 254 22 q 500 46 439 22 q 598 111 560 71 l 618 83 q 518 13 579 40 q 373 -14 457 -14 m 377 710 q 190 631 263 710 q 107 432 117 552 l 109 427 l 607 427 l 607 450 q 545 637 607 563 q 377 710 484 710 "},"Î":{"x_min":13.09375,"x_max":354.921875,"ha":362,"o":"m 199 0 l 162 0 l 162 987 l 199 987 l 199 0 m 354 1094 l 354 1086 l 307 1086 l 181 1212 l 57 1086 l 13 1086 l 13 1097 l 155 1237 l 209 1237 l 354 1094 "},"e":{"x_min":65.78125,"x_max":644.3125,"ha":705,"o":"m 373 -14 q 154 86 244 -14 q 65 339 65 186 l 65 382 q 154 644 65 541 q 377 747 242 747 q 571 667 499 747 q 644 447 644 586 l 644 391 l 102 391 l 102 382 l 102 339 q 178 113 102 204 q 373 22 254 22 q 500 46 439 22 q 598 111 560 71 l 618 83 q 518 13 579 40 q 373 -14 457 -14 m 377 710 q 190 631 263 710 q 107 432 117 552 l 109 427 l 607 427 l 607 450 q 545 637 607 563 q 377 710 484 710 "},"ό":{"x_min":59,"x_max":701.28125,"ha":760,"o":"m 59 381 q 148 644 59 542 q 379 747 237 747 q 612 644 522 747 q 701 381 701 542 l 701 352 q 612 88 701 190 q 381 -14 522 -14 q 148 88 238 -14 q 59 352 59 190 l 59 381 m 95 352 q 172 118 95 214 q 381 22 250 22 q 587 118 510 22 q 664 352 664 215 l 664 381 q 586 613 664 516 q 379 710 508 710 q 172 613 250 710 q 95 381 95 516 l 95 352 m 399 972 l 471 972 l 399 849 l 377 849 l 399 972 "},"Ề":{"x_min":104.34375,"x_max":716.203125,"ha":766,"o":"m 647 496 l 172 496 l 172 36 l 716 36 l 716 0 l 135 0 l 135 987 l 716 987 l 716 950 l 172 950 l 172 533 l 647 533 l 647 496 m 606 1071 l 605 1067 l 554 1067 l 415 1193 l 277 1067 l 225 1067 l 224 1071 l 388 1218 l 442 1218 l 606 1071 m 254 1153 l 212 1153 l 104 1288 l 106 1292 l 151 1292 l 254 1153 "},"Ĕ":{"x_min":135.640625,"x_max":716.203125,"ha":766,"o":"m 647 496 l 172 496 l 172 36 l 716 36 l 716 0 l 135 0 l 135 987 l 716 987 l 716 950 l 172 950 l 172 533 l 647 533 l 647 496 m 602 1247 l 603 1243 q 555 1125 606 1170 q 418 1079 505 1079 q 280 1125 331 1079 q 233 1243 230 1170 l 235 1247 l 266 1247 q 302 1153 266 1189 q 418 1117 339 1117 q 532 1153 494 1117 q 570 1247 570 1190 l 602 1247 "},"ļ":{"x_min":97.6875,"x_max":164.828125,"ha":286,"o":"m 162 0 l 125 0 l 125 1058 l 162 1058 l 162 0 m 164 -169 l 131 -295 l 97 -295 l 128 -172 l 128 -98 l 164 -98 l 164 -169 "},"ị":{"x_min":105.4375,"x_max":169.859375,"ha":286,"o":"m 162 0 l 125 0 l 125 733 l 162 733 l 162 0 m 162 964 l 125 964 l 125 1058 l 162 1058 l 162 964 m 169 -193 l 105 -193 l 105 -99 l 169 -99 l 169 -193 "}," ":{"x_min":0,"x_max":0,"ha":708},"Ѓ":{"x_min":130.890625,"x_max":715.53125,"ha":761,"o":"m 715 950 l 167 950 l 167 0 l 130 0 l 130 987 l 715 987 l 715 950 m 530 1262 l 583 1262 l 585 1259 l 428 1082 l 383 1082 l 381 1085 l 530 1262 "},"Ѽ":{"x_min":73.25,"x_max":1254.71875,"ha":1312,"o":"m 767 962 q 845 991 802 981 q 940 1001 889 1001 q 1166 884 1079 1001 q 1254 581 1254 767 l 1254 420 q 1163 106 1254 227 q 928 -14 1072 -14 q 767 13 834 -14 q 663 81 699 42 q 559 13 627 42 q 399 -14 491 -14 q 163 106 254 -14 q 73 420 73 227 l 73 581 q 160 884 73 767 q 387 1001 248 1001 q 481 991 438 1001 q 560 962 524 981 l 550 927 q 478 955 518 945 q 387 965 437 965 q 186 858 262 965 q 109 583 109 751 l 109 420 q 188 133 109 244 q 399 22 267 22 q 559 52 495 22 q 645 122 623 83 l 645 149 l 682 149 l 682 122 q 767 52 704 83 q 928 22 831 22 q 1138 133 1059 22 q 1218 420 1218 244 l 1218 583 q 1141 858 1218 751 q 940 965 1064 965 q 849 955 889 965 q 777 927 808 945 l 767 962 m 992 1191 l 992 1161 l 981 1161 q 813 1225 895 1161 q 682 1288 731 1288 q 588 1252 620 1288 q 556 1164 556 1216 l 556 1152 l 519 1152 l 519 1169 q 562 1279 519 1235 q 679 1324 606 1324 q 824 1258 738 1324 q 983 1191 910 1191 l 992 1191 m 638 1005 l 613 1024 l 657 1109 l 657 1203 l 722 1203 l 722 1107 l 638 1005 "},"ò":{"x_min":59,"x_max":701.28125,"ha":760,"o":"m 59 381 q 148 644 59 542 q 379 747 237 747 q 612 644 522 747 q 701 381 701 542 l 701 352 q 612 88 701 190 q 381 -14 522 -14 q 148 88 238 -14 q 59 352 59 190 l 59 381 m 95 352 q 172 118 95 214 q 381 22 250 22 q 587 118 510 22 q 664 352 664 215 l 664 381 q 586 613 664 516 q 379 710 508 710 q 172 613 250 710 q 95 381 95 516 l 95 352 m 431 872 l 430 869 l 379 869 l 220 1046 l 222 1049 l 282 1049 l 431 872 "},"ﬄ":{"x_min":44.765625,"x_max":1037.09375,"ha":1161,"o":"m 172 0 l 172 696 l 44 696 l 44 733 l 172 733 l 172 854 q 222 1015 172 958 q 364 1072 273 1072 q 408 1069 386 1072 q 451 1060 430 1066 l 445 1025 q 407 1033 423 1030 q 364 1035 390 1035 q 250 987 291 1035 q 208 854 208 939 l 208 733 l 402 733 l 402 696 l 208 696 l 208 0 l 172 0 m 609 0 l 609 696 l 481 696 l 481 733 l 609 733 l 609 854 q 659 1015 609 958 q 801 1072 710 1072 q 845 1069 823 1072 q 888 1060 867 1066 l 882 1025 q 844 1033 860 1030 q 801 1035 827 1035 q 687 987 728 1035 q 645 854 645 939 l 645 733 l 839 733 l 839 696 l 645 696 l 645 0 l 609 0 m 1037 0 l 1000 0 l 1000 1058 l 1037 1058 l 1037 0 "},"^":{"x_min":61.71875,"x_max":502.5625,"ha":576,"o":"m 101 494 l 61 494 l 264 987 l 299 987 l 502 494 l 461 494 l 310 862 l 283 940 l 279 940 l 250 862 l 101 494 "},"ⁿ":{"x_min":82.0625,"x_max":501.203125,"ha":584,"o":"m 113 987 l 120 886 q 196 965 148 936 q 303 994 243 994 q 449 943 397 994 q 501 786 501 892 l 501 441 l 465 441 l 465 790 q 422 921 465 881 q 303 961 380 961 q 188 923 235 961 q 121 822 141 885 l 121 441 l 84 441 l 84 730 l 82 730 q 82 749 82 739 q 84 769 82 759 l 84 987 l 113 987 "},"Ӑ":{"x_min":23.0625,"x_max":806.40625,"ha":829,"o":"m 655 295 l 173 295 l 63 0 l 23 0 l 392 987 l 436 987 l 806 0 l 766 0 l 655 295 m 187 331 l 642 331 l 435 884 l 416 942 l 412 942 l 394 884 l 187 331 m 597 1247 l 598 1243 q 550 1125 601 1170 q 413 1079 500 1079 q 275 1125 326 1079 q 228 1243 225 1170 l 230 1247 l 261 1247 q 297 1153 261 1189 q 413 1117 334 1117 q 527 1153 489 1117 q 565 1247 565 1190 l 597 1247 "},"к":{"x_min":115.96875,"x_max":676.859375,"ha":709,"o":"m 267 358 l 153 358 l 153 0 l 115 0 l 115 733 l 153 733 l 153 394 l 274 394 l 585 733 l 633 733 l 634 730 l 307 375 l 676 4 l 675 0 l 626 0 l 267 358 "},"￼":{"x_min":58.328125,"x_max":1373.40625,"ha":1417,"o":"m 556 393 q 512 500 556 458 q 399 541 468 541 q 286 500 330 541 q 243 393 243 458 l 243 317 q 286 209 243 250 q 400 168 330 168 q 512 209 469 168 q 556 317 556 250 l 556 393 m 751 170 q 849 197 813 170 q 885 276 885 224 q 866 330 885 306 q 815 362 848 354 q 857 394 843 373 q 872 441 872 415 q 835 517 872 492 q 729 543 797 543 l 601 543 l 601 170 l 751 170 m 493 317 q 468 244 493 270 q 400 217 443 217 q 330 244 356 217 q 305 317 305 270 l 305 393 q 330 466 305 439 q 399 493 356 493 q 468 466 442 493 q 493 393 493 439 l 493 317 m 1140 288 q 1122 240 1140 258 q 1076 221 1103 221 q 1024 237 1042 221 q 1005 283 1005 252 l 948 283 l 947 279 q 979 199 943 227 q 1076 172 1014 172 q 1167 203 1131 172 q 1203 288 1203 234 l 1203 544 l 1140 544 l 1140 288 m 58 -269 l 58 -56 l 134 -56 l 134 -193 l 267 -193 l 267 -269 l 58 -269 m 1163 -269 l 1163 -193 l 1298 -193 l 1298 -56 l 1373 -56 l 1373 -269 l 1163 -269 m 58 792 l 58 986 l 267 986 l 267 907 l 134 907 l 134 792 l 58 792 m 1163 907 l 1163 986 l 1373 986 l 1373 792 l 1298 792 l 1298 907 l 1163 907 m 751 336 l 754 336 q 804 319 786 335 q 821 278 821 303 q 803 236 821 250 q 751 221 785 221 l 666 221 l 666 336 l 751 336 m 892 907 l 892 986 l 1081 986 l 1081 907 l 892 907 m 621 907 l 621 986 l 809 986 l 809 907 l 621 907 m 351 907 l 351 986 l 538 986 l 538 907 l 351 907 m 892 -269 l 892 -193 l 1081 -193 l 1081 -269 l 892 -269 m 621 -269 l 621 -193 l 809 -193 l 809 -269 l 621 -269 m 351 -269 l 351 -193 l 538 -193 l 538 -269 l 351 -269 m 666 486 l 729 486 q 789 475 770 486 q 809 438 809 464 q 788 397 809 411 q 729 383 768 383 l 666 383 l 666 486 m 134 282 l 58 282 l 58 453 l 134 453 l 134 282 m 134 538 l 58 538 l 58 708 l 134 708 l 134 538 m 134 27 l 58 27 l 58 196 l 134 196 l 134 27 m 1373 282 l 1298 282 l 1298 453 l 1373 453 l 1373 282 m 1373 538 l 1298 538 l 1298 708 l 1373 708 l 1373 538 m 1373 27 l 1298 27 l 1298 196 l 1373 196 l 1373 27 "},"ѻ":{"x_min":59,"x_max":701.28125,"ha":760,"o":"m 398 617 l 362 617 l 362 825 l 398 825 l 398 617 m 398 -99 l 362 -99 l 362 109 l 398 109 l 398 -99 m 59 381 q 148 644 59 542 q 379 747 237 747 q 612 644 522 747 q 701 381 701 542 l 701 352 q 612 88 701 190 q 381 -14 522 -14 q 148 88 238 -14 q 59 352 59 190 l 59 381 m 95 352 q 172 118 95 214 q 381 22 250 22 q 587 118 510 22 q 664 352 664 215 l 664 381 q 586 613 664 516 q 379 710 508 710 q 172 613 250 710 q 95 381 95 516 l 95 352 "},"ū":{"x_min":113.9375,"x_max":645.671875,"ha":760,"o":"m 608 128 q 510 23 573 61 q 355 -14 446 -14 q 178 66 242 -14 q 113 315 113 146 l 113 733 l 150 733 l 150 314 q 205 93 150 164 q 354 22 260 22 q 527 76 465 22 q 607 221 588 131 l 607 733 l 644 733 l 644 301 l 645 301 q 644 284 645 293 q 644 265 644 276 l 644 0 l 613 0 l 608 128 m 600 943 l 175 943 l 175 979 l 600 979 l 600 943 "},"ˆ":{"x_min":103.09375,"x_max":444.921875,"ha":540,"o":"m 444 857 l 444 849 l 397 849 l 271 975 l 147 849 l 103 849 l 103 860 l 245 1000 l 299 1000 l 444 857 "},"Ẅ":{"x_min":41.375,"x_max":1216.046875,"ha":1258,"o":"m 286 230 l 329 70 l 333 70 l 376 230 l 609 987 l 650 987 l 882 230 l 924 70 l 928 70 l 972 230 l 1176 987 l 1216 987 l 950 0 l 908 0 l 663 823 l 631 921 l 627 921 l 596 823 l 349 0 l 307 0 l 41 987 l 82 987 l 286 230 m 839 1134 l 746 1134 l 746 1214 l 839 1214 l 839 1134 m 521 1134 l 428 1134 l 428 1214 l 521 1214 l 521 1134 "},"ȷ":{"x_min":-106.484375,"x_max":162.78125,"ha":286,"o":"m 162 733 l 162 -60 q 111 -235 162 -173 q -30 -296 61 -296 q -67 -292 -50 -296 q -106 -282 -85 -289 l -97 -247 q -66 -255 -84 -251 q -30 -259 -47 -259 q 85 -207 44 -259 q 126 -60 126 -155 l 126 733 l 162 733 "},"Ԍ":{"x_min":104.453125,"x_max":784.078125,"ha":855,"o":"m 469 -14 q 205 104 307 -14 q 104 404 104 222 l 104 582 q 205 883 104 764 q 469 1001 307 1001 q 590 990 537 1001 q 684 957 643 979 l 670 918 q 575 953 624 941 q 469 965 526 965 q 229 855 318 965 q 141 583 141 746 l 141 404 q 229 131 141 240 q 469 22 318 22 q 672 93 600 23 q 747 288 744 163 q 738 404 748 343 q 713 533 729 465 l 752 533 q 776 401 767 459 q 784 288 784 343 q 691 63 781 141 q 469 -14 601 -14 "},"č":{"x_min":65.78125,"x_max":633.546875,"ha":705,"o":"m 365 22 q 529 73 458 22 q 600 225 600 124 l 632 225 l 633 221 q 554 49 636 113 q 365 -14 472 -14 q 145 86 225 -14 q 65 352 65 187 l 65 381 q 145 646 65 545 q 364 747 224 747 q 557 680 478 747 q 633 492 636 613 l 632 488 l 600 488 q 531 653 600 596 q 364 710 462 710 q 168 618 235 710 q 102 381 102 526 l 102 352 q 168 114 102 206 q 365 22 235 22 m 370 893 l 495 1020 l 541 1020 l 541 1009 l 397 869 l 343 869 l 198 1010 l 198 1020 l 246 1020 l 370 893 "},"’":{"x_min":105.125,"x_max":172.953125,"ha":292,"o":"m 172 874 l 139 691 l 105 691 l 136 872 l 136 987 l 172 987 l 172 874 "},"Ν":{"x_min":135.640625,"x_max":847.09375,"ha":983,"o":"m 847 0 l 810 0 l 177 919 l 172 918 l 172 0 l 135 0 l 135 987 l 172 987 l 806 69 l 810 71 l 810 987 l 847 987 l 847 0 "},"-":{"x_min":67.140625,"x_max":467.296875,"ha":547,"o":"m 467 406 l 67 406 l 67 442 l 467 442 l 467 406 "},"Q":{"x_min":90.203125,"x_max":897.28125,"ha":925,"o":"m 834 419 q 808 235 834 317 q 730 96 781 153 l 897 -66 l 870 -90 l 704 69 q 596 7 656 28 q 463 -14 535 -14 q 189 102 288 -14 q 90 419 90 219 l 90 567 q 188 884 90 767 q 461 1001 287 1001 q 735 884 635 1001 q 834 567 834 767 l 834 419 m 798 569 q 710 857 798 750 q 461 965 623 965 q 214 857 301 965 q 127 569 127 750 l 127 419 q 214 129 127 236 q 463 22 301 22 q 711 129 624 22 q 798 419 798 236 l 798 569 "},"ј":{"x_min":-106.484375,"x_max":162.78125,"ha":302,"o":"m 162 733 l 162 -60 q 111 -235 162 -173 q -30 -296 61 -296 q -67 -292 -50 -296 q -106 -282 -85 -289 l -97 -247 q -66 -255 -84 -251 q -30 -259 -47 -259 q 85 -207 44 -259 q 126 -60 126 -155 l 126 733 l 162 733 m 158 967 l 122 967 l 122 1058 l 158 1058 l 158 967 "},"Ҋ":{"x_min":135.640625,"x_max":883.375,"ha":983,"o":"m 810 987 l 847 987 l 847 0 l 810 0 l 810 918 l 806 919 l 172 0 l 135 0 l 135 987 l 172 987 l 172 71 l 176 69 l 810 987 m 682 1247 l 683 1243 q 635 1125 686 1170 q 498 1079 585 1079 q 360 1125 411 1079 q 313 1243 310 1170 l 315 1247 l 346 1247 q 382 1153 346 1189 q 498 1117 419 1117 q 612 1153 574 1117 q 650 1247 650 1190 l 682 1247 m 883 -21 l 835 -190 l 801 -190 l 846 -24 l 846 91 l 883 91 l 883 -21 "},"ě":{"x_min":65.78125,"x_max":644.3125,"ha":705,"o":"m 373 -14 q 154 86 244 -14 q 65 339 65 186 l 65 382 q 154 644 65 541 q 377 747 242 747 q 571 667 499 747 q 644 447 644 586 l 644 391 l 102 391 l 102 382 l 102 339 q 178 113 102 204 q 373 22 254 22 q 500 46 439 22 q 598 111 560 71 l 618 83 q 518 13 579 40 q 373 -14 457 -14 m 377 710 q 190 631 263 710 q 107 432 117 552 l 109 427 l 607 427 l 607 450 q 545 637 607 563 q 377 710 484 710 m 376 894 l 501 1021 l 547 1021 l 547 1010 l 403 870 l 349 870 l 204 1011 l 204 1021 l 252 1021 l 376 894 "},"œ":{"x_min":62.390625,"x_max":1247.9375,"ha":1303,"o":"m 977 -14 q 796 49 875 -14 q 686 219 716 113 q 574 48 654 111 q 384 -14 493 -14 q 151 88 241 -14 q 62 352 62 190 l 62 381 q 151 644 62 542 q 383 747 240 747 q 574 683 494 747 q 687 510 655 619 q 797 682 718 618 q 980 747 876 747 q 1175 667 1102 747 q 1247 447 1247 586 l 1247 391 l 706 391 l 706 382 l 706 339 q 781 113 706 204 q 977 22 857 22 q 1103 46 1043 22 q 1202 111 1164 71 l 1222 83 q 1122 13 1183 40 q 977 -14 1061 -14 m 99 352 q 176 118 99 214 q 384 22 253 22 q 590 118 513 22 q 668 352 668 215 l 668 381 q 590 613 668 516 q 383 710 512 710 q 176 613 253 710 q 99 381 99 516 l 99 352 m 980 710 q 793 631 866 710 q 711 432 720 552 l 713 427 l 1211 427 l 1211 450 q 1149 637 1211 563 q 980 710 1087 710 "},"Ộ":{"x_min":90.203125,"x_max":834.890625,"ha":925,"o":"m 834 419 q 735 102 834 219 q 463 -14 636 -14 q 189 102 288 -14 q 90 419 90 219 l 90 567 q 188 884 90 767 q 461 1001 287 1001 q 735 884 635 1001 q 834 567 834 767 l 834 419 m 798 569 q 710 857 798 750 q 461 965 623 965 q 214 857 301 965 q 127 569 127 750 l 127 419 q 214 129 127 236 q 463 22 301 22 q 711 129 624 22 q 798 419 798 236 l 798 569 m 630 1108 l 630 1100 l 583 1100 l 457 1226 l 333 1100 l 289 1100 l 289 1111 l 431 1251 l 485 1251 l 630 1108 m 490 -201 l 426 -201 l 426 -107 l 490 -107 l 490 -201 "},"Ậ":{"x_min":23.0625,"x_max":806.40625,"ha":829,"o":"m 655 295 l 173 295 l 63 0 l 23 0 l 392 987 l 436 987 l 806 0 l 766 0 l 655 295 m 187 331 l 642 331 l 435 884 l 416 942 l 412 942 l 394 884 l 187 331 m 586 1094 l 586 1086 l 539 1086 l 413 1212 l 289 1086 l 245 1086 l 245 1097 l 387 1237 l 441 1237 l 586 1094 m 460 -200 l 396 -200 l 396 -106 l 460 -106 l 460 -200 "},"ҏ":{"x_min":115.296875,"x_max":677.546875,"ha":781,"o":"m 559 -111 l 524 -123 l 436 152 l 472 163 l 559 -111 m 677 353 q 604 84 677 183 q 402 -14 531 -14 q 253 19 316 -14 q 153 111 189 53 l 153 -282 l 116 -282 l 116 200 q 115 204 115 202 q 115 206 115 205 l 115 505 q 115 506 115 505 q 116 510 115 506 l 116 733 l 145 733 l 152 604 q 252 709 189 670 q 400 747 315 747 q 603 644 530 747 q 677 367 677 541 l 677 353 m 640 367 q 578 615 640 520 q 401 710 517 710 q 238 658 297 710 q 153 529 179 606 l 153 179 q 244 64 181 107 q 402 22 307 22 q 579 111 518 22 q 640 353 640 201 l 640 367 "},"ӗ":{"x_min":65.78125,"x_max":644.3125,"ha":705,"o":"m 373 -14 q 154 86 244 -14 q 65 339 65 186 l 65 382 q 154 644 65 541 q 377 747 242 747 q 571 667 499 747 q 644 447 644 586 l 644 391 l 102 391 l 102 382 l 102 339 q 178 113 102 204 q 373 22 254 22 q 500 46 439 22 q 598 111 560 71 l 618 83 q 518 13 579 40 q 373 -14 457 -14 m 377 710 q 190 631 263 710 q 107 432 117 552 l 109 427 l 607 427 l 607 450 q 545 637 607 563 q 377 710 484 710 m 560 1029 l 561 1025 q 513 907 564 952 q 376 861 463 861 q 238 907 289 861 q 191 1025 188 952 l 193 1029 l 224 1029 q 260 935 224 971 q 376 899 297 899 q 490 935 452 899 q 528 1029 528 972 l 560 1029 "},"ԏ":{"x_min":44.078125,"x_max":777.390625,"ha":883,"o":"m 326 697 l 44 697 l 44 733 l 659 733 l 659 697 l 363 697 l 363 233 q 403 74 362 127 q 518 22 444 22 q 680 98 623 23 q 740 303 737 172 q 728 425 740 362 q 693 562 716 489 l 731 563 q 767 419 755 476 q 777 303 778 361 q 703 66 774 147 q 518 -14 633 -14 q 379 43 429 -16 q 326 233 330 103 l 326 697 "},"ҩ":{"x_min":59,"x_max":701.28125,"ha":760,"o":"m 336 262 l 336 356 q 386 505 336 447 q 518 564 436 564 q 650 501 598 564 q 701 342 701 438 l 701 320 q 611 80 701 174 q 379 -14 522 -14 q 147 84 236 -14 q 59 334 59 183 l 59 370 q 147 639 59 533 q 375 742 235 746 l 379 741 l 379 710 q 179 613 263 710 q 95 372 95 516 l 95 334 q 171 110 95 198 q 379 22 248 22 q 448 29 415 22 q 510 50 481 35 q 383 121 430 64 q 336 262 336 179 l 336 262 m 664 320 l 664 344 q 623 474 664 421 q 518 527 581 527 q 411 480 448 527 q 373 358 373 432 l 373 261 q 423 131 373 180 q 559 82 474 82 l 559 80 q 637 182 609 120 q 664 320 664 244 l 664 320 "},"#":{"x_min":44.078125,"x_max":800.984375,"ha":858,"o":"m 512 278 l 265 278 l 215 0 l 177 0 l 227 278 l 44 278 l 44 313 l 234 313 l 299 668 l 95 668 l 95 705 l 305 705 l 356 987 l 394 987 l 343 705 l 590 705 l 642 987 l 680 987 l 628 705 l 800 705 l 800 668 l 621 668 l 556 313 l 750 313 l 750 278 l 550 278 l 499 0 l 461 0 l 512 278 m 272 313 l 518 313 l 583 668 l 336 668 l 272 313 "},"Џ":{"x_min":132.25,"x_max":836.25,"ha":969,"o":"m 132 987 l 168 987 l 168 36 l 799 36 l 799 987 l 836 987 l 836 0 l 505 0 l 505 -236 l 468 -236 l 468 0 l 132 0 l 132 987 "},"Ѥ":{"x_min":160.734375,"x_max":1113.046875,"ha":1238,"o":"m 807 464 l 451 464 l 451 420 q 539 131 451 240 q 771 23 627 23 q 997 92 914 23 q 1080 303 1080 162 l 1111 303 l 1112 299 q 1021 66 1115 147 q 771 -13 926 -13 q 512 106 609 -13 q 414 420 414 225 l 414 464 l 197 464 l 197 0 l 160 0 l 160 987 l 197 987 l 197 501 l 414 501 l 414 568 q 512 882 414 762 q 771 1002 609 1002 q 1021 921 926 1002 q 1112 691 1115 841 l 1111 687 l 1080 687 q 997 893 1080 820 q 771 965 914 965 q 539 856 627 965 q 451 569 451 747 l 451 501 l 807 501 l 807 464 "},"Å":{"x_min":23.0625,"x_max":806.40625,"ha":829,"o":"m 655 295 l 173 295 l 63 0 l 23 0 l 392 987 l 436 987 l 806 0 l 766 0 l 655 295 m 187 331 l 642 331 l 435 884 l 416 942 l 412 942 l 394 884 l 187 331 m 321 1170 q 348 1236 321 1208 q 413 1264 375 1264 q 477 1236 450 1264 q 503 1170 503 1209 q 477 1105 503 1131 q 413 1078 450 1078 q 348 1105 375 1078 q 321 1170 321 1131 m 360 1170 q 375 1132 360 1147 q 413 1116 391 1116 q 450 1131 435 1116 q 465 1170 465 1146 q 450 1210 465 1194 q 413 1226 435 1226 q 375 1210 391 1226 q 360 1170 360 1194 "},"ș":{"x_min":75.671875,"x_max":602.9375,"ha":691,"o":"m 566 179 q 516 285 566 238 q 342 360 466 333 q 152 432 211 388 q 94 562 94 476 q 160 694 94 640 q 339 747 227 747 q 531 690 461 747 q 597 541 600 633 l 596 537 l 564 537 q 504 660 564 609 q 339 710 443 710 q 183 666 236 710 q 130 563 130 621 q 175 465 130 505 q 353 394 220 424 q 539 316 476 365 q 602 179 602 267 q 532 39 602 92 q 345 -14 461 -14 q 144 43 217 -14 q 75 182 71 100 l 77 186 l 107 186 q 181 61 112 99 q 345 22 250 22 q 506 69 446 22 q 566 179 566 117 m 363 -179 l 330 -305 l 296 -305 l 327 -182 l 327 -108 l 363 -108 l 363 -179 "},"Ѵ":{"x_min":23.734375,"x_max":892.546875,"ha":836,"o":"m 346 96 l 363 44 l 367 44 l 385 96 l 623 832 q 700 962 651 924 q 822 1001 748 1001 q 859 995 841 1001 q 892 982 876 989 l 876 953 q 852 964 868 959 q 819 969 837 969 q 724 941 765 969 q 653 816 682 912 l 387 0 l 343 0 l 23 987 l 63 987 l 346 96 "},"Ә":{"x_min":78.671875,"x_max":913.5625,"ha":988,"o":"m 466 1001 q 795 885 678 1001 q 913 579 913 769 l 913 463 q 795 119 913 252 q 497 -14 677 -14 q 192 97 306 -14 q 78 398 78 208 l 78 455 l 876 455 l 876 463 l 876 579 q 774 857 876 750 q 466 965 671 965 q 293 937 370 965 q 158 860 215 909 l 137 889 q 272 971 197 940 q 466 1001 347 1001 m 497 22 q 760 133 659 22 q 871 413 861 244 l 869 417 l 115 417 l 115 396 q 217 128 115 233 q 497 22 318 22 "},"¸":{"x_min":54.9375,"x_max":266.546875,"ha":332,"o":"m 140 0 l 132 -51 q 230 -82 194 -56 q 266 -166 266 -108 q 212 -260 266 -225 q 59 -295 159 -295 l 54 -261 q 177 -237 125 -261 q 229 -166 229 -212 q 198 -105 229 -122 q 87 -82 167 -88 l 104 0 l 140 0 "},"=":{"x_min":99.703125,"x_max":665.34375,"ha":775,"o":"m 665 571 l 99 571 l 99 608 l 665 608 l 665 571 m 665 295 l 99 295 l 99 332 l 665 332 l 665 295 "},"ạ":{"x_min":62.390625,"x_max":632.78125,"ha":733,"o":"m 577 135 q 463 27 539 69 q 281 -14 388 -14 q 120 41 179 -14 q 62 192 62 97 q 149 347 62 284 q 367 409 236 409 l 577 409 l 577 516 q 518 659 577 608 q 353 710 459 710 q 192 662 253 710 q 132 538 132 614 l 101 539 l 100 543 q 166 688 96 628 q 353 747 237 747 q 542 687 471 747 q 613 515 613 628 l 613 147 q 618 72 613 109 q 632 0 622 35 l 592 0 q 580 72 583 48 q 577 124 577 96 l 577 135 m 281 21 q 466 69 390 21 q 577 207 541 118 l 577 372 l 369 372 q 177 319 255 372 q 99 189 99 267 q 148 68 99 115 q 281 21 198 21 m 371 -200 l 307 -200 l 307 -106 l 371 -106 l 371 -200 "},"ρ":{"x_min":115.96875,"x_max":677.546875,"ha":760,"o":"m 677 353 q 604 84 677 183 q 402 -14 531 -14 q 252 20 316 -14 q 153 112 189 54 l 153 -282 l 116 -282 l 116 203 q 115 204 115 204 q 115 206 115 205 l 116 420 l 116 431 q 196 664 116 581 q 401 747 276 747 q 603 644 530 747 q 677 367 677 541 l 677 353 m 640 367 q 578 615 640 520 q 401 710 517 710 q 213 623 274 710 q 153 417 153 537 l 153 179 q 244 64 181 107 q 402 22 307 22 q 579 111 518 22 q 640 353 640 201 l 640 367 "},"Ћ":{"x_min":20.34375,"x_max":974.609375,"ha":1089,"o":"m 773 950 l 427 950 l 427 623 l 649 623 q 892 546 810 623 q 974 293 974 468 l 974 0 l 937 0 l 937 293 q 865 516 937 446 q 649 586 792 586 l 427 586 l 427 0 l 390 0 l 390 950 l 20 950 l 20 987 l 773 987 l 773 950 "},"ú":{"x_min":113.9375,"x_max":645.671875,"ha":760,"o":"m 608 128 q 510 23 573 61 q 355 -14 446 -14 q 178 66 242 -14 q 113 315 113 146 l 113 733 l 150 733 l 150 314 q 205 93 150 164 q 354 22 260 22 q 527 76 465 22 q 607 221 588 131 l 607 733 l 644 733 l 644 301 l 645 301 q 644 284 645 293 q 644 265 644 276 l 644 0 l 613 0 l 608 128 m 510 1030 l 563 1030 l 565 1027 l 408 850 l 363 850 l 361 853 l 510 1030 "},"˚":{"x_min":138.359375,"x_max":320.796875,"ha":448,"o":"m 138 907 q 165 973 138 945 q 230 1001 192 1001 q 294 973 267 1001 q 320 907 320 946 q 294 842 320 868 q 230 815 267 815 q 165 842 192 815 q 138 907 138 868 m 177 907 q 192 869 177 884 q 230 853 208 853 q 267 868 252 853 q 282 907 282 883 q 267 947 282 931 q 230 963 252 963 q 192 947 208 963 q 177 907 177 931 "},"д":{"x_min":37.296875,"x_max":687.71875,"ha":758,"o":"m 92 36 q 183 151 147 36 q 228 478 220 267 l 242 733 l 642 733 l 642 36 l 687 36 l 687 -236 l 651 -236 l 651 0 l 67 0 l 67 -236 l 37 -236 l 37 36 l 92 36 m 265 478 q 232 201 258 315 q 163 36 207 86 l 606 36 l 606 697 l 276 697 l 265 478 "},"ӥ":{"x_min":116.65625,"x_max":644.3125,"ha":760,"o":"m 607 733 l 644 733 l 644 0 l 607 0 l 607 661 l 602 663 l 153 0 l 116 0 l 116 733 l 153 733 l 153 71 l 157 70 l 607 733 m 587 902 l 494 902 l 494 982 l 587 982 l 587 902 m 269 902 l 176 902 l 176 982 l 269 982 l 269 902 "},"¯":{"x_min":62.390625,"x_max":487.640625,"ha":550,"o":"m 487 951 l 62 951 l 62 987 l 487 987 l 487 951 "},"":{"x_min":118.6875,"x_max":185.828125,"ha":311,"o":"m 185 7 l 152 -118 l 118 -118 l 149 4 l 149 78 l 185 78 l 185 7 "},"u":{"x_min":113.9375,"x_max":645.671875,"ha":760,"o":"m 608 128 q 510 23 573 61 q 355 -14 446 -14 q 178 66 242 -14 q 113 315 113 146 l 113 733 l 150 733 l 150 314 q 205 93 150 164 q 354 22 260 22 q 527 76 465 22 q 607 221 588 131 l 607 733 l 644 733 l 644 301 l 645 301 q 644 284 645 293 q 644 265 644 276 l 644 0 l 613 0 l 608 128 "},"З":{"x_min":90.765625,"x_max":824.71875,"ha":899,"o":"m 444 522 q 692 578 612 522 q 772 737 772 634 q 691 903 772 841 q 447 965 610 965 q 225 900 314 965 q 137 729 137 836 l 106 729 l 105 733 q 201 927 101 852 q 447 1001 301 1001 q 712 932 615 1001 q 809 734 809 863 q 753 593 809 654 q 596 505 698 531 q 767 420 710 482 q 824 261 824 359 q 720 59 824 132 q 447 -14 615 -14 q 194 59 301 -14 q 90 269 87 133 l 92 274 l 123 274 q 212 92 123 162 q 447 22 301 22 q 698 85 609 22 q 788 259 788 147 q 701 431 788 377 q 444 484 615 484 l 319 484 l 319 522 l 444 522 "},"Α":{"x_min":23.0625,"x_max":806.40625,"ha":829,"o":"m 655 295 l 173 295 l 63 0 l 23 0 l 392 987 l 436 987 l 806 0 l 766 0 l 655 295 m 187 331 l 642 331 l 435 884 l 416 942 l 412 942 l 394 884 l 187 331 "},"⅝":{"x_min":74.8125,"x_max":1175.71875,"ha":1245,"o":"m 82 684 l 115 987 l 426 987 l 426 946 l 147 946 l 124 749 q 182 779 150 768 q 269 791 214 790 q 399 746 349 793 q 450 616 450 699 q 402 485 450 534 q 256 436 355 436 q 124 473 176 436 q 75 583 71 510 l 76 587 l 108 589 q 148 503 108 533 q 256 473 188 473 q 374 509 336 473 q 412 616 412 545 q 374 714 412 678 q 269 750 336 750 q 165 731 202 750 q 111 677 128 713 l 82 684 m 392 88 l 362 109 l 844 881 l 874 860 l 392 88 m 1159 405 q 1132 330 1159 362 q 1061 281 1105 297 q 1144 229 1112 264 q 1175 147 1175 193 q 1120 33 1175 75 q 982 -7 1064 -7 q 836 33 893 -7 q 778 147 778 74 q 810 229 778 193 q 896 281 842 264 q 823 330 850 297 q 795 405 795 362 q 848 512 795 474 q 981 550 900 550 q 1108 512 1057 550 q 1159 405 1159 474 m 1138 145 q 1092 230 1138 197 q 981 263 1046 263 q 863 230 910 263 q 815 145 815 198 q 863 61 815 92 q 982 29 910 29 q 1093 61 1048 29 q 1138 145 1138 92 m 1121 407 q 1080 483 1121 454 q 981 513 1040 513 q 874 485 916 513 q 832 407 832 457 q 875 329 832 358 q 982 299 917 299 q 1081 329 1040 299 q 1121 407 1121 358 "},"ẻ":{"x_min":65.78125,"x_max":644.3125,"ha":705,"o":"m 373 -14 q 154 86 244 -14 q 65 339 65 186 l 65 382 q 154 644 65 541 q 377 747 242 747 q 571 667 499 747 q 644 447 644 586 l 644 391 l 102 391 l 102 382 l 102 339 q 178 113 102 204 q 373 22 254 22 q 500 46 439 22 q 598 111 560 71 l 618 83 q 518 13 579 40 q 373 -14 457 -14 m 377 710 q 190 631 263 710 q 107 432 117 552 l 109 427 l 607 427 l 607 450 q 545 637 607 563 q 377 710 484 710 m 361 858 l 361 925 q 459 948 429 930 q 489 1002 489 965 q 442 1059 489 1041 q 329 1077 394 1077 l 334 1110 q 474 1081 420 1110 q 527 1002 527 1052 q 491 924 527 951 q 393 894 455 898 l 393 858 l 361 858 "},"ẵ":{"x_min":62.390625,"x_max":632.78125,"ha":733,"o":"m 577 135 q 463 27 539 69 q 281 -14 388 -14 q 120 41 179 -14 q 62 192 62 97 q 149 347 62 284 q 367 409 236 409 l 577 409 l 577 516 q 518 659 577 608 q 353 710 459 710 q 192 662 253 710 q 132 538 132 614 l 101 539 l 100 543 q 166 688 96 628 q 353 747 237 747 q 542 687 471 747 q 613 515 613 628 l 613 147 q 618 72 613 109 q 632 0 622 35 l 592 0 q 580 72 583 48 q 577 124 577 96 l 577 135 m 281 21 q 466 69 390 21 q 577 207 541 118 l 577 372 l 369 372 q 177 319 255 372 q 99 189 99 267 q 148 68 99 115 q 281 21 198 21 m 544 1000 l 544 996 q 497 895 548 934 q 358 855 446 855 q 219 895 270 855 q 173 996 168 934 l 173 1000 l 204 1000 q 241 919 204 949 q 358 888 278 888 q 473 919 435 888 q 512 1000 512 951 l 544 1000 m 550 1169 q 520 1088 550 1119 q 445 1057 489 1057 q 353 1094 399 1057 q 274 1131 306 1131 q 222 1110 243 1131 q 202 1052 202 1088 l 169 1058 q 199 1135 169 1105 q 274 1165 229 1165 q 365 1128 317 1165 q 445 1090 413 1090 q 496 1114 474 1090 q 517 1175 517 1137 l 550 1169 "},"ữ":{"x_min":113.9375,"x_max":862.765625,"ha":760,"o":"m 861 861 l 862 857 q 807 677 864 743 q 644 605 749 612 l 644 301 l 645 301 q 644 284 645 293 q 644 265 644 276 l 644 0 l 613 0 l 608 128 q 510 23 573 61 q 355 -14 446 -14 q 178 66 242 -14 q 113 315 113 146 l 113 733 l 150 733 l 150 314 q 205 93 150 164 q 354 22 260 22 q 527 76 465 22 q 607 221 588 131 l 607 733 l 644 733 l 644 648 l 648 647 q 782 706 735 650 q 828 861 828 761 l 861 861 m 595 989 q 560 898 595 933 q 475 863 526 863 q 371 905 424 863 q 281 947 318 947 q 222 922 245 947 q 199 856 199 897 l 161 863 q 195 951 161 917 q 281 984 229 984 q 385 942 330 984 q 475 900 439 900 q 533 927 509 900 q 557 996 557 954 l 595 989 "},"é":{"x_min":65.78125,"x_max":644.3125,"ha":705,"o":"m 373 -14 q 154 86 244 -14 q 65 339 65 186 l 65 382 q 154 644 65 541 q 377 747 242 747 q 571 667 499 747 q 644 447 644 586 l 644 391 l 102 391 l 102 382 l 102 339 q 178 113 102 204 q 373 22 254 22 q 500 46 439 22 q 598 111 560 71 l 618 83 q 518 13 579 40 q 373 -14 457 -14 m 377 710 q 190 631 263 710 q 107 432 117 552 l 109 427 l 607 427 l 607 450 q 545 637 607 563 q 377 710 484 710 m 494 1045 l 547 1045 l 549 1042 l 392 865 l 347 865 l 345 868 l 494 1045 "},"Ş":{"x_min":60.25,"x_max":756.21875,"ha":829,"o":"m 718 232 q 649 369 718 317 q 412 476 579 421 q 166 583 245 526 q 87 752 87 640 q 180 932 87 864 q 415 1001 272 1001 q 652 925 562 1001 q 739 713 742 849 l 738 709 l 707 709 q 626 892 707 819 q 415 965 544 965 q 202 902 281 965 q 124 754 124 839 q 187 615 124 668 q 423 511 250 562 q 674 401 592 458 q 756 233 756 344 q 659 53 756 121 q 419 -14 562 -14 q 164 55 271 -14 q 60 274 56 124 l 61 278 l 92 278 q 191 83 92 143 q 419 22 290 22 q 634 82 549 22 q 718 232 718 142 m 419 -6 l 411 -57 q 509 -88 473 -62 q 545 -172 545 -114 q 491 -266 545 -231 q 338 -301 438 -301 l 333 -267 q 456 -243 404 -267 q 508 -172 508 -218 q 477 -111 508 -128 q 366 -88 446 -94 l 383 -6 l 419 -6 "},"B":{"x_min":135.640625,"x_max":769.78125,"ha":834,"o":"m 135 0 l 135 987 l 395 987 q 633 924 548 987 q 718 734 718 861 q 677 593 718 651 q 563 515 637 535 l 562 511 q 710 431 650 499 q 769 271 769 362 q 686 71 769 142 q 464 0 602 0 l 135 0 m 172 487 l 172 36 l 464 36 q 661 98 589 36 q 733 270 733 160 q 660 427 733 368 q 464 487 588 487 l 172 487 m 172 524 l 421 524 q 615 579 550 526 q 680 737 680 632 q 608 896 680 843 q 395 950 536 950 l 172 950 l 172 524 "},"…":{"x_min":143.328125,"x_max":711.65625,"ha":851,"o":"m 201 0 l 143 0 l 143 88 l 201 88 l 201 0 m 461 0 l 403 0 l 403 88 l 461 88 l 461 0 m 711 0 l 653 0 l 653 88 l 711 88 l 711 0 "},"Ủ":{"x_min":125.46875,"x_max":800.296875,"ha":926,"o":"m 800 987 l 800 331 q 706 77 800 168 q 463 -14 611 -14 q 219 77 314 -14 q 125 331 125 169 l 125 987 l 162 987 l 162 331 q 247 106 162 191 q 463 22 332 22 q 678 106 593 22 q 763 331 763 191 l 763 987 l 800 987 m 456 1076 l 456 1143 q 554 1166 524 1148 q 584 1220 584 1183 q 537 1277 584 1259 q 424 1295 489 1295 l 429 1328 q 569 1299 515 1328 q 622 1220 622 1270 q 586 1142 622 1169 q 488 1112 550 1116 l 488 1076 l 456 1076 "},"H":{"x_min":135.640625,"x_max":839.640625,"ha":975,"o":"m 839 0 l 803 0 l 803 471 l 172 471 l 172 0 l 135 0 l 135 987 l 172 987 l 172 507 l 803 507 l 803 987 l 839 987 l 839 0 "},"î":{"x_min":-26.90625,"x_max":314.921875,"ha":275,"o":"m 159 0 l 122 0 l 122 733 l 159 733 l 159 0 m 314 861 l 314 853 l 267 853 l 141 979 l 17 853 l -26 853 l -26 864 l 115 1004 l 169 1004 l 314 861 "},"ν":{"x_min":29.15625,"x_max":634.140625,"ha":663,"o":"m 295 155 l 329 56 l 333 56 l 368 155 l 594 733 l 634 733 l 348 0 l 349 0 l 314 0 l 29 733 l 68 733 l 295 155 "},"ư":{"x_min":113.9375,"x_max":862.765625,"ha":760,"o":"m 861 861 l 862 857 q 807 677 864 743 q 644 605 749 612 l 644 301 l 645 301 q 644 284 645 293 q 644 265 644 276 l 644 0 l 613 0 l 608 128 q 510 23 573 61 q 355 -14 446 -14 q 178 66 242 -14 q 113 315 113 146 l 113 733 l 150 733 l 150 314 q 205 93 150 164 q 354 22 260 22 q 527 76 465 22 q 607 221 588 131 l 607 733 l 644 733 l 644 648 l 648 647 q 782 706 735 650 q 828 861 828 761 l 861 861 "},"Ό":{"x_min":90.203125,"x_max":834.890625,"ha":925,"o":"m 834 419 q 735 102 834 219 q 463 -14 636 -14 q 189 102 288 -14 q 90 419 90 219 l 90 567 q 188 884 90 767 q 461 1001 287 1001 q 735 884 635 1001 q 834 567 834 767 l 834 419 m 798 569 q 710 857 798 750 q 461 965 623 965 q 214 857 301 965 q 127 569 127 750 l 127 419 q 214 129 127 236 q 463 22 301 22 q 711 129 624 22 q 798 419 798 236 l 798 569 m 132 1027 l 204 1027 l 132 904 l 110 904 l 132 1027 "},"−":{"x_min":110.546875,"x_max":676.859375,"ha":791,"o":"m 676 489 l 110 489 l 110 525 l 676 525 l 676 489 "},"⅜":{"x_min":74.296875,"x_max":1148.71875,"ha":1218,"o":"m 262 744 q 369 771 334 744 q 403 850 403 799 q 367 930 403 900 q 261 961 332 961 q 157 930 199 961 q 116 849 116 899 l 85 849 l 83 853 q 132 958 79 917 q 261 998 184 998 q 392 959 344 998 q 440 848 440 920 q 416 774 440 807 q 347 726 391 742 q 424 678 398 711 q 450 595 450 646 q 397 481 450 522 q 261 440 345 440 q 127 480 183 440 q 74 594 71 519 l 75 598 l 108 598 q 150 511 108 545 q 261 477 193 477 q 372 508 333 477 q 412 593 412 539 q 374 679 412 652 q 262 706 336 706 l 185 706 l 185 744 l 262 744 m 360 88 l 330 109 l 812 881 l 842 860 l 360 88 m 1132 405 q 1105 330 1132 362 q 1034 281 1078 297 q 1117 229 1085 264 q 1148 147 1148 193 q 1093 33 1148 75 q 955 -7 1037 -7 q 809 33 866 -7 q 751 147 751 74 q 783 229 751 193 q 869 281 815 264 q 796 330 823 297 q 768 405 768 362 q 821 512 768 474 q 954 550 873 550 q 1081 512 1030 550 q 1132 405 1132 474 m 1111 145 q 1065 230 1111 197 q 954 263 1019 263 q 836 230 883 263 q 788 145 788 198 q 836 61 788 92 q 955 29 883 29 q 1066 61 1021 29 q 1111 145 1111 92 m 1094 407 q 1053 483 1094 454 q 954 513 1013 513 q 847 485 889 513 q 805 407 805 457 q 848 329 805 358 q 955 299 890 299 q 1054 329 1013 299 q 1094 407 1094 358 "}}}
